<?xml version="1.0" standalone="no"?>
<!DOCTYPE svg PUBLIC "-//W3C//DTD SVG 1.1//EN" "http://www.w3.org/Graphics/SVG/1.1/DTD/svg11.dtd" >
<svg xmlns="http://www.w3.org/2000/svg">
<metadata>
This is a custom SVG webfont generated by Font Squirrel.
Designer    : HighLogic  Erwin Denissen 1999
Foundry     : HighLogic
Foundry URL : httpwwwhighlogiccom
</metadata>
<defs>
<font id="webfontnJZ6r2u2" horiz-adv-x="1540" >
<font-face units-per-em="2048" ascent="1638" descent="-410" />
<missing-glyph horiz-adv-x="600" />
<glyph unicode=" "  horiz-adv-x="600" />
<glyph unicode="&#x09;" horiz-adv-x="600" />
<glyph unicode="&#xa0;" horiz-adv-x="600" />
<glyph unicode="!" horiz-adv-x="1274" d="M1056 418q74 -161 -72 -228q-155 -30 -196 116q4 135 124 168q89 0 144 -56zM852 605h16h20h52h16h68h32h28v1159h-56h-44h-20h-12h-16h-12h-80h-12h-48v-13v-21v-13v-17v-12v-85v-30v-17v-21v-17v-21v-56v-17v-72v-13v-50v-30v-30v-25v-30v-26v-29v-26v-72v-25v-22v-25 v-17v-77v-46v-17v-17v-17v-17v-72v-13v-51h68z" />
<glyph unicode="&#x22;" horiz-adv-x="1096" d="M428 1838h56h12h20h12h16h12h80l-12 -20l-4 -12l-8 -8l-16 -28l-4 -12l-28 -48l-28 -48l-8 -16q-14 -19 -20 -36l-12 -12l-32 -64l-24 -32l-4 -8q-6 -17 -12 -28l-8 -8q-13 -28 -24 -44h-20h-16h-72h-16h-16h-16h-68h-12h-48h-48l12 20l8 20l12 16l8 12l4 12l8 12l4 12 l8 4q14 34 28 56q17 25 24 44l12 12l4 12l8 8q13 35 32 56l4 16l8 12l16 20l4 12l40 68h124zM756 1838h12h80h12h72h12h124l-4 -16l-12 -16l-8 -16l-12 -20l-4 -12q-14 -19 -20 -36q-19 -25 -28 -44l-4 -12l-8 -4q-11 -31 -28 -48q-24 -55 -48 -88l-4 -12l-8 -4l-4 -16 l-12 -12q-19 -44 -36 -68h-20h-24h-20h-16h-72h-16h-16h-16h-68h-12h-48l8 24l8 12l8 12l24 44q12 22 24 36q14 38 32 60l8 16l12 16l16 36l12 12l4 12l8 12l4 12l8 8l4 12l16 24q4 7 8 8q17 44 36 68h16z" />
<glyph unicode="#" horiz-adv-x="216" />
<glyph unicode="$" horiz-adv-x="1588" d="M1448 1534l-8 -8l-40 -32l-8 -12l-12 -12l-16 -8l-12 -12l-12 -12l-8 -12l-16 -8q-14 -19 -24 -28l-24 -16l-4 -8l-8 -4q-21 -26 -40 -40q-252 206 -520 132q-15 -14 -32 -20q-22 -23 -40 -36l-4 -8l-20 -48q2 -80 52 -128l68 -24l64 -12q30 -10 52 -12l16 -4l16 -4 l16 -4l16 -4l20 -8h12l16 -4l20 -8l16 -4h12q23 -9 40 -12l32 -8q19 -9 32 -12l12 -4l52 -20l8 -8q39 -18 64 -40q7 -4 8 -8l8 -4q18 -13 28 -24q25 -19 40 -36q146 -203 72 -420q-79 -222 -280 -292q-625 -192 -1020 244l12 16l16 8q7 9 16 12q16 21 36 28q7 9 16 12 q7 9 16 12l8 12l12 8l8 8l12 8l12 4l8 12l8 4l8 8l8 4l8 4l56 48q265 -260 592 -188l12 8l12 4l4 8l60 40q14 34 28 56q12 109 -68 172l-16 4l-12 8l-16 4l-32 8h-12l-16 4l-8 4q-37 6 -64 16h-12l-12 4l-32 8q-50 6 -84 20q-391 51 -432 408q9 451 532 508q413 10 672 -252 zM942 -31v238h-296v-238h296zM940 1759v233h-296v-233h296zM940 175v31h-294v-31h294zM936 1763v31h-294v-31h294z" />
<glyph unicode="%" horiz-adv-x="1728" d="M1392 1818h12h20h12h16h12h80l-16 -28l-20 -24q-10 -19 -20 -28l-8 -12l-8 -12l-8 -4q-11 -24 -24 -40l-8 -8q-23 -35 -44 -56l-16 -28l-8 -8l-32 -44l-8 -8l-40 -60q-14 -13 -20 -24l-20 -24l-16 -28l-24 -24l-16 -28l-8 -8l-8 -12l-40 -52q-9 -15 -20 -24l-12 -24 l-8 -8l-8 -8l-4 -12l-20 -20q-24 -44 -52 -68l-4 -12q-14 -18 -24 -28l-4 -12l-8 -4l-4 -8q-4 -7 -8 -8l-4 -12q-26 -29 -40 -52l-16 -24q-19 -20 -28 -36q-16 -22 -28 -32q-7 -18 -20 -28l-16 -24q-9 -14 -20 -24l-16 -24q-4 -7 -8 -8l-4 -12l-40 -52q-24 -35 -44 -56 l-4 -8q-22 -33 -40 -52l-16 -24l-12 -16l-8 -12l-8 -8l-4 -8l-4 -8l-8 -4l-28 -44l-24 -28q-20 -33 -40 -52l-8 -12q-12 -22 -28 -36l-4 -8q-4 -7 -8 -8q-7 -14 -16 -24l-40 -60h-44h-16h-12h-20h-12h-16h-12h-80l16 28l12 8q7 15 16 24l4 8l4 8l8 8q22 33 40 52l16 28l12 8 l4 12q21 24 32 44l8 8q24 35 44 56l16 28l12 12l12 12l8 12l8 16q22 32 40 48l4 12l8 12l12 8l4 8l4 12q33 36 48 64l8 8l8 12l40 52l16 24l20 20q24 44 44 68l16 20l8 8q19 29 36 48l16 20l16 24l8 12l8 8l4 12l8 8l8 8q21 36 44 56q17 36 40 56l16 24q9 14 20 24l4 12l8 8 l40 52q4 7 8 8l4 12l8 12l20 20q14 28 32 44l4 8q22 33 40 52l4 8l32 44l8 8l4 8l4 8l8 4l28 44q21 24 32 44l12 16l12 8l4 12l28 36l4 8l8 4l4 12l40 52h56zM740 1478q20 -219 -100 -368q-146 -97 -296 -44q-157 67 -176 224q-81 427 268 484q279 -20 304 -296zM356 1606 q-95 -171 -28 -344q101 -168 236 -12q6 27 16 44v12l4 12l4 12v12v12v12q0 20 4 32v12v12q-8 40 -4 72q-32 151 -172 144zM1492 878q83 -184 44 -364q-29 -185 -188 -236q-338 -58 -380 280q-40 379 268 436q165 -2 256 -116zM1244 862q-145 -47 -132 -244q3 -121 68 -196 q211 -72 216 156q41 258 -148 284h-4h4h-4z" />
<glyph unicode="&#x26;" horiz-adv-x="1376" d="M988 1558q130 -359 -240 -528l-4 -12l16 -16l12 -16l4 -8q25 -31 36 -56l12 -8l28 -48q21 -20 28 -40l8 -4l8 -12l4 -8l8 -8l16 -28q26 -26 36 -52q58 82 56 172h16h68h44h16h68h12h48q-15 -244 -156 -408q80 -24 152 -8l4 -44l4 -20q5 -22 4 -40q4 -6 4 -12l4 -24v-12 q6 -16 4 -32q10 -23 8 -48q-260 -107 -400 48q-247 -145 -496 -76q-298 83 -344 412q-10 330 252 484q-130 205 -52 408q96 212 340 224q244 -1 372 -180zM572 1270l12 -24q142 44 156 180q-35 71 -108 72q-164 -72 -60 -228zM408 562q11 -18 16 -32q173 -130 336 -20 q-13 10 -20 24l-4 8l-8 8l-4 12l-8 4l-4 12q-21 21 -32 40l-28 40l-8 12l-12 20l-12 12l-8 16l-12 12l-12 16l-8 12l-16 28q-7 4 -8 8l-8 8l-4 12l-52 64q-192 -127 -84 -316z" />
<glyph unicode="'" horiz-adv-x="444" d="M396 1654q12 -294 -268 -360l-4 12q-4 6 -4 12q-15 25 -20 48q97 28 160 84q-3 20 -12 32q-136 -15 -172 104q-12 144 120 176q148 15 200 -108z" />
<glyph unicode="(" horiz-adv-x="1236" d="M776 1990l8 -8l40 -68l8 -12l8 -16l4 -12l8 -8l12 -28q23 -25 32 -52q-436 -278 -468 -752q-12 -589 468 -880l-36 -56l-8 -20l-20 -32l-48 -84q-9 -12 -20 -16l-8 8l-8 4q-44 25 -68 48q-572 351 -576 968q29 646 544 944q5 6 12 8q4 7 8 8q19 14 32 20l8 8q35 18 56 36 q9 -2 12 -8z" />
<glyph unicode=")" horiz-adv-x="1236" d="M1132 968q-24 -647 -536 -944l-12 -12l-12 -4q-4 -7 -8 -8l-8 -8l-8 -4l-28 -16l-52 -36l-16 8l-4 16l-12 16l-8 12l-8 16l-8 8l-16 28q-11 20 -16 36l-8 4q-19 39 -36 64q483 314 472 844q-39 544 -472 788l24 44l8 12l4 12l8 8l8 20l8 8l8 12l4 12l8 8l4 12 q24 36 36 64q659 -343 676 -1020z" />
<glyph unicode="*" horiz-adv-x="874" d="M-7 966h37h43h37h31h36h25h110h69h24h25h23h25h105h18h74v-172l-43 -3h-37h-43h-37h-31h-36h-25h-111h-68h-24h-25h-23h-25h-105h-18h-74v40v12v12v13v52v9v37h43zM24 715l27 26l30 30l26 26l22 22l25 26l18 17l78 78l48 49l18 17l17 17l17 17l17 18l74 74l13 13l52 52 l122 -122l-28 -32l-26 -27l-31 -30l-25 -26l-22 -22l-26 -26l-18 -17l-78 -79l-48 -47l-17 -18l-18 -17l-17 -17l-17 -17l-74 -75l-13 -12l-52 -53l-29 29l-8 8l-9 9l-9 9l-37 37l-6 6l-26 26zM224 560v37v43v36v31v37v24v111v68v25v24v24v25v105v18v74h172l3 -43v-38v-42 v-37v-31v-36v-25v-111v-68v-24v-25v-24v-24v-105v-18v-74h-40h-12h-13h-12h-52h-9h-37v43zM474 592l-26 26l-31 31l-25 25l-22 22l-26 26l-17 17l-78 78l-49 49l-17 17l-18 18l-16 16l-18 18l-74 74l-13 13l-52 52l122 122l32 -28l27 -27l30 -30l26 -26l21 -22l26 -25 l18 -18l78 -79l48 -47l18 -18l17 -17l17 -17l17 -17l74 -74l13 -13l52 -53l-28 -28l-9 -9l-8 -8l-9 -9l-37 -37l-6 -6l-27 -26z" />
<glyph unicode="+" horiz-adv-x="828" d="M12 1007h35h40h34h29h34h23h103h64h23h23h22h23h98h17h69v-253l-40 -5h-35h-40h-34h-29h-34h-23h-104h-63h-23h-23h-22h-23h-98h-17h-69v59v18v18v18v77v14v54h40zM181 580v35v40v34v29v34v23v103v64v23v23v22v23v98v17v69h253l5 -40v-35v-40v-34v-29v-34v-23v-104v-63 v-23v-23v-22v-23v-98v-17v-69h-59h-18h-18h-18h-77h-14h-54v40z" />
<glyph unicode="," horiz-adv-x="736" d="M436 450q11 -300 -272 -364l-4 8l-24 64l24 8l24 8l8 8q67 23 108 64v20l-16 12q-188 -13 -176 172q46 101 148 112q135 2 180 -112z" />
<glyph unicode="-" horiz-adv-x="768" d="M136 994h20h24h12h80h52h16h72h16h16h16h68h12h48v-232h-16h-68h-44h-16h-68h-12h-48h-12h-16h-16h-16h-16h-68h-12h-48v16v20v52v16v68v12v48h24z" />
<glyph unicode="." horiz-adv-x="604" d="M472 362q17 -132 -92 -184q-186 -49 -232 128q6 163 156 188q137 -13 168 -132z" />
<glyph unicode="/" horiz-adv-x="876" d="M628 1774l52 -12l12 -4l12 -4l8 -4l16 -4l92 -24l-4 -32l-8 -16q-1 -10 -4 -16l-4 -20l-8 -24l-4 -12l-4 -24l-16 -48l-24 -92l-8 -28l-8 -24l-8 -24l-8 -24q-6 -33 -16 -56q-8 -38 -20 -64l-4 -24l-12 -44l-8 -20l-4 -16l-12 -48l-4 -16l-28 -88l-8 -32l-20 -64l-8 -28 l-4 -24l-8 -28l-8 -24l-4 -16l-4 -8q-8 -38 -20 -64l-4 -28l-4 -8l-8 -24l-4 -12l-4 -24l-28 -88l-4 -12l-4 -12l-4 -28l-4 -8l-4 -16l-4 -8l-4 -20l-8 -24q-7 -31 -16 -48l-4 -24l-8 -20l-4 -12l-4 -24l-4 -8l-16 -64l-4 -12l-16 -56l-16 -52l-4 -12l-4 -12l-12 -48l-4 -12 l-24 -92h-20l-12 4q-32 12 -56 16l-16 4l-16 4l-16 4l-8 4l-8 4l-84 20l8 32l8 28l8 32l20 60l8 32l4 20l8 28q9 23 12 40l20 60q1 10 4 16l4 24l4 12l16 56l4 12l4 16q7 25 16 44v16q15 37 20 64l4 16l4 8l16 64q9 23 12 44l4 12l4 16q15 37 20 64l8 28l8 32l8 28l4 12l4 8 q7 35 16 56l4 16l20 72l8 24l4 16l20 72l8 28l8 28q11 48 24 76l4 28l8 28l8 24l4 20l4 12l4 12l4 12l4 8l16 64l12 40l12 36l4 12l4 28l8 12l4 24l4 16l4 16l8 20q6 27 12 44l24 92q27 -6 44 -12z" />
<glyph unicode="0" horiz-adv-x="1572" d="M1432 1050q14 -377 -168 -660l-12 -8q-4 -7 -8 -8q-14 -19 -24 -28l-8 -4q-27 -29 -48 -44q-317 -190 -632 -64q-326 144 -368 508q-66 355 48 656q151 380 556 388q630 -24 664 -736zM476 1098l-4 -12v-24q-5 -44 -4 -72v-12v-44l4 -8q0 -38 4 -64l4 -60l-4 -12l4 -12 q4 -23 4 -32q4 -6 4 -12q13 -29 16 -52q5 -4 4 -8q14 -30 20 -52q7 -4 8 -8q23 -39 48 -60l8 -8l8 -8l8 -4l12 -8l4 -8q32 -14 52 -28q506 -109 420 704q-64 311 -356 300q-277 -83 -264 -396z" />
<glyph unicode="1" horiz-adv-x="908" d="M400 1742h72h52h16h68h12h48v-1528h-52h-16h-72h-16h-16h-16h-68h-12h-48v28v12v12v52v12v20v12v16v12v80v32v56v12v20v12v16v12v80v68v12v48v16v12v80v16v12v72v52v16v68v12v48h-68h-44h-16h-68h-12h-48v16v20v16v20v52v16v68v12v48q130 -3 224 56l4 8q24 32 36 56v12 l8 28l20 72h12z" />
<glyph unicode="2" horiz-adv-x="1352" d="M1200 1354q42 -317 -148 -532q-7 -13 -16 -20l-4 -8q-35 -45 -64 -68q-32 -42 -72 -60l-4 -8q-47 -35 -80 -52l-12 -12l-16 -8l-12 -8l-12 -8l-8 -8l-12 -4q-4 -7 -8 -8l-8 -8l-28 -16q-24 -11 -40 -24h28h12h16h12h20h12h16h12h80h16h16h12h72h52h16h68h12h48v-244 q1 -23 -8 -44h-12h-12h-124h-16h-20h-16h-20h-52h-16h-68h-12h-48h-28h-28h-24h-28h-24h-28h-24h-68h-24h-20h-24h-16h-72h-44h-16h-16h-16h-16h-68h-12h-48v20v16v20v16v20v52v16v68v12v48l48 32l16 8l20 8l20 16l8 4q18 14 32 20l16 12l44 24l12 12l8 8l8 4q20 13 32 24 l12 4q5 6 12 8q39 35 68 52l16 12l16 8l8 8q22 14 36 28l12 8l12 8l12 4l12 12l12 4l8 12l12 4l8 8l28 16q34 35 64 52l8 12l16 16l76 72l4 12l20 32l28 48q34 113 16 212l-40 72q-7 4 -8 8l-8 4l-8 12q-7 4 -8 8q-35 15 -56 36q-383 78 -380 -308h-16h-72h-16h-16h-16h-12 h-16h-12h-16h-72h-52q-13 554 492 612q548 53 644 -416z" />
<glyph unicode="3" horiz-adv-x="1480" d="M1248 1454q44 -134 12 -252q-28 -147 -156 -196q221 -104 180 -372q-10 -277 -228 -396q-42 -27 -76 -36q-744 -146 -872 464q2 11 12 12l24 4h16q13 4 24 4q6 4 12 4h12q39 11 68 12l12 4h20q72 19 120 20q46 -226 256 -260q279 -17 288 220q-11 102 -92 148h-12l-8 4 l-36 8h-16l-20 4h-16h-12h-16l-8 4h-16h-12h-28h-16l-72 8v12v72v52v16v68v12v48q182 -3 312 64q19 23 36 36q67 222 -188 252q-289 11 -324 -224q-37 2 -64 8h-24q-54 11 -88 12l-16 4h-16l-12 4h-12l-88 12q115 446 572 472q427 14 568 -328z" />
<glyph unicode="4" horiz-adv-x="1496" d="M788 1746h12h80h16h12h72h52h16h68h12h48v-980h52h16h68h12h48v-280q-4 -7 -12 -8h-44h-20h-12h-16h-12h-80v-260h-52h-16h-72h-16h-16h-16h-68h-12h-48v44v20v52v16v68v12v48h-32h-56h-12h-20h-12h-16h-12h-80h-68h-12h-48h-52h-16h-68h-12h-48h-44h-20h-52h-16h-12h-16 h-12h-16h-72v8v8v8v8v8v8v8v8v8v8v8v8v8v12v-4v8v-4v8v-4v8v-4v8v-4v8v-4v8v-4v8v-4v8v-4v8v-4v8v-4v8v-4v8v-4v8v-4v8v-4v8v-4v8v-4v8v-4v8v-4v8v-4v8v-4v8v-4v8v-4v8v-4v8v-4v8v-4v8v-4v8v-4v8v-4v8v-4v8v-4v8v-4v8v-4v8v-4v8v-4v8v-4v8v-4v8v-4v8v-4v8v-4v8v-4v8v-4v8v-4 v8v-4v8v-4v4l16 20l56 72l16 24l8 12l12 16l12 8l8 16l8 12l12 12q4 7 8 8l8 12l4 12l12 8q36 63 72 96l16 28l20 20l4 12l8 8l40 56l12 8q36 63 72 96q24 43 48 68l12 16l8 12l4 8q22 23 32 40l36 44l8 12l36 52l8 12q26 28 40 48q4 7 8 8l4 12l12 8l16 28l40 52h16z M856 1390l-16 -28l-24 -24l-16 -28q-14 -13 -20 -24l-16 -24q-14 -13 -20 -24l-16 -20q-13 -19 -24 -32q-4 -7 -8 -8l-4 -8l-8 -12l-4 -8l-8 -4l-4 -8q-4 -7 -8 -8l-4 -8l-4 -8l-8 -4l-28 -44l-8 -8l-28 -36l-12 -12l-12 -20l-12 -12q-20 -35 -36 -56l-24 -24l-4 -12 l-12 -12q-4 -7 -8 -8l-4 -12l-12 -8l-16 -28l-40 -52h28h24h28h24h20h24h16h72h44h16h16h16h16h68h12h48v28v80v24v12v16v12v20v12v16v12v80v16v16v12v72v52v16v68v12v48h-4h4h-4z" />
<glyph unicode="5" horiz-adv-x="1408" d="M280 1750h28h68h32h28h12h12h80h32h32h12h12h124h28h24h28h24h20h24h16h72h44h16h16h16h16h68h12h48v-288h-16h-72h-28h-80h-20h-24h-20h-16h-12h-80h-16h-12h-72h-52h-16h-68h-12h-48l-16 -12l-4 -56l-4 -12l-4 -24l-4 -28l-12 -88q229 139 456 52q214 -95 292 -292 q139 -732 -468 -816q-514 -31 -636 420l88 28h12q16 10 32 12l16 4l16 4l8 4l32 8l32 8q36 18 68 20q13 -85 64 -140q150 -143 316 -44q172 136 116 344q-62 155 -212 180q-180 11 -264 -132l-20 4h-16q-45 11 -76 12l-56 12h-12q-19 4 -32 4l-8 4h-16l-12 4h-12l-28 8 l-36 4v12l4 16v12l8 28l4 36l4 32l4 16l8 68q4 19 4 32l4 28l4 8q2 42 12 72v24q8 32 8 56l4 8l4 28v12q4 19 4 32l4 24l4 16v12q6 16 4 32l4 20l4 12v16l4 12l8 68q4 19 4 32l4 28l4 4l-4 -4z" />
<glyph unicode="6" horiz-adv-x="1400" d="M1236 1442l-52 -16l-12 -8l-16 -4l-16 -4q-22 -12 -44 -16q-6 -4 -12 -4q-6 -4 -12 -4l-8 -8h-12q-6 -4 -12 -4q-6 -4 -12 -4q-4 -5 -8 -4l-68 -28q-86 189 -284 148q-220 -60 -232 -324q351 224 668 8q222 -216 156 -540q-48 -345 -360 -420q-723 -117 -780 696 q-36 824 564 868q462 24 552 -332zM464 774q-5 -235 204 -284q187 -29 260 132q88 256 -136 368h-12q-32 9 -56 8q-222 -24 -260 -224z" />
<glyph unicode="7" horiz-adv-x="1160" d="M64 1750h16h72h24h28h80h32h32h32h32h80h12h12h124h28h24h28h24h20h24h16h72h44h16h16h16h16h68h12h48v-296l-8 -8l-4 -12l-4 -16l-12 -28l-4 -12l-4 -8q-14 -30 -20 -52l-12 -28l-12 -28l-32 -76l-4 -12l-4 -8l-4 -12l-24 -48l-4 -12l-20 -52l-12 -24l-8 -16 q-1 -10 -4 -16l-4 -12l-4 -8l-4 -12l-4 -8q-14 -30 -20 -52l-4 -8q-22 -44 -32 -76l-12 -28l-12 -28l-4 -12l-4 -12l-24 -48l-8 -24l-8 -24l-12 -24l-8 -20l-12 -24l-4 -16l-8 -20q-22 -44 -32 -76l-8 -12l-4 -16l-20 -48q-9 -24 -20 -40v-12l-8 -8l-12 -40l-4 -8 q-15 -27 -20 -48h-16h-16h-12h-80h-12h-72h-12h-124l4 16l16 36l4 12l8 16l4 16l4 8q10 20 16 36q10 27 20 44l8 24l12 28l12 28l12 28l12 28l4 12l4 8l28 72l12 20q18 57 36 92l4 8q15 45 32 72v12l32 72l4 8l28 72l12 20l8 28l12 20l8 28q13 30 24 48v12l8 8v12 q16 26 20 48l8 16l8 16l4 16l12 20l4 12l16 40l4 12l4 12l8 8l12 40l4 8q14 28 20 48h-32h-80h-12h-12h-124h-28h-24h-28h-24h-20h-24h-16h-72h-44h-16h-16h-16h-16h-68h-12h-48v20v16v20v16v20v52v16v68v12v48h28z" />
<glyph unicode="8" horiz-adv-x="1496" d="M1300 1458q97 -302 -152 -444q208 -112 204 -328q7 -235 -156 -372q-290 -196 -620 -100q-326 84 -368 396q-29 291 204 396q-238 159 -164 416q113 325 480 352q427 18 572 -316zM568 1378q-45 -231 188 -248q244 -14 248 208q-67 168 -256 148q-121 -17 -180 -108z M528 646q35 -174 216 -172q304 -27 288 244q-70 163 -292 144q-217 -23 -212 -216z" />
<glyph unicode="9" horiz-adv-x="1400" d="M1204 1362l12 -8l4 -20l4 -16l4 -16l4 -8l8 -36v-20q4 -6 4 -12l8 -44l8 -68l8 -64q34 -748 -488 -848q-512 -72 -628 320l84 28q4 5 8 4l36 16q25 7 40 16l12 4h12q4 5 8 4l12 4l64 28h16q65 -180 260 -148q207 47 244 260l4 64q-268 -172 -540 -76q-271 118 -288 392 q-57 605 488 652q479 9 592 -408zM440 1302q-41 -289 220 -336q274 28 264 292q-53 230 -280 224q-157 -39 -204 -180z" />
<glyph unicode=":" horiz-adv-x="604" d="M476 902q4 -103 -64 -164q-176 -82 -256 76q-40 187 140 224q143 -8 180 -136zM472 358q13 -124 -88 -176q-186 -60 -240 120q3 167 160 192q137 -14 168 -136z" />
<glyph unicode=";" horiz-adv-x="604" d="M476 902q4 -103 -64 -164q-176 -82 -256 76q-40 187 140 224q143 -8 180 -136zM475 358q11 -300 -272 -364l-4 8l-24 64l24 8l24 8l8 8q67 23 108 64v20l-16 12q-188 -13 -176 172q46 101 148 112q135 2 180 -112z" />
<glyph unicode="&#x3c;" horiz-adv-x="4376" d="M1104 1838h80h28h24h12h12h124h12h80h16h68h12h48h24h68h12h52h20h20h12h72h16h12h40h12h12h40q94 6 156 -8l-20 -20l-8 -8l-12 -8l-12 -12l-24 -20q-29 -37 -56 -56q-4 -7 -8 -8q-4 -7 -8 -8l-4 -8l-12 -8l-20 -20l-4 -8l-8 -4q-20 -27 -40 -40l-20 -20q-20 -27 -40 -40 l-4 -8l-8 -8l-8 -4l-4 -8l-8 -4q-15 -20 -28 -32l-8 -8l-8 -8l-8 -4l-4 -8l-8 -4q-15 -20 -28 -32l-16 -12l-16 -20l-16 -16l-16 -16l-16 -16l-20 -20l-12 -12l-40 -36q-13 -19 -28 -28l-4 -8l-8 -4q-15 -20 -28 -32l-12 -8q-4 -7 -8 -8l-4 -8l-8 -8l-8 -4l-4 -8l-8 -4 q-15 -20 -28 -32h32h80h12h12h124h28h24h28h24h20h24h16h72h44h16h16h16h16h68h32h28h12h12h20h12h16h12h80h32h32h32h16h12h20h12h16h12h80h12h12h20h12h16h12h80h32h32h12h16h72h32h12h16h72h12h80h32h16h72h12h12h124h28h12h16h72h56h12h20h12h16h12h80h68h12h48h52h16 h68h32h28h44h20h52h16h68h32h28v-728h-12h-16h-72h-16h-12h-72h-52h-16h-68h-12h-48h-56h-52h-16h-72h-16h-16h-16h-68h-12h-48h-32h-52h-16h-16h-16h-68h-12h-48h-32h-32h-32h-12h-12h-124h-32h-12h-20h-12h-16h-12h-80h-32h-32h-12h-16h-72h-12h-80h-32h-16h-72h-12h-12 h-124h-28h-12h-16h-72h-56h-12h-20h-12h-16h-12h-80h-68h-12h-48h-52h-16h-68h-12h-48h-44h-20h-52h-16h-68h-12h-48q18 -21 32 -32l8 -8l20 -24q37 -29 56 -56l12 -12q19 -13 28 -28q7 -4 8 -8q7 -4 8 -8q50 -42 76 -76l60 -56l20 -20l16 -20l52 -48l8 -8l4 -8 q20 -15 32 -28l4 -8q28 -20 44 -44l16 -12l12 -16l12 -8l12 -12l24 -28l12 -8l8 -12q7 -4 8 -8l12 -8l24 -28q24 -18 36 -36q38 -30 56 -60h-32h-40h-16h-12h-80h-68h-12h-48h-12h-12h-80h-32h-32h-12h-12h-124h-28h-24h-28h-24h-20h-24h-16h-72h-44h-16h-16h-16h-16h-68 h-12h-48l-20 24q-7 4 -8 8q-19 14 -28 24l-24 28l-8 4l-8 12q-7 4 -8 8l-8 4l-8 8l-4 8l-8 4l-4 8q-20 15 -32 28l-20 24l-8 4l-8 8l-4 8l-8 4l-4 8q-20 15 -32 28l-8 12q-39 31 -60 60q-7 4 -8 8q-37 29 -56 56l-60 64l-12 8l-8 12l-12 8l-8 12q-7 4 -8 8q-7 4 -8 8l-8 4 l-8 12l-20 20l-8 4l-4 8q-27 20 -40 40l-24 20l-4 8l-8 4l-4 8q-27 20 -40 40l-20 16l-4 8l-8 4l-4 8q-27 20 -40 40l-16 16q-28 20 -44 44l-16 12l-12 16l-16 12l-12 12l-16 16l-12 12l-16 16l-24 28l-16 12l-12 12l-8 8l-12 16l-12 8l-8 12l-8 4l-8 12l-20 20l-8 4l-4 8 q-27 20 -40 40l8 8l8 8l8 4l4 8l8 4q15 20 28 32l12 8q31 39 60 60q8 16 20 24l20 24l24 20q4 7 8 8q29 37 56 56l20 20l20 20l8 12l12 12l8 8l8 8l8 8l8 8l8 4q4 7 8 8l44 48l20 20l8 4l4 8l8 4q20 27 40 40q4 7 8 8q4 7 8 8l4 8l12 8l20 20l4 8l8 4q20 27 40 40l20 20 q20 27 40 40l4 8l8 8l8 4l4 8l8 4q15 20 28 32l8 8l8 8l8 4l4 8l8 4q15 20 28 32l16 12l16 20l16 16l16 16l16 16l20 20l12 12l40 36q13 19 28 28l4 8l8 4q15 20 28 32l12 8q4 7 8 8l4 8l8 8l8 4l4 8l8 4q15 20 28 32h12z" />
<glyph unicode="=" horiz-adv-x="797" d="M115 761h33h38h33h28h33h22h99h61h22h22h22h22h93h17h66v-224l-39 -4h-33h-38h-33h-28h-33h-22h-99h-61h-22h-22h-22h-22h-93h-17h-66v52v16v16v16v68v12v48h39zM115 1216h33h38h33h28h33h22h99h61h22h22h22h22h93h17h66v-224l-39 -4h-33h-38h-33h-28h-33h-22h-99h-61 h-22h-22h-22h-22h-93h-17h-66v52v16v16v16v68v12v48h39z" />
<glyph unicode="&#x3e;" horiz-adv-x="4376" d="M2220 1838h12h16h68h32h28h80h32h32h32h32h80h12h12h124h28h24h28h24h20h24h16h72h44h16h16h16h16h68h32h28l60 -64l24 -20l60 -64l12 -8l8 -12l12 -8l8 -12q7 -4 8 -8q7 -4 8 -8l8 -4l8 -12l20 -20l8 -4l4 -8q27 -20 40 -40q37 -29 56 -56q19 -14 28 -24l8 -8l4 -8 q7 -4 8 -8l48 -44l4 -8l8 -4l4 -8q27 -20 40 -40l20 -16l8 -12q39 -31 60 -60l24 -20l8 -12q7 -4 8 -8q7 -4 8 -8l8 -4l8 -12l20 -20l8 -4l4 -8q27 -20 40 -40l20 -16l16 -20l20 -16l4 -8q27 -20 40 -40l16 -12l12 -16l12 -8l4 -8q27 -20 40 -40q19 -13 28 -28l12 -12 l12 -12l8 -8l12 -16l12 -8l8 -12l8 -4l8 -12l20 -20l8 -4l4 -8q27 -20 40 -40l-20 -20l-24 -20l-4 -8l-8 -8l-8 -4l-4 -8l-8 -4q-15 -20 -28 -32q-16 -14 -24 -24l-8 -8l-12 -8l-4 -8l-12 -8l-20 -20l-4 -8l-8 -4q-20 -27 -40 -40l-20 -20l-20 -20q-4 -7 -8 -8 q-31 -39 -60 -60l-20 -24l-24 -20l-20 -24l-24 -20l-20 -24l-12 -12l-8 -8l-8 -8l-8 -8l-8 -8l-8 -4q-4 -7 -8 -8l-44 -48l-24 -20l-4 -8l-8 -8l-8 -4l-4 -8l-8 -4q-15 -20 -28 -32l-20 -20l-8 -8l-8 -4q-14 -19 -24 -28l-8 -12l-8 -8l-8 -4q-15 -20 -28 -32l-16 -16 l-16 -12l-12 -16l-16 -16l-8 -4q-4 -7 -8 -8q-31 -39 -60 -60q-14 -19 -24 -28l-16 -16l-28 -24l-12 -16l-12 -8l-12 -16l-8 -8l-8 -8l-8 -8l-8 -8l-8 -4q-4 -7 -8 -8l-44 -48h-12h-80h-28h-24h-12h-12h-124h-12h-80h-16h-68h-12h-48h-24h-68h-12h-52h-20h-20h-12h-72h-16 h-12h-40h-12h-12h-40q-94 -6 -156 8l24 20l20 24l40 36q13 19 28 28l4 8l8 4q15 20 28 32l12 8q4 7 8 8l4 8l8 8l8 4l4 8l8 4q15 20 28 32l24 20q20 27 40 40l4 8l8 8l8 4l4 8l8 4q15 20 28 32l8 8l8 8l8 4l4 8l8 4q15 20 28 32l16 12l16 20l16 16l16 16l16 16l20 20l12 12 l40 36q13 19 28 28l4 8l8 4q15 20 28 32l12 8q4 7 8 8l4 8l8 8l8 4l4 8l8 4q15 20 28 32h-32h-12h-20h-12h-16h-12h-80h-16h-20h-52h-16h-68h-12h-48h-16h-16h-12h-72h-52h-16h-12h-16h-12h-16h-72h-32h-32h-12h-12h-20h-12h-16h-12h-80h-12h-16h-68h-12h-48h-20h-16h-68 h-44h-16h-68h-12h-48h-32h-32h-44h-16h-12h-20h-12h-16h-12h-80h-12h-80h-56h-12h-20h-12h-16h-12h-80h-28h-12h-16h-72h-56h-12h-20h-12h-16h-12h-80h-68h-12h-48h-52h-16h-68h-12h-48h-44h-20h-52h-16h-68h-12h-48v32v12v20v12v16v12v80v16v20v52v16v68v12v48v16v16v12v72 v52v16v68v12v48h12h16h72h16h12h72h52h16h68h12h48h56h52h16h72h16h16h16h68h12h48h32h52h16h16h16h68h32h28h32h32h32h12h12h124h32h12h20h12h16h12h80h32h32h12h16h72h12h80h32h16h72h12h12h124h28h12h16h72h56h12h20h12h16h12h80h68h12h48h52h16h68h12h48h44h20h52h16h68 h32h28l-4 8l-8 4l-4 8q-27 20 -40 40l-20 16l-4 8q-28 20 -44 44l-24 20l-12 12l-12 12l-16 16l-8 12l-12 8l-8 12q-7 4 -8 8q-7 4 -8 8l-8 4l-8 12l-20 20l-8 4l-4 8q-27 20 -40 40l-20 16l-16 20l-20 16l-4 8q-28 20 -44 44q-27 20 -40 40l-12 12q-37 29 -56 56 q-37 29 -56 56q-28 20 -44 44q-19 13 -28 28q-39 25 -60 60h32z" />
<glyph unicode="?" horiz-adv-x="1572" d="M1448 1366q77 -430 -292 -620l-40 -52q-33 -59 -32 -116h-20h-16h-68h-44h-16h-68h-12h-48q3 320 312 488q46 58 64 108q24 254 -212 292q-235 -8 -256 -236h-20h-16h-68h-44h-16h-68h-12h-48q37 436 436 528l80 8q419 -28 524 -400zM1056 418q74 -161 -72 -228 q-155 -30 -196 116q4 135 124 168q89 0 144 -56z" />
<glyph unicode="@" horiz-adv-x="2060" d="M960 1218l4 -8q16 -20 24 -40q21 -31 28 -56v-16q12 -39 12 -68v-392q-4 -99 8 -164q49 -51 266 -90l-182 -239q-254 36 -344 149q-171 -170 -424 -84q-233 64 -272 284q2 323 304 376q16 10 32 12h12q6 4 12 4l12 4l72 12l32 4l12 4l68 4q54 8 88 4q15 223 -244 152 l-12 -4l-32 -4l-28 -12l-12 -4l-40 -12q-31 -21 -56 -28q-34 -26 -68 -36l-28 52l-8 4l-4 12l-8 8l-4 12q-26 30 -36 56q-16 15 -20 32q-26 25 -32 52l8 4l12 8l8 4q27 18 48 28q16 11 32 12l8 8q37 17 64 24l8 8h12q19 12 32 16h12q27 14 52 16q55 23 104 24l12 4 q274 18 456 -136zM696 694h-12q-24 -7 -40 -8h-12q-6 -4 -12 -4l-16 -4h-12l-16 -4l-24 -4q-6 -4 -12 -4l-16 -4l-12 -4q-56 -14 -88 -28q-42 -56 -24 -116q100 -140 288 -48l32 48l4 16v16v12v20v12v16v12v80h-12zM564 1691q401 0 677.5 -278.5t276.5 -675.5 q0 -393 -278.5 -671.5t-675.5 -278.5q-393 0 -671.5 278.5t-278.5 671.5q0 397 276.5 675.5t673.5 278.5zM567 1535q-333 0 -565 -232t-232 -564q0 -331 232 -564t565 -233q330 0 563 233t233 564q0 332 -232 564t-564 232z" />
<glyph unicode="A" d="M596 1746h52h124h56h12h20h12h16h12h80v-12q17 -36 24 -64l8 -28l4 -16q4 -6 4 -12q4 -6 4 -12q4 -6 4 -12q10 -16 12 -32l24 -64v-12q19 -37 24 -68q19 -44 24 -76q6 -12 8 -24l8 -16q6 -20 12 -32v-12q4 -6 4 -12q10 -16 12 -32l24 -64l4 -16l4 -8l8 -36l8 -16l8 -20 l4 -12l4 -16l8 -24q6 -20 12 -32v-12q4 -6 4 -12q10 -16 12 -32l24 -64l4 -24l12 -24l8 -24v-12l8 -12l4 -16l4 -20q31 -71 40 -120q4 -6 4 -12q31 -71 40 -120l8 -12l4 -16l4 -16l4 -12l4 -16q4 -6 4 -12q4 -6 4 -12q4 -6 4 -12l8 -12v-12q4 -6 4 -12q10 -16 12 -32 q13 -30 16 -48l8 -24h-24h-16h-72h-44h-16h-16h-16h-16h-68h-12h-48l-8 24v16l-8 12v12q-12 22 -12 40l-8 12v12l-4 16l-12 28l-28 100h-72h-80h-28h-24h-20h-24h-16h-72h-44h-16h-16h-16h-16h-68h-12h-48l-4 -20l-4 -20l-8 -16q-5 -22 -12 -40l-4 -20l-4 -8l-12 -40l-4 -16 l-4 -12q-7 -21 -12 -32l-12 -48h-16h-16h-12h-80h-12h-72h-12h-124l8 32l12 40l4 12l4 12l4 12l4 8l20 64l4 12l4 12l4 16l8 16l12 44l4 12l4 12l4 12l4 8q12 46 24 72l8 28l4 8q12 46 24 72q5 20 12 32l8 32l12 28l8 32l4 8q12 46 24 72l8 32l32 88l8 28l4 12l4 12 q12 38 24 64l8 24l4 12v12l4 12l28 72l4 24l8 20l8 16q8 38 20 64l4 20l4 12l4 8q12 46 24 72l4 16l4 16q11 23 16 44l12 40l4 12l32 92h28zM768 1394l-12 -44l-4 -8l-20 -72l-24 -68l-4 -8l-24 -88l-4 -16l-24 -68l-8 -20q-4 -32 -16 -56q-3 -23 -12 -44l-4 -16 q-8 -24 -16 -40l-24 -88h12h16h16h16h16h68h12h48h16h44h20h12h16h12h80l-8 32l-24 76l-20 68q-15 38 -20 64l-4 8q-8 29 -16 48l-4 16l-4 16l-8 20l-4 24l-4 16l-8 12l-4 24l-4 16q-6 12 -8 24l-4 16q-15 30 -20 56l-4 12l-4 8l-8 36l-4 12l-20 52z" />
<glyph unicode="B" horiz-adv-x="1584" d="M300 1746h12h20h12h16h12h80h28h80h28h24h20h24h16h72h44h16h16h16h16h68h32h28l12 -4h12l32 -4l64 -16q171 -75 244 -224q120 -284 -116 -452q170 -80 208 -244q68 -402 -276 -552h-12q-47 -22 -88 -24l-28 -8h-12l-100 -4h-28h-28h-12h-12h-124h-28h-24h-28h-24h-20 h-24h-16h-72h-44h-16h-16h-16h-16h-68h-12h-48v16v72v32v32v12v16v72v12v80v32v16v72v12v12v124v28v12v16v72v56v12v20v12v16v12v80v68v12v48v52v16v68v12v48v44v20v52v16v68v12v48h56zM556 1130h24h20h52h16h72h56h32h12h12h12h12h48l24 4q132 67 104 200q-23 58 -68 92 q-21 6 -36 16l-16 4h-12h-12q-19 4 -32 4h-20h-68h-16h-20h-52h-16h-68h-12h-48v-320zM556 514h68h20h12h12h52h40h12h12h40h68q53 0 88 8q139 73 120 216q-30 98 -112 140q-31 5 -52 12h-68h-16h-16h-12h-72h-52h-16h-68h-12h-48v-376z" />
<glyph unicode="C" horiz-adv-x="1640" d="M1532 1302l-16 -12l-68 -24l-16 -8l-16 -4q-29 -17 -52 -24l-20 -4l-8 -8h-12l-8 -8h-12l-8 -8h-12l-8 -8l-16 -4l-44 -16q-100 363 -464 292q-282 -109 -276 -420q-37 -323 156 -488q159 -108 332 -56q218 71 248 284q38 -7 64 -24q41 -11 68 -24l16 -8l24 -8l12 -4 l28 -12l16 -4l12 -8q20 -5 32 -12l48 -16q-160 -444 -596 -480q-441 -32 -668 300q-242 427 -72 844q172 397 568 448q583 30 768 -476z" />
<glyph unicode="D" horiz-adv-x="1628" d="M264 1746h20h16h20h16h20h52h16h68h12h48h16h16h52h16h16h40h44h12h44h32h20l12 -4h16h16l8 -4l64 -8q609 -201 528 -884q-122 -708 -952 -632h-16h-20h-16h-20h-16h-20h-52h-16h-68h-12h-48v16v72v32v32v12v16v72v12v80v32v16v72v12v12v124v28v12v16v72v56v12v20v12v16 v12v80v68v12v48v52v16v68v12v48v44v20v52v16v68v12v48h16zM560 526h56h12h32h12h12h52h16h12h80l28 4q37 4 64 16l24 4q264 147 236 460q-39 464 -488 424h-12h-12h-124v-908z" />
<glyph unicode="E" horiz-adv-x="1476" d="M252 1746h16h68h12h48h80h16h72h12h12h124h68h32h28h16h12h80h16h12h72h52h16h68h12h48v-304h-80h-24h-68h-12h-48h-52h-16h-68h-12h-48h-44h-20h-52h-16h-68h-12h-48v-308h12h80h52h16h72h16h16h16h68h32h28h20h52h16h68h12h48v-284h-56h-12h-20h-12h-16h-12h-80h-52 h-28h-56h-12h-72h-52h-16h-68h-12h-48v-320q8 -17 28 -12h32h80h24h68h12h48h52h16h68h12h48h44h20h52h16h68h12h48v-304h-12h-16h-68h-12h-48h-80h-32h-32h-32h-32h-80h-12h-12h-124h-28h-24h-28h-24h-20h-24h-16h-72h-44h-16h-16h-16h-16h-68h-12h-48v16v72v32v32v12v16 v72v12v80v32v16v72v12v12v124v28v12v16v72v56v12v20v12v16v12v80v68v12v48v52v16v68v12v48v44v20v52v16v68v12v48h12z" />
<glyph unicode="F" horiz-adv-x="1312" d="M316 1746h28h12h12h52h32h56h12h20h12h16h12h80h68h12h48h52h16h68h32h28h44h20h52h16h68h12h48v-304h-12h-80h-28h-28h-16h-20h-52h-16h-68h-12h-48h-16h-16h-12h-72h-52h-16h-68h-12h-48v-308h28h80h24h12h16h12h20h12h16h12h80h16h16h12h72h52h16h68h12h48v-288h-56 h-12h-20h-12h-16h-12h-80h-52h-28h-56h-12h-72h-52h-16h-68h-12h-48v-632h-4h4h-8h4h-8h4h-8h4h-8h4h-8h4h-8h4h-8h4h-8h4h-8h4h-8h4h-8h4h-8h4h-8h4h-8h4h-8h4h-8h4h-8h4h-8h4h-8h4h-8h4h-8h4h-8h4h-8h4h-8h4h-8h4h-8h4h-8h4h-8h4h-8h4h-8h4h-8h4h-8h4h-8h4h-8h4h-8h4h-8h4 h-8h4h-8h4h-8h4h-8h4h-8h4h-8h4h-8h4h-8h4h-8h4h-8h4h-8h4h-8h4h-8h4h-8h4h-8h4h-8h4h-8h4h-8h4h-8h4h-8h4h-8h4h-8h4h-8h4h-8h4h-8h4h-8h4h-8h4h-8h4h-8h4h-8h4h-8h4h-8h4h-8h4h-8h4h-8h4h-8h4h-8h4h-8h4h-8h4h-8h4h-8h4h-8h4h-4v16v72v32v32v12v16v72v12v80v32v16v72v12 v12v124v28v12v16v72v56v12v20v12v16v12v80v68v12v48v52v16v68v12v48v44v20v52v16v68v12v48h80z" />
<glyph unicode="G" horiz-adv-x="1696" d="M1488 1398l-20 -8l-16 -8q-28 -17 -52 -24l-16 -8q-24 -15 -44 -20l-8 -8l-48 -20l-12 -4l-24 -16q-32 -12 -52 -24q-98 192 -288 216q-214 19 -336 -132l-8 -8l-28 -36q-108 -273 -36 -524q86 -323 428 -288q219 55 272 252q11 52 8 88h-52h-124h-56h-12h-20h-12h-16 h-12h-80v16v68v44v16v68v12v48h16h72h68h12h48h52h16h68h12h48h44h20h52h16h68h12h48v-884h-20h-16h-68h-44h-16h-68h-12h-48v12v16v72q-170 -152 -376 -132l-8 -4q-130 2 -228 48q-378 160 -444 564q-72 413 144 712q199 262 504 280q496 20 692 -384z" />
<glyph unicode="H" horiz-adv-x="1724" d="M300 1742h16h72h16h16h16h68h12h48v-580h44h16h12h20h12h16h12h80h80h20h68h16h20h52h16h68h12h48v28v24v28v80v28v24v20v24v16v72v44v16v16v16v16v68v12v48h52h16h72h16h16h16h68h32h28v-1528h-52h-16h-72h-16h-16h-16h-68h-12h-48v28v12v12v124v28v24v28v24v20v24v16 v72v44v16v16v16v16v68v12v48h-24h-28h-24h-68h-24h-20h-24h-16h-72h-44h-16h-16h-16h-16h-68h-12h-48h-12h-12h-52v-648h-52h-16h-72h-16h-16h-16h-68h-12h-48v12v16v12v16v72v32v32v12v80v16v20v16v20v52v16v68v12v48v16v20v52v16v68v12v48v28v32v32v32v12v12v124v28v24v28 v24v20v24v16v72v44v16v16v16v16v68v12v48h52z" />
<glyph unicode="I" horiz-adv-x="788" d="M292 1742h16h72h16h16h16h68h12h48v-1528h-52h-16h-72h-16h-16h-16h-68h-12h-48v12v16v12v16v72v32v32v12v80v16v20v16v20v52v16v68v12v48v16v20v52v16v68v12v48v28v32v32v32v12v12v124v28v24v28v24v20v24v16v72v44v16v16v16v16v68v12v48h52z" />
<glyph unicode="J" horiz-adv-x="1028" d="M536 1742h16h72h16h16h16h68h32h28v-1176q-5 -21 -4 -36q-5 -15 -4 -32l-4 -12q-6 -20 -8 -36l-4 -8l-28 -64q-121 -166 -308 -180q-4 -5 -8 -4q-42 -5 -68 -4q-4 -5 -8 -4h-16h-72l-76 12q-29 0 -48 4h-20l-12 4q-45 2 -72 8l4 24l4 20v20l4 20v16q8 44 8 72l4 12 q0 21 4 32q3 61 12 100l12 -4h20l20 -4q37 -2 64 -8l100 -8h16l28 4h12h12l24 4h24q35 24 56 48l8 32l4 8l4 40v16v72v56v12v20v12v16v12v80v32v32v56v12v20v12v16v12v80v68v12v48v16v12v80v16v12v72v52v16v68v12v48h52z" />
<glyph unicode="K" horiz-adv-x="1504" d="M284 1742h16h72h16h16h16h68h12h48v-520l24 20l4 12l28 24q4 7 8 8l4 8l52 60l20 16l12 20l8 8l8 8l8 8l8 8l8 12l8 4l52 60l16 12l12 16l12 16l16 12l12 16q4 7 8 8l12 12l4 8q14 18 28 28q27 39 56 60q24 35 44 56h20h12h80h52h16h72h16h16h16h68h12h48l-8 -12l-8 -12 l-12 -12l-8 -8q-20 -24 -36 -36q-12 -18 -24 -28l-4 -8l-8 -4q-29 -39 -52 -60l-20 -20l-52 -60l-16 -16l-12 -16l-20 -16l-8 -16l-12 -12l-44 -48l-16 -16l-12 -16l-16 -12l-8 -12q-15 -21 -32 -32q-4 -7 -8 -8l-4 -12l-12 -12l-8 -8l-8 -8l-8 -8l-8 -12l-64 -64 q6 -17 16 -28l12 -28l16 -24q9 -10 12 -20q12 -10 20 -24l4 -12q26 -33 40 -60l16 -24l4 -12l8 -4l36 -64l8 -8l16 -28q17 -23 24 -40l16 -20l72 -116q23 -31 32 -56q7 -4 8 -8l36 -52l28 -48l12 -16l8 -20q6 -5 8 -12l8 -12q25 -31 36 -56l16 -28l8 -4l4 -12q5 -4 4 -8 q35 -39 48 -80h-56h-52h-16h-72h-16h-16h-16h-68h-12h-48l-12 24q-6 5 -8 12q-7 4 -8 8l-4 12q-6 5 -8 12q-16 15 -20 32q-7 4 -8 8l-4 8l-32 44l-4 12l-44 68q-8 13 -12 24q-7 4 -8 8l-36 52l-12 24l-12 16l-4 12q-26 30 -36 56l-12 12l-28 52q-6 5 -8 12l-20 24l-8 12 l-4 16l-8 4l-4 12l-16 28q-26 28 -36 56l-16 12l-8 -16l-12 -8l-8 -12l-8 -8l-8 -12l-12 -8l-4 -8q-22 -21 -32 -36l-32 -32v-532h-52h-16h-72h-16h-16h-16h-68h-12h-48v12v16v12v16v72v32v32v12v80v16v20v16v20v52v16v68v12v48v16v20v52v16v68v12v48v28v32v32v32v12v12v124 v28v24v28v24v20v24v16v72v44v16v16v16v16v68v12v48h52z" />
<glyph unicode="L" horiz-adv-x="1280" d="M296 1746h16h72h16h16h16h68h12h48v-1224h12h12h12h52h68h12h48h52h16h68h12h48h44h20h52h16h68h12h48v-304h-28h-24h-28h-80h-32h-32h-32h-32h-80h-12h-12h-124h-28h-24h-28h-24h-20h-24h-16h-72h-44h-16h-16h-16h-16h-68h-12h-48v12v16v12v16v72v32v32v12v80v16v20v16 v20v52v16v68v12v48v16v20v52v16v68v12v48v28v32v32v32v12v12v124v28v24v28v24v20v24v16v72v44v16v16v16v16v68v12v48h52z" />
<glyph unicode="M" horiz-adv-x="2024" d="M260 1746h12h80h16h12h72h52h16h68h12h48l16 -24l8 -12l8 -12l16 -24q31 -36 44 -64q9 -10 12 -20l12 -16l16 -16l8 -16l12 -20l8 -8l4 -12q21 -20 32 -40l8 -16l16 -16l12 -20l4 -12q21 -22 32 -40l4 -8q14 -18 20 -32l8 -8l16 -28l8 -4l4 -12q25 -29 36 -52l12 4l4 12 l64 88l12 20l40 60q23 27 32 48l12 16l12 12l12 24l12 8l8 16q13 24 28 36l8 20q16 22 28 32l4 12l8 12l8 8l4 12q14 13 20 24l8 12l36 56h12h80h52h16h72h16h16h16h68h12h48v-1528h-68h-16h-20h-52h-16h-68h-12h-48q-24 4 -16 28v12v16v68v12v48v80v28v24v16v12v20v12v16 v12v80v124v24v68v24v16v12v80v16v68v56v12v12v32q2 37 -4 64l-20 -24q-7 -14 -16 -24q-21 -37 -40 -60l-16 -24l-16 -24l-16 -24l-48 -68l-36 -56l-12 -16q-20 -29 -36 -44l-8 -16q-26 -43 -48 -68l-8 -16l-12 -12l-4 -12q-20 -29 -36 -44q-13 -28 -24 -44q-38 -54 -64 -80 q-16 26 -28 40l-4 12l-12 12l-8 12l-4 12l-12 16l-16 24q-7 4 -8 8q-14 22 -28 36l-12 24l-16 24q-5 4 -4 8q-21 20 -32 40q-28 38 -40 64l-16 20l-12 16l-8 16q-21 21 -32 44l-12 12l-20 36l-12 12q-16 26 -28 40l-4 12l-12 12l-4 12q-6 5 -8 12q-7 4 -8 8q-5 4 -4 8 l-52 68v-1096h-4h4h-8h4h-8h4h-8h4h-8h4h-8h4h-8h4h-8h4h-8h4h-8h4h-8h4h-8h4h-8h4h-8h4h-8h4h-8h4h-8h4h-8h4h-8h4h-8h4h-8h4h-8h4h-8h4h-8h4h-8h4h-8h4h-8h4h-8h4h-8h4h-8h4h-8h4h-8h4h-8h4h-8h4h-8h4h-8h4h-8h4h-8h4h-8h4h-8h4h-8h4h-8h4h-8h4h-8h4h-8h4h-8h4h-8h4h-8h4 h-8h4h-8h4h-8h4h-8h4h-8h4h-8h4h-8h4h-8h4h-8h4h-8h4h-8h4h-8h4h-8h4h-8h4h-8h4h-8h4h-8h4h-8h4h-8h4h-8h4h-8h4h-8h4h-8h4h-8h4h-8h4h-8h4h-8h4h-8h4h-8h4h-8h4h-4v12v16v12v16v72v32v32v12v80v16v20v16v20v52v16v68v12v48v16v20v52v16v68v12v48v28v32v32v32v12v12v124v28 v24v28v24v20v24v16v72v44v16v16v16v16v68v12v48h16z" />
<glyph unicode="N" horiz-adv-x="1824" d="M260 1750h56h20h16h72h16h16h16h68h12h48l16 -28l16 -24l16 -24l16 -24l16 -24l12 -12l4 -12q5 -4 4 -8q29 -31 40 -60q29 -31 40 -60l16 -20l16 -24q11 -18 20 -28l4 -12q15 -16 20 -32q40 -45 56 -84l16 -24q5 -4 4 -8q30 -34 44 -60l16 -24l12 -24l16 -24l16 -16 l12 -20l8 -20q26 -26 36 -52l12 -16l8 -16l12 -12q19 -28 28 -48l12 -12l8 -12l4 -12l8 -4q13 -29 28 -44l4 -12q5 -4 4 -8q37 -41 52 -76l4 28v28v32v16v72v44v16v16v16v16v68v12v48v24v68v12v48v52v16v68v12v48v44v20v52v16v68v12v48h52h16h72h16h16h16h68h12h48v-1528 h-12h-48h-40h-28h-24h-20h-16h-16h-16h-12h-12h-12h-8h8h-8h-32h-12h-52l-4 8q-14 18 -20 32q-5 4 -4 8q-37 41 -52 76q-5 4 -4 8l-16 24q-21 24 -32 48l-20 24l-16 28l-16 28q-27 30 -40 56l-8 8q-16 35 -36 56l-4 8l-8 12l-36 56q-14 18 -20 32q-5 4 -4 8l-8 4l-16 28 l-4 8q-14 18 -20 32q-9 10 -12 20l-16 16l-16 24l-8 20l-8 4l-16 28l-36 52l-8 16l-8 16l-12 12l-8 12l-4 12q-20 22 -32 40l-8 16q-17 23 -24 40q-7 4 -8 8l-8 8l-4 8l-16 28l-36 52v-1024h-52h-16h-72h-16h-16h-16h-68h-12h-48v12v16v12v16v72v32v32v12v80v16v20v16v20v52 v16v68v12v48v16v20v52v16v68v12v48v28v32v32v32v12v12v124v28v24v28v24v20v24v16v72v44v16v16v16v16v68v12v48h20z" />
<glyph unicode="O" horiz-adv-x="1712" d="M1588 1090q43 -620 -436 -848q-463 -168 -788 132q-346 390 -192 896q168 481 640 516q679 -5 776 -696zM468 922q15 -288 236 -408h12q19 -11 36 -12l8 -4l48 -12q422 4 440 432q37 550 -428 564q-384 -73 -352 -560z" />
<glyph unicode="P" horiz-adv-x="1456" d="M280 1750h32h12h12h124h28h24h28h24h20h24h16h72h44h16h16h16h16h68h12h48h12l8 -4h12l28 -4l12 -4l56 -12q375 -180 316 -568q-134 -459 -612 -400h-16h-44h-20h-12h-16h-12h-80v-536h-52h-16h-72h-16h-16h-16h-68h-12h-48v12v16v12v16v72v32v32v12v80v16v20v16v20v52 v16v68v12v48v16v20v52v16v68v12v48v28v32v32v32v12v12v124v28v24v28v24v20v24v16v72v44v16v16v16v16v68v12v48h32zM564 1046h16h16h16h44h44h72h12h12h16h72h16q25 10 44 12q167 99 112 272q-37 86 -116 120h-12q-62 18 -112 12h-20h-16h-20h-52h-16h-68h-12h-48v-416z" />
<glyph unicode="Q" horiz-adv-x="1748" d="M1588 1242q134 -568 -252 -916q-8 -10 -16 -16q12 -10 20 -24l24 -48q29 -38 40 -72q-25 -15 -44 -20l-12 -8l-16 -8l-20 -8q-16 -13 -32 -20l-40 -16l-8 -8l-40 -16q-44 -30 -80 -40q-12 20 -16 36l-8 8l-4 12q-40 66 -56 112h-12q-28 -7 -48 -4q-391 -45 -624 212 q-183 211 -208 464q-35 378 160 648q206 271 536 276q607 0 756 -544zM472 934q9 -264 196 -400l8 -4l8 -4l8 -4l12 -4l76 -20q60 -15 100 -12l-4 12l-8 8l-4 16l-8 8l-4 8l-8 24q-5 4 -4 8q-30 40 -40 80q20 12 36 16l12 8l12 4l8 8l12 4l12 8l12 4l28 12q22 15 40 20 q44 30 80 40q19 -34 28 -56l12 -12l4 -12q24 -30 32 -56q22 -27 32 -48q12 18 24 28q15 27 32 44q107 263 44 508q-81 314 -392 312q-423 -46 -396 -548z" />
<glyph unicode="R" horiz-adv-x="1604" d="M272 1750h32h80h12h12h124h28h12h52h68h16h16h72h56h12h12h12h28h16h12h12q29 -5 48 -4l48 -8l8 -4h12l8 -4l60 -20q184 -97 244 -268q118 -422 -276 -604l8 -4q19 -39 36 -64l12 -24q8 -13 12 -24l16 -24q24 -36 36 -64q24 -30 32 -56q25 -32 36 -56q14 -23 20 -40 l8 -12l8 -16l12 -12l28 -52q13 -21 20 -36l8 -12l4 -8l8 -8l4 -12q37 -55 52 -96h-28h-56h-12h-72h-52h-16h-68h-12h-48l-4 8l-8 8l-4 8l-28 48l-4 12q-19 23 -24 44q-24 25 -32 52q-24 30 -32 56l-12 16l-12 24l-8 16q-25 30 -36 52q-14 31 -28 52l-4 12q-23 25 -32 52 l-8 12l-4 12l-8 4l-12 28q-5 4 -4 8q-30 39 -44 72h-16h-44h-20h-12h-16h-12h-80v-596h-52h-16h-72h-16h-16h-16h-68h-12h-48v16v72v32v32v12v16v72v12v80v32v16v72v12v12v124v28v12v16v72v56v12v20v12v16v12v80v68v12v48v52v16v68v12v48v44v20v52v16v68v12v48h32zM556 1102 h20h28h56h12h72h52h16h68h12h48l48 12q119 74 104 200q-29 90 -104 132h-12l-8 4l-52 12h-20h-56h-20h-16h-72h-16h-16h-16h-68h-12h-48v-360z" />
<glyph unicode="S" horiz-adv-x="1588" d="M1448 1534l-8 -8l-40 -32l-8 -12l-12 -12l-16 -8l-12 -12l-12 -12l-8 -12l-16 -8q-14 -19 -24 -28l-24 -16l-4 -8l-8 -4q-21 -26 -40 -40q-252 206 -520 132q-15 -14 -32 -20q-22 -23 -40 -36l-4 -8l-20 -48q2 -80 52 -128l68 -24l64 -12q30 -10 52 -12l16 -4l16 -4 l16 -4l16 -4l20 -8h12l16 -4l20 -8l16 -4h12q23 -9 40 -12l32 -8q19 -9 32 -12l12 -4l52 -20l8 -8q39 -18 64 -40q7 -4 8 -8l8 -4q18 -13 28 -24q25 -19 40 -36q146 -203 72 -420q-79 -222 -280 -292q-625 -192 -1020 244l12 16l16 8q7 9 16 12q16 21 36 28q7 9 16 12 q7 9 16 12l8 12l12 8l8 8l12 8l12 4l8 12l8 4l8 8l8 4l8 4l56 48q265 -260 592 -188l12 8l12 4l4 8l60 40q14 34 28 56q12 109 -68 172l-16 4l-12 8l-16 4l-32 8h-12l-16 4l-8 4q-37 6 -64 16h-12l-12 4l-32 8q-50 6 -84 20q-391 51 -432 408q9 451 532 508q413 10 672 -252 z" />
<glyph unicode="T" horiz-adv-x="1276" d="M64 1750h16h12h16h72h16h72h24h28h80h32h32h32h32h80h12h12h124h28h24h28h24h20h24h16h72h44h16h16h16h16h68h12h48v-304h-24h-12h-80h-52h-16h-72h-16h-16h-16h-68h-12h-48v-1228h-52h-16h-72h-16h-16h-16h-68h-12h-48v28v12v20v12v16v12v80v16v72v24v28v80v32v32v32v32 v80v12v12v124v28v24v28v24v20v24v16v72v44v16v16v16v16v68v12v48h-24h-12h-80h-52h-16h-72h-16h-16h-16h-68h-12h-48v80v20v12v16v16v16v16v68v12v48h16z" />
<glyph unicode="U" horiz-adv-x="1704" d="M240 1738h20h16h68h44h16h68h32h28l4 -964l24 -88q101 -177 284 -188q197 15 288 172v12q30 61 32 120q6 46 4 80v32v32v56v12v20v12v16v12v80v68v12v48v52v16v68v12v48v44v20v52v16v68v12v48h16h16h12h72h52h16h68h12h48v-984q-4 -19 -4 -32l-4 -8q-5 -53 -16 -88 q-92 -251 -300 -364q-256 -134 -504 -48q-499 190 -436 800v56v44v20v12v16v12v80v24v28v24v28v52v124v56v12v20v12v16v12v80z" />
<glyph unicode="V" horiz-adv-x="1440" d="M76 1742h12h80h12h72h12h124q19 -55 24 -92l12 -28l4 -28l12 -28v-12q10 -19 12 -44q4 -6 4 -12q4 -6 4 -12l32 -100v-16q4 -6 4 -12q5 -4 4 -8l8 -32l8 -32q14 -27 16 -48l4 -8l8 -36l4 -20q10 -16 12 -32l4 -8l8 -36l28 -92l12 -56q14 -31 20 -56l16 -68l8 -20l4 -20 l8 -20l4 -12l4 -12v-16q4 -6 4 -12q10 -19 12 -44q5 -4 4 -8l20 -64v16l8 16l8 28l4 24q9 23 12 44l4 12l4 16q15 37 20 64l4 12l4 16l8 32l4 12l4 8l20 72l4 16l4 12l4 16l8 32l4 12l4 8l20 72l8 24v12l4 8l8 24l4 12v12l4 12l16 48l4 20l8 20l4 24l8 20l4 20l8 16l4 16 l4 20q7 31 16 48v16l8 16l4 20l16 52l4 12l4 12l4 12v16l4 12l4 16q15 37 20 64h124h56h12h20h12h16h12h80l-8 -32l-8 -28l-12 -28l-4 -28q-15 -37 -20 -64l-8 -32l-20 -60l-12 -48l-4 -12l-24 -92l-8 -28l-8 -20l-4 -16l-12 -40l-4 -20l-4 -12l-4 -12l-4 -8q-7 -35 -16 -56 l-8 -28l-4 -8q-6 -43 -20 -72l-8 -32l-8 -32l-8 -28l-8 -32q-9 -23 -12 -40l-4 -16l-4 -12l-4 -12l-16 -56l-8 -32l-8 -28l-8 -28q-9 -23 -12 -40l-8 -24l-4 -20l-8 -16l-4 -24l-8 -24l-4 -20l-8 -20q-7 -35 -16 -56l-4 -20l-4 -12l-4 -16l-4 -12l-20 -68l-8 -32l-8 -28 l-20 -4h-28h-24h-20h-24h-16h-72h-44h-16h-16h-16h-16h-68h-12h-48l-8 28l-4 16l-4 8l-20 64v12q-10 23 -12 40q-11 28 -12 48q-12 22 -12 40q-6 15 -8 28q-6 15 -8 28l-12 28v16q-6 11 -8 20l-4 8l-8 36l-4 20q-10 16 -12 32l-4 8l-8 36l-28 92l-4 28l-12 28l-4 12v12 l-4 12l-8 32q-15 30 -20 60l-8 28l-8 28l-8 28l-8 28l-4 20l-8 32q-4 6 -4 12q-4 6 -4 12l-32 100l-4 28l-8 24l-4 20l-8 12v12l-4 16q-4 6 -4 12l-32 100v16l-8 16l-4 12v12q-4 6 -4 12l-4 16l-8 16l-4 28q-23 54 -28 96h16z" />
<glyph unicode="W" horiz-adv-x="2096" d="M132 1742h24h20h12h20h16h12h20h20h12h48h12q54 3 92 -4v-12l16 -68l4 -24q4 -6 4 -12l4 -12l4 -8l4 -20l12 -64l4 -8v-12q15 -36 16 -68l8 -24v-12q15 -36 16 -68l8 -20l4 -20l4 -24q18 -54 20 -92q13 -31 16 -56q6 -25 8 -44q15 -37 16 -68q9 -23 12 -40q6 -25 8 -44 q13 -38 16 -64l4 -20l12 -40l4 -28l16 -56l4 20l4 12v12l4 12q7 43 16 72v16l4 12l12 52v12l4 16l4 12l4 12v12l8 28v12q6 23 8 40q7 20 8 36q13 47 16 80l4 20l4 12l24 116l4 20l4 12q5 31 12 52v12l8 32l16 80l4 8l8 48l4 12v12l12 40q4 38 12 64l4 24h20h24h16h72h44h16 h16h16h16h68h12h48l4 -28l8 -28v-16q15 -55 20 -92l12 -56l12 -48l4 -20l4 -28l4 -24l4 -24l8 -20l4 -24l4 -20v-12q4 -6 4 -12q8 -24 8 -44q4 -6 4 -12l4 -8v-12l8 -32l8 -48l8 -24l4 -24v-12l8 -32l4 -24q12 -32 12 -60l4 -16q11 -30 12 -52l4 -12l4 -32l8 -32l4 -24 q16 -46 16 -80l12 24v16l8 32l4 12l4 12q4 33 12 56l8 32l4 24l4 8l4 28l16 56l4 28l8 28l4 28l8 28l4 16l8 32l24 100l4 24l8 32l8 28l4 24l8 24l4 16v16l4 16l4 12l4 8l8 48l8 32l8 28v12l4 12l4 12v12l8 28l4 12v12q14 37 16 64h16h72h44h16h16h16h16h68h12h48v-12 l-4 -24l-12 -32l-4 -28l-12 -56l-4 -12q-9 -46 -20 -76q-1 -23 -8 -40l-24 -104l-4 -12v-12l-4 -24l-8 -32q-10 -28 -12 -48l-4 -8l-4 -28q-10 -33 -12 -56q-9 -23 -12 -40l-4 -16l-4 -12q-1 -23 -8 -40l-4 -24l-4 -16l-4 -8l-4 -28l-16 -56l-12 -68l-8 -32l-8 -28l-4 -24 l-4 -16l-4 -12l-4 -8l-8 -48l-12 -52l-4 -12q-8 -47 -20 -76v-16q-10 -30 -12 -52l-4 -12l-4 -12l-8 -32l-4 -28l-16 -56l-4 -28l-16 -72h-24h-12h-80h-20h-12h-20h-16h-12h-20h-20h-12h-48h-12q-54 -3 -92 4v12l-4 8v12l-4 12l-8 48l-20 92l-4 28q-16 55 -20 92l-8 32 l-8 32l-4 28l-4 28l-8 24v16l-12 48v12q-17 55 -20 92l-8 24v20q-4 6 -4 12l-4 8l-16 88l-4 16l-12 64l-8 32l-4 16v16l-4 16l-8 28v12l-8 32l-8 28l-4 -12l-4 -24l-4 -16l-4 -24l-16 -76l-8 -28v-12l-16 -64l-4 -32l-8 -32l-8 -32l-4 -32l-8 -32l-8 -48q-14 -45 -16 -76 l-8 -24l-4 -20v-12q-7 -23 -8 -40q-7 -20 -8 -36l-8 -20l-8 -56l-4 -20l-4 -16l-16 -72l-12 -56l-4 -24l-8 -32l-12 -64h-24h-12h-80h-20h-12h-20h-16h-12h-20h-20h-12h-48h-12q-54 -3 -92 4l-4 32q-18 54 -20 92q-6 15 -8 28l-8 32l-8 32l-8 28l-4 32l-4 16q-12 33 -12 56 l-4 16l-20 68v16q-15 40 -16 72q-15 36 -16 64l-8 24l-4 32q-4 6 -4 12l-20 80l-8 32v12q-12 29 -12 52q-6 15 -8 28l-8 28l-4 28q-11 30 -12 52q-18 52 -20 88l-8 20l-4 20l-4 24l-4 20q-4 11 -4 20l-8 16l-12 64q-10 30 -12 52q-9 23 -8 40q-18 47 -20 84q-10 24 -12 44 l-4 12v12q-10 24 -12 44h20z" />
<glyph unicode="X" horiz-adv-x="1412" d="M140 1742h52h16h72h16h16h16h68h32h28l8 -8l16 -28q18 -35 36 -56l8 -16l12 -16q22 -45 44 -72l4 -12l12 -16l8 -12l4 -12l12 -12l4 -12l4 -8l8 -8l4 -12l12 -12l12 -28l8 -4q22 -46 48 -72l8 20l12 16l12 24l12 16l4 8l44 68l12 20l28 52l8 12l24 32l8 12l4 16l20 24 l4 12l8 16l8 12l8 4q12 31 28 52h56h52h16h72h16h16h16h68h12h48q-18 -39 -40 -64l-12 -28l-16 -24l-16 -24l-48 -76l-12 -24l-16 -20l-12 -24l-16 -20l-8 -20l-16 -20q-13 -29 -28 -44q-10 -24 -24 -40q-10 -24 -24 -40l-4 -12l-52 -84l-8 -8l-4 -12l-8 -8l-8 -12l-4 -12 l-68 -104q15 -21 24 -40l12 -20l12 -12l4 -16q6 -5 8 -12q24 -26 32 -52q24 -26 32 -52l8 -4l4 -12l4 -8q24 -32 36 -56q8 -13 12 -24l16 -20q13 -20 20 -36l8 -8l4 -12l16 -24l8 -8l4 -12q20 -25 28 -48l12 -16l8 -16l12 -16l12 -16l8 -20q20 -23 28 -44q21 -25 32 -52 q21 -25 32 -52q26 -30 36 -60q18 -19 24 -40h-56h-52h-16h-72h-16h-16h-16h-68h-12h-48l-8 12l-4 16l-8 4l-12 28q-24 26 -32 52q-9 9 -12 20q-9 9 -12 20l-12 16l-8 16l-12 12l-28 52q-9 10 -12 20q-25 29 -36 52l-24 44l-8 8l-4 12q-15 16 -20 32q-5 4 -4 8l-8 4 q-21 46 -48 72l-4 -12l-40 -60l-4 -8l-32 -56l-12 -16l-4 -8l-4 -8l-8 -8l-16 -28l-4 -8q-14 -19 -20 -32l-8 -12l-8 -16l-12 -12q-10 -24 -24 -40l-8 -12l-20 -40l-24 -32l-4 -12l-8 -8l-4 -12l-4 -8q-24 -28 -32 -52h-56h-52h-16h-72h-16h-16h-16h-68h-12h-48l12 28l8 16 l8 8l16 28q20 35 36 56l16 24l12 28l16 24l24 32l4 16l8 12l12 12l8 16l4 12l8 8l44 72l12 16l8 16l24 44l16 16l4 16l12 16l12 16l8 20l12 20l16 16l4 16l8 4q12 31 28 48l4 12l8 8l8 12l16 28q7 16 20 28q16 38 36 60l-4 12l-16 24l-8 8l-4 12q-20 25 -28 48l-8 4l-4 12 l-8 8l-32 56q-14 19 -20 36l-8 8l-4 12q-33 42 -48 72l-16 24l-8 20q-9 10 -12 20q-26 30 -36 56l-12 16l-8 16l-8 16l-12 12l-8 16l-12 16l-4 12l-8 16l-12 12l-4 12l-12 12l-4 12l-8 12l-8 12l-16 24l-4 12q-5 4 -4 8q-26 30 -36 56h56z" />
<glyph unicode="Y" horiz-adv-x="1392" d="M48 1742h56h20h16h72h16h16h16h68h32h28l8 -12l16 -28l40 -72l12 -24l12 -20l8 -20l8 -8l4 -12q5 -4 4 -8q25 -35 36 -64q18 -24 24 -44l12 -16l4 -12l12 -16l4 -12l12 -16l8 -16l8 -12l4 -12l12 -16l4 -8l8 -24q7 -4 8 -8q22 -46 44 -72l12 28l40 68l12 24l12 20l12 24 l32 56l16 24l8 24l8 8l4 8l4 12q18 26 28 48l8 16l12 16l8 16l4 12l12 16l8 12l4 12l8 12l4 12l8 12l40 72h28h56h12h72h52h16h68h12h48l-36 -64l-8 -12l-8 -20l-8 -12l-8 -12l-4 -12l-8 -12l-4 -12l-8 -4q-11 -33 -28 -56l-4 -8l-40 -72l-4 -8l-4 -8l-44 -72l-12 -28l-4 -8 q-12 -20 -16 -32q-13 -16 -16 -28l-12 -20l-32 -56l-4 -8l-4 -8l-4 -8l-8 -8q-15 -39 -36 -64l-8 -16l-8 -16l-8 -20l-12 -12l-4 -8q-26 -63 -56 -100l-4 -8q-23 -55 -48 -88v-608h-52h-16h-72h-16h-16h-16h-68h-12h-48v12v12v52v68v12v48v16v12v80v16v12v72v52v16v68v12v48 q-34 48 -48 80l-16 28q-20 34 -28 56l-16 28q-28 39 -40 72l-16 28l-16 24l-16 28l-4 16q-19 20 -24 40l-8 12l-24 40l-44 88l-8 4l-8 24q-26 34 -36 64l-12 12l-8 16l-12 20l-4 16l-12 16q-12 20 -16 36q-6 5 -8 12l-8 12l-4 12q-30 35 -40 72q-28 33 -36 64h20z" />
<glyph unicode="Z" horiz-adv-x="1292" d="M116 1742h80h24h28h80h32h32h32h32h80h12h12h124h28h24h28h24h20h24h16h72h44h16h16h16h16h68h12h48v-320l-20 -20l-16 -20l-16 -28l-16 -20l-20 -24q-4 -7 -8 -8l-4 -12l-8 -4l-4 -12l-12 -8q-20 -38 -48 -64l-16 -28q-14 -13 -20 -24l-20 -24l-16 -24l-20 -24 q-22 -33 -40 -52l-8 -16l-8 -8l-8 -12l-32 -36l-4 -8l-4 -8q-16 -17 -24 -32l-20 -20l-12 -16l-12 -20l-12 -16l-16 -20l-12 -16l-24 -32q-14 -18 -24 -28l-12 -20l-12 -12l-8 -16l-16 -16l-8 -12q-14 -22 -28 -36l-8 -16l-8 -4l-4 -12l-8 -4l-4 -8l-40 -52h32h16h72h68h12 h48h52h16h68h12h48h44h20h52h16h68h12h48v-284q6 -28 -16 -32h-28h-28h-28h-12h-12h-52h-12h-20h-12h-16h-12h-80h-32h-56h-12h-20h-12h-16h-12h-80h-68h-12h-48h-16h-12h-80h-16h-12h-72h-52h-16h-68h-12h-48v12v52v68v44v16v68v12v48l20 20l16 28l12 16l8 12l8 4l4 12l8 8 l8 8q23 35 44 56l16 28l8 4q25 40 48 64l8 16l8 8l8 12l8 8q4 7 8 8l48 68l20 20l4 12l12 8l4 8l16 24l44 56l16 24l12 16l40 48l4 12l8 4l4 8l32 44q16 17 24 32q18 21 28 36l8 12l12 16l12 8l4 12l8 8l8 12l4 8l8 4l8 16l8 8l4 8l8 4q15 28 28 44h-28h-56h-12h-20h-12h-16 h-12h-80h-52h-28h-56h-12h-72h-52h-16h-68h-12h-48v52v16v72v16v16v16v68v12v48h12z" />
<glyph unicode="[" horiz-adv-x="731" d="M8 -39h244l245 497h-349z" />
<glyph unicode="\" horiz-adv-x="876" d="M608 1826l16 -4l56 -16l16 -8q23 -2 40 -8l8 -4q35 -7 56 -16l-8 -32l-24 -92l-12 -36l-8 -28l-4 -16l-4 -8q-8 -38 -20 -64l-4 -20l-4 -24l-20 -56q-1 -10 -4 -16q-3 -22 -12 -44l-4 -16l-4 -12l-4 -12l-4 -20l-8 -24l-4 -12l-4 -24l-16 -48l-8 -32l-8 -32l-4 -12 l-16 -48l-8 -28l-4 -8q-6 -43 -20 -72l-4 -12l-4 -24l-12 -44l-8 -20l-4 -16l-12 -48l-4 -16l-28 -88l-4 -24l-4 -12l-4 -12l-4 -8l-16 -64l-8 -32l-4 -8l-8 -24l-12 -48l-12 -40l-12 -36l-8 -24l-32 -124l-4 -16l-4 -16l-8 -20l-4 -20l-8 -20l-4 -20l-4 -12l-4 -20l-4 -12 l-4 -16l-4 -12l-4 -8l-8 -24l-4 -12l-4 -24l-16 -48l-12 4l-28 8l-24 4l-12 4l-32 12l-124 36l8 32l4 16l4 12l4 12l8 28l4 16l4 8l16 64l8 32l8 28l8 20l4 16l4 12l4 20l4 12l4 20l4 12l4 12l4 8q7 35 16 56l4 12l20 80l12 28l8 32l20 80l8 28l4 12l4 8l20 72l8 28l8 28 l8 32l8 20v12l4 12l4 8q7 35 16 56l4 20l4 16l4 12l4 12l8 28l4 16l4 8q8 38 20 64v12l4 8l20 72l8 24v12l4 8l8 24l4 12v12l4 12l16 48l4 16l8 32l4 8l4 12l20 80l8 24l4 20l8 28l8 16v12q12 32 16 56l4 12l4 12l4 12l8 28l4 16l4 8l16 64z" />
<glyph unicode="]" horiz-adv-x="604" />
<glyph unicode="^" horiz-adv-x="4644" d="M1804 1838h12h16h68h32h28h80h32h32h32h32h80h12h12h124h28h24h28h24h20h24h16h72h44h16h16h16h16h68h12h48v-684h12q36 15 68 16l20 8h12q24 10 44 12l20 4l24 4l16 8l16 4l20 4l28 4l24 8l16 4h16q6 4 12 4l8 4h12q29 12 52 12q15 6 28 8l8 4l64 12q38 14 68 16 q40 14 72 16q15 6 28 8l24 8l32 4l20 8l16 4h12l12 4l12 4l56 12l60 16l48 8q23 9 40 12l28 8l36 4q15 6 28 8l28 8l28 4q29 12 52 12q15 6 28 8l24 8l28 4l28 8l64 16h12q25 9 44 12l16 4l68 16l12 4l20 4l64 12q6 4 12 4l12 4l32 8h12q36 15 68 16q-14 -16 -24 -24l-12 -4 l-12 -12l-12 -4l-12 -12l-40 -28l-48 -32q-25 -21 -44 -32l-16 -8l-8 -12l-12 -4l-8 -8l-12 -4l-8 -12l-28 -16l-52 -40l-28 -16l-24 -20l-12 -8l-12 -4l-4 -8l-8 -4l-8 -4q-35 -31 -64 -44l-4 -8l-12 -4q-34 -31 -64 -44q-10 -13 -24 -20l-28 -16q-8 -10 -16 -16l-16 -12 l-12 -8l-12 -4l-4 -8l-8 -4l-8 -4q-35 -31 -64 -44l-12 -12q-20 -13 -32 -24l-12 -4q-26 -26 -52 -36q-4 -7 -8 -8l-8 -8l-28 -16q-4 -5 -8 -4l-4 -8q-26 -16 -40 -28l-28 -16q-10 -13 -24 -20l-76 -52l-8 -8l-24 -16l-8 -8l-12 -4l-8 -8l-12 -4l-4 -8l-12 -4 q-35 -34 -68 -48l-4 -8l-68 -44l-12 -12l-16 -8l-28 -24l-12 -4l-8 -8l-28 -16q-34 -34 -68 -48l-20 -16l-24 -16q-4 -7 -8 -8l-40 -28l-20 -16l-28 -16l-24 -20l-28 -16q-4 -7 -8 -8l-8 -4l-8 -8l-8 -8l-8 -4q-20 -13 -32 -24l-24 -16l-12 -4q-4 -7 -8 -8l-8 -8l-12 -4 l-4 -8l-28 -16q-29 -25 -52 -36l-20 -16l-16 -12l-16 -12l-56 -36l-8 -8q-22 -14 -36 -28l-16 -8l-20 -12l-16 -16l-16 -8l-12 -12l-12 -4l-8 -8q-22 -14 -36 -28l-12 -4l-8 -8l-12 -4l-4 -8l-64 -44q-6 4 -8 8l-16 8l-100 68l-8 8l-52 36l-8 4l-8 8q-33 23 -52 40l-8 4 l-56 36l-20 16l-8 8l-12 4q-13 14 -24 20q-40 25 -64 48q-26 13 -40 28q-30 15 -48 32l-16 8l-16 12l-16 12q-35 24 -56 44l-12 4l-12 8l-16 12l-12 8l-12 8l-12 8l-12 8q-25 23 -44 32l-8 8l-8 4q-31 24 -52 36l-24 20l-12 8q-7 4 -8 8l-12 4l-12 8l-4 8q-36 17 -56 40 l-24 12l-24 20q-17 8 -28 20l-28 16l-24 20q-7 4 -8 8q-44 22 -68 48l-8 4l-8 4l-8 4l-4 8q-31 14 -48 32l-12 8q-7 4 -8 8l-12 4l-12 8l-12 8l-8 8l-8 4l-56 40l-24 20l-24 12l-20 20l-8 4q-43 26 -68 48l-24 16l-12 8l-32 20q-25 23 -44 32q-16 14 -28 20l-8 8l-8 4 l-56 40l-24 16l-20 16l-20 12l-20 16l-24 16l-12 8l-52 40l-16 8l-12 12l-16 8l-12 8l-16 16l-16 8l-12 8l-20 12l-8 12l-12 4l-12 12l-12 4l-28 24l-12 4q-17 16 -32 24l-8 4l-4 8q-35 19 -56 36l-8 8q-66 41 -100 72h16l12 -4l8 -4l48 -8q30 -10 52 -12l32 -8q23 -7 40 -8 l12 -4l12 -4l12 -4h12l12 -4l8 -4h12q44 -14 72 -16l28 -8l12 -4l20 -4l12 -4l12 -4h12l16 -4l12 -4l56 -12l8 -4l28 -4l56 -16l32 -4l8 -4l72 -16l20 -4l16 -4l100 -24l24 -8l32 -4q24 -9 44 -12l12 -4l28 -4l12 -4l32 -8l80 -20l28 -4l24 -8h12q37 -13 64 -16l24 -8l28 -4 l12 -4l12 -4q44 -7 72 -16l16 -4l24 -4l16 -4l20 -4l16 -8h20l16 -8l20 -4l16 -4h16l12 -4l12 -4l20 -4l12 -4l12 -4h12l16 -4l12 -4l56 -12v32v32v12v12v124v28v24v28v24v20v24v16v72v44v16v16v16v16v68v12v48h32z" />
<glyph unicode="_" horiz-adv-x="490" />
<glyph unicode="`" horiz-adv-x="956" d="M428 1838h56h12h20h12h16h12h80l-12 -20l-4 -12l-28 -48l-12 -24l-8 -4q-10 -28 -20 -44l-12 -16l-12 -20l-8 -16l-12 -16l-8 -20q-17 -25 -24 -44l-8 -12l-8 -16l-12 -12q-7 -16 -16 -28q-20 -46 -40 -72h-20h-16h-72h-16h-16h-16h-68h-12h-48h-48l32 64l12 16l12 24 q18 27 28 48l8 16l12 12l8 12l4 16l8 12l8 16l12 20l8 12l8 16l24 32l4 12l8 12l4 8l4 12l4 8l8 4q12 32 28 52h124zM280 1222h52h16h68h12h48h68h16h20h52h16h68h12h48v-256q-12 -11 -24 -8h-80h-28h-24h-20h-24h-16h-72h-44h-16h-16h-16h-16h-68h-12h-48v16v72v16v16v16 v68v12v48h28z" />
<glyph unicode="a" horiz-adv-x="1204" d="M960 1218l4 -8q16 -20 24 -40q21 -31 28 -56v-16q12 -39 12 -68v-392q-4 -99 8 -164q49 -51 112 -64l-8 -12l-8 -20l-8 -16l-4 -12l-4 -12l-8 -12l-16 -40l-8 -12l-4 -12l-4 -12l-4 -8l-28 -60q-178 -1 -268 112q-171 -170 -424 -84q-233 64 -272 284q2 323 304 376 q16 10 32 12h12q6 4 12 4l12 4l72 12l32 4l12 4l68 4q54 8 88 4q15 223 -244 152l-12 -4l-32 -4l-28 -12l-12 -4l-40 -12q-31 -21 -56 -28q-34 -26 -68 -36l-28 52l-8 4l-4 12l-8 8l-4 12q-26 30 -36 56q-16 15 -20 32q-26 25 -32 52l8 4l12 8l8 4q27 18 48 28q16 11 32 12 l8 8q37 17 64 24l8 8h12q19 12 32 16h12q27 14 52 16q55 23 104 24l12 4q274 18 456 -136zM696 694h-12q-24 -7 -40 -8h-12q-6 -4 -12 -4l-16 -4h-12l-16 -4l-24 -4q-6 -4 -12 -4l-16 -4l-12 -4q-56 -14 -88 -28q-42 -56 -24 -116q100 -140 288 -48l32 48l4 16v16v12v20v12 v16v12v80h-12z" />
<glyph unicode="b" horiz-adv-x="1324" d="M212 1742h16h20h52h16h68h32h28v-476q315 181 584 -12q28 -14 40 -28l44 -48q188 -343 68 -680q-106 -266 -364 -304q-218 -35 -368 92q-8 -37 -4 -68h-68h-16h-20h-52h-16h-68h-12h-48v32v80v32v12v16v72v12v80v32v16v72v12v12v124v28v12v16v72v56v12v20v12v16v12v80v68 v12v48v52v16v68v12v48v44v20v52v16v68v12v48h68zM460 954l-16 -68v-248q74 -197 268 -180q207 44 208 256q38 367 -280 372q-122 -34 -180 -132z" />
<glyph unicode="c" horiz-adv-x="1160" d="M1092 994l-16 -8q-26 -6 -44 -16l-16 -4l-16 -4q-22 -12 -44 -16q-6 -4 -12 -4q-16 -10 -32 -12l-28 -12q-44 -19 -76 -24q-61 191 -244 192q-197 -83 -192 -284q-21 -177 84 -296q102 -95 216 -44q109 61 136 172h12l16 -8l28 -8l8 -8q41 -9 68 -24l12 -4l16 -4l12 -4 q15 -9 32 -12l12 -4l8 -8q36 -8 60 -20q-166 -389 -560 -352q-428 79 -464 516q-26 565 476 660q414 4 548 -360z" />
<glyph unicode="d" horiz-adv-x="1296" d="M916 1742h16h20h52h16h68h12h48v-1524h-68h-16h-20h-52h-16h-68h-12h-48v68q-114 -88 -240 -96q-270 -22 -420 168q-177 259 -112 572q59 305 320 396q257 76 452 -64v24v52v16v68v12v48v44v20v52v16v68v12v48h68zM380 882q-38 -162 20 -296q57 -114 172 -128 q162 -10 248 116q10 31 20 52v12l4 20v16v20v52v16v68v12v48q-62 211 -272 196q-170 -46 -192 -204z" />
<glyph unicode="e" horiz-adv-x="1192" d="M1076 858l12 -52v-28q8 -71 4 -116l-12 4h-12h-80h-12h-12h-124h-28h-24h-28h-24h-20h-24h-16h-72h-44h-16h-16h-16h-16h-68h-12h-48q22 -174 180 -208q197 -30 328 100l32 -36q19 -13 28 -28l8 -4l4 -8q20 -15 32 -28l8 -12q7 -4 8 -8l8 -4l8 -8l4 -8l8 -4l4 -8 q20 -15 32 -28q-189 -240 -520 -180q-405 69 -460 492q-36 536 440 648q489 7 556 -476zM372 890h24h28h52h124h56h12h20h12h16h12h80q-45 180 -220 196q-184 -29 -216 -196z" />
<glyph unicode="f" horiz-adv-x="856" d="M588 1750h12h12h12q26 0 44 -4h16l68 -12l60 -12v-20l-8 -24l-4 -16l-4 -28l-4 -8l-8 -48l-4 -12l-20 -92q-173 40 -228 -56v-104h56h12h20h12h16h12h80v-248h-56h-12h-20h-12h-16h-12h-80v-852h-80h-20h-12h-16h-16h-16h-16h-68h-12h-48v32v32v12v12v80v32v32v12v12v124 v28v24v28v24v20v24v16v72v44v16v16v16v16v68v12v48h-40h-16h-16h-12h-16h-72v16v16v20v52v16v68v12v48h40h16h16h12h16h72q-51 398 296 440q37 2 64 -4z" />
<glyph unicode="g" horiz-adv-x="1272" d="M804 1258q7 30 4 52h68h16h20h52h16h68h12h48v-1052l-4 -12q-1 -51 -16 -88q-6 -28 -12 -44l-8 -8q-36 -84 -96 -136l-12 -8l-12 -4q-10 -13 -24 -20l-12 -4q-4 -5 -8 -4l-8 -8l-12 -4l-48 -24q-416 -102 -752 92l4 16l36 56l4 12l4 8l4 8l8 16l8 12q22 33 32 56l4 8l8 8 q13 28 24 44q37 -13 60 -32q221 -98 436 -56q18 15 36 20q13 19 28 28l4 8l16 28l8 28v72q-281 -120 -512 20q-213 138 -224 380q-22 537 444 600q166 10 288 -68zM376 846q-31 -166 80 -264q106 -63 216 -32q168 38 136 344q-54 182 -256 164q-165 -46 -176 -212z" />
<glyph unicode="h" horiz-adv-x="1296" d="M208 1742h16h20h52h16h68h12h48v-508q198 152 412 72q192 -84 260 -264v-16q25 -64 24 -120v-692h-68h-16h-20h-52h-16h-68h-12h-48v28v12v12v124v12v12v52v20v24v12v80v24v12v16v12v20v44v44v16v12v28v12v12v12v28l-4 24q-13 27 -16 48q-77 107 -200 88 q-92 -27 -148 -92l-4 -16q-19 -37 -24 -68v-664h-68h-16h-20h-52h-16h-68h-12h-48v12v16v12v16v72v32v32v12v80v16v20v16v20v52v16v68v12v48v16v20v52v16v68v12v48v28v32v32v32v12v12v124v28v24v28v24v20v24v16v72v44v16v16v16v16v68v12v48h68z" />
<glyph unicode="i" horiz-adv-x="596" d="M452 1610q3 -113 -76 -176q-181 -72 -256 88q-40 180 128 232q165 3 204 -144zM200 1306h16h20h52h16h68h32h28v-1092h-56h-44h-20h-12h-16h-12h-80h-12h-48v12v20v12v16v12v80v28v16v20v16v20v52v16v68v12v48v28v28v24v28v24v28v24v68v24v20v24v16v72v44v16v16v16v16v68 v12v48h68z" />
<glyph unicode="j" horiz-adv-x="768" d="M620 1618q7 -112 -68 -180q-185 -80 -264 84q-36 191 144 232q147 -7 188 -136zM316 1306h12h72h52h16h68h12h48l4 -1244l-20 -72q-39 -63 -88 -96q-238 -81 -460 -12v20l4 12l4 16l8 16q6 27 12 44l4 16l20 68l4 12l16 48q124 -42 192 40q0 19 4 32v16v72v56v12v20v12 v16v12v80v32v32v56v12v20v12v16v12v80v68v12v48v16v12v80v16v12v72v52v16v68v12v48h16z" />
<glyph unicode="k" horiz-adv-x="1232" d="M200 1742h16h20h52h16h68h32h28v-812l16 16l16 16l12 16l8 8l8 4q15 20 28 32l8 4q20 28 44 44l12 12q20 28 44 44q13 19 28 28q13 19 28 28l4 8l8 4q15 20 28 32l12 8q4 7 8 8l4 8l8 8l8 4l4 8l8 4q15 20 28 32h24h52h16h72h44h16h16h16h16h68h32h28l-16 -24l-20 -16 l-16 -20l-52 -52l-8 -4q-20 -27 -40 -40q-20 -27 -40 -40l-4 -8l-8 -8l-8 -8l-8 -4q-4 -7 -8 -8l-44 -48l-40 -36l-12 -16l-12 -8l-8 -12l-12 -8q-13 -19 -28 -28q-28 -39 -56 -60l4 -12l8 -4l16 -28l4 -8q14 -18 20 -32q30 -40 44 -68l16 -24l12 -24l16 -16l4 -8l32 -56 q9 -10 12 -20q21 -24 32 -44l12 -20l8 -12l4 -8q14 -19 20 -32q15 -18 20 -36l12 -12l8 -12l8 -16l8 -8l4 -12l16 -28l8 -4l4 -12l16 -28q26 -28 36 -56h-24h-124h-56h-12h-20h-12h-16h-12h-80l-40 60l-8 20q-29 32 -40 60l-16 20l-8 20l-16 20l-8 16q-20 25 -28 48l-12 16 l-24 32l-8 12l-4 12l-8 12l-8 8q-19 39 -40 64l-20 -20q-14 -19 -24 -28l-12 -12l-8 -8l-8 -4q-19 -27 -40 -44v-304h-68h-16h-20h-52h-16h-68h-12h-48v32v80v32v12v16v72v12v80v32v16v72v12v12v124v28v12v16v72v56v12v20v12v16v12v80v68v12v48v52v16v68v12v48v44v20v52v16 v68v12v48h68z" />
<glyph unicode="l" horiz-adv-x="680" d="M144 1742h20h16h20h16h20h52h16h68h32h28v-1216q62 -73 176 -32l4 -16v-20q5 -22 4 -44q7 -25 8 -44l4 -36v-16q4 -6 4 -12l8 -80h-16l-12 -4l-16 -4l-28 -4h-12q-45 -11 -76 -12q-267 -54 -348 172q-1 20 -4 32v12v80v16v20v16v20v52v16v68v12v48v16v20v52v16v68v12v48 v28v32v32v32v12v12v124v28v24v28v24v20v24v16v72v44v16v16v16v16v68v12v48h16z" />
<glyph unicode="m" horiz-adv-x="1876" d="M976 1194q206 218 464 108q158 -71 232 -212v-12q5 -4 4 -8q5 -4 4 -8l24 -76v-12q8 -46 8 -80v-676h-68h-16h-20h-52h-16h-68h-12h-48v20v52v16v16v16v68v12v48v56v28v56v12v72v52v16v68v12v48q-8 29 -8 48q-6 12 -8 24q-15 18 -20 36l-8 4l-4 8q-29 29 -52 44 q-163 22 -232 -128l-4 -28l-4 -28v-648h-16h-12h-72h-52h-16h-68h-12h-48v20v12v52v16v16v16v12v16v72v16v16v12v16v72v16v16v16v16v12v52v40v52v40v12l-4 28l-12 72q-43 77 -116 104q-133 -11 -196 -120q-12 -44 -12 -76v-644h-68h-16h-20h-52h-16h-68h-12h-48v12v20v12v16 v12v80v28v16v20v16v20v52v16v68v12v48v28v28v24v28v24v28v24v68v24v20v24v16v72v44v16v16v16v16v68v12v48h68h16h20h52h16h68h32h28v-72q103 82 220 100q218 19 320 -144z" />
<glyph unicode="n" horiz-adv-x="1292" d="M1084 1114l4 -12l4 -12l4 -12q10 -17 12 -32l16 -48v-12q14 -72 12 -116v-652h-80h-20h-12h-16h-16h-16h-16h-68h-12h-48v12v20v12v16v12v80v56v44v20v12v16v12v80v16v44v40v72v12v12v16v72v16q-10 25 -12 44q-48 84 -128 108q-166 4 -244 -128l-8 -28v-688h-80h-20h-12 h-16h-16h-16h-16h-68h-12h-48v12v20v12v16v12v80v28v16v20v16v20v52v16v68v12v48v28v28v24v28v24v28v24v68v24v20v24v16v72v44v16v16v16v16v68v12v48h80h20h12h16h16h16h16h68h12h48q-2 -41 4 -68q100 79 212 96q274 9 428 -224z" />
<glyph unicode="o" horiz-adv-x="1248" d="M1076 1026q14 -18 20 -36q86 -348 -84 -612q-239 -275 -568 -180q-346 118 -376 492q-30 572 480 664q394 3 528 -328zM372 750q-6 -257 212 -304q262 18 236 384q-31 253 -256 256q-218 -94 -192 -336z" />
<glyph unicode="p" horiz-adv-x="1296" d="M1200 686q-33 -351 -320 -468q-263 -82 -460 68v-396h-68h-16h-20h-52h-16h-68h-12h-48v32v32v32v32v28v32v28v12v20v12v16v12v80v16v72v24v28v80v32v32v32v32v80v12v12v124v28v24v28v24v20v24v16v72v44v16v16v16v16v68v12v48h68h16h20h52h16h68h32h28v-44q116 77 236 92 q579 -5 544 -668zM432 950v-12l-8 -32l-8 -28v-228q49 -170 212 -192q184 -13 240 144q56 169 4 320q-53 182 -260 164q-122 -37 -180 -136z" />
<glyph unicode="q" horiz-adv-x="1304" d="M880 1262q6 24 4 44h80h20h12h16h16h16h16h68h12h48v-1416h-80h-20h-12h-16h-16h-16h-16h-68h-12h-48v12v52v124v56v12v20v12v16v12v80q-216 -159 -448 -72q-261 95 -308 352q-60 245 16 456q100 301 408 332q190 6 328 -92zM572 1074l-12 -8l-12 -4l-8 -4 q-32 -22 -56 -32q-137 -202 -48 -440q53 -108 160 -124q173 -24 268 116l12 36q8 32 8 56v20v12v16v16v16v16v68v12v48q-62 203 -264 192q-29 -11 -48 -12z" />
<glyph unicode="r" horiz-adv-x="920" d="M696 1326h12h80v-288q-231 30 -332 -148v-12q-18 -47 -16 -92v-568h-68h-16h-20h-52h-16h-68h-12h-48v12v20v12v16v12v80v28v80v32v32v32v32v80v12v12v124v28v24v28v24v20v24v16v72v44v16v16v16v16v68v12v48h68h16h20h52h16h68h12h48v-104q106 107 240 124h16z" />
<glyph unicode="s" horiz-adv-x="1084" d="M996 1178l-12 -12l-12 -12q-13 -18 -24 -28l-16 -16l-12 -12q-18 -24 -36 -36l-4 -8l-8 -12l-8 -4l-52 -60q-261 217 -404 44q-1 -46 20 -80l16 -4l12 -8h12l12 -4l32 -4l64 -16q219 -2 356 -136q115 -171 48 -344q-66 -150 -204 -200q-449 -127 -752 160q19 25 36 40 l16 8q25 34 56 52l12 16l8 8l8 8l8 8l8 4l8 4q29 37 56 56q200 -197 404 -136l4 8q28 18 44 44q4 61 -40 92h-12l-8 8h-12l-12 4l-8 8q-61 10 -100 24q-353 16 -396 312q5 356 384 388q306 18 508 -164z" />
<glyph unicode="t" horiz-adv-x="912" d="M540 1726v-408h16h44h20h52h16h68h32h28v-252h-16h-44h-20h-52h-16h-68h-12h-48v-544l8 -24q77 -78 244 -16l4 -16l20 -64l4 -12l4 -32l12 -28v-12q9 -25 12 -44l12 -40q-249 -78 -472 -32q-68 34 -108 80q-29 52 -40 88v28q-7 22 -4 40v16v16v12v72v52v16v68v12v48v52 v16v72v16v16v16v68v12v48h-16h-16h-16h-68h-12h-48v20v16v20v52v16v68v12v48h16h16h16h68h32h28v68v16v68v44v16v68v12v48l16 4l8 4l36 8q23 10 40 12l52 16l20 4l40 16q51 10 84 24q8 -9 8 -20z" />
<glyph unicode="u" horiz-adv-x="1300" d="M148 1310h20h16h20h16h20h52h16h68h32h28l4 -716q105 -202 304 -88q60 48 84 112v12v80v28v28v16v20v52v16v68v12v48v16v16v12v72v52v16v68v12v48h80h20h12h16h16h16h16h68h12h48v-1092h-80h-20h-12h-16h-16h-16h-16h-68h-12h-48v72q-238 -172 -476 -40q-108 69 -160 164 l-8 4l-4 12l-4 12q-9 20 -12 32l-4 12q-19 62 -24 100l-4 88v28v24v68v12v48v52v16v68v12v48v44v20v52v16v68v12v48h16z" />
<glyph unicode="v" horiz-adv-x="1160" d="M52 1306h16h12h72h52h16h68h32h28q6 -20 12 -32l4 -24q4 -6 4 -12q5 -4 4 -8q10 -17 12 -32l12 -28l8 -24l8 -24l4 -20q4 -6 4 -12q21 -45 28 -76l24 -68q12 -31 16 -52q19 -38 24 -72q7 -10 8 -20q4 -6 4 -12q4 -6 4 -12q4 -6 4 -12l8 -12v-12q4 -6 4 -12l8 -12l4 -8 q10 -45 28 -76q3 22 12 40l4 12l4 12l4 12l4 8l20 64l8 24l8 24l12 28q6 26 16 40v12q11 23 16 44l8 28l20 52l8 16l4 24l8 16l4 16l8 12q1 10 4 16l4 20q9 19 12 32l4 8l8 32q22 45 28 80h52h16h72h16h16h16h68h12h48l-12 -28l-4 -24l-8 -16l-4 -12l-4 -12l-4 -16l-4 -12 l-4 -12l-4 -12q-9 -19 -12 -32l-4 -16q-19 -38 -24 -68q-11 -23 -16 -44l-4 -8l-4 -16l-12 -28q-7 -25 -16 -40l-8 -28l-8 -28l-12 -28q-14 -56 -32 -88q-11 -46 -24 -76l-8 -24l-4 -12l-20 -64l-8 -16l-4 -12l-20 -64l-8 -20l-8 -16l-16 -52l-4 -12l-4 -12l-8 -12v-12 l-8 -16l-4 -12l-32 -92h-56h-12h-72h-52h-16h-68h-12h-48l-8 28l-32 88l-24 68l-4 8l-8 36q-4 6 -4 12q-5 4 -4 8q-17 39 -24 68l-8 24l-12 32q-13 30 -16 48l-8 28q-26 51 -32 92l-12 24l-8 24l-8 24l-4 12l-4 20q-10 16 -12 32l-4 12q-5 4 -4 8l-24 64l-4 24 q-17 30 -20 56l-8 12v12q-4 6 -4 12q-5 4 -4 8l-4 12q-14 28 -20 48v12l-12 28l-4 8v12l-8 8v12q-19 37 -24 68h16z" />
<glyph unicode="w" horiz-adv-x="1736" d="M100 1306h16h20h52h16h68h32h28l4 -28q6 -12 8 -24l8 -28l8 -32l8 -24l8 -24l16 -64l8 -24l4 -24q19 -46 24 -80l4 -20q5 -4 4 -8q14 -37 16 -60l4 -16l8 -16q6 -25 8 -44q4 -6 4 -12q4 -6 4 -12l4 -12l4 -8v-12q5 -4 4 -8q18 -55 24 -92q11 16 12 28l4 8l4 28l12 44 l4 28l8 32l32 132l8 20v20l8 20l4 20l4 20l4 24l4 16l4 16q9 24 12 44l4 20l4 12l4 12v12l8 28l4 12v12q14 37 16 64h16h12h20h12h16h12h80h12h12h20h12h16h12h80l4 -28l20 -80l4 -20l4 -12l8 -28l8 -48l12 -40l12 -52l4 -20l4 -20l4 -20l8 -20l4 -20l4 -12l12 -68l8 -16 v-16l8 -20l4 -24l4 -24q10 -24 12 -44l12 -40l8 28l8 28q9 25 12 44l4 16q9 23 12 40l4 16l4 8l16 64l4 12l4 8l12 48l4 16l16 56l4 20l8 16l4 24l4 12l4 12l20 72l4 12l4 8l4 12l24 100h68h16h20h52h16h68h12h48v-12l-8 -12q-6 -42 -16 -68l-8 -28l-8 -32l-8 -28l-8 -16 l-4 -20l-4 -16l-4 -24l-8 -20l-4 -20l-8 -20l-8 -32l-4 -12l-4 -16l-20 -72l-8 -28l-20 -76l-8 -28l-8 -24l-4 -20l-4 -12l-4 -8l-12 -48l-4 -20l-8 -24l-8 -16q-6 -42 -16 -68l-8 -24l-4 -16l-4 -12l-8 -28l-4 -24q-9 -23 -12 -40l-4 -12l-32 -116h-20h-124h-56h-12h-20 h-12h-16h-12h-80l-4 12v12q-14 37 -16 64l-8 24v12q-14 38 -16 68l-20 68v12l-8 32l-16 64l-4 24l-8 24l-4 20l-4 16v12q-15 36 -16 68q-12 29 -12 52q-18 45 -20 80l-8 -28l-4 -12l-4 -20l-12 -60l-4 -16q-9 -22 -12 -40l-4 -20l-4 -12l-4 -16l-4 -28l-24 -100l-8 -28 l-4 -20l-4 -24l-8 -16q-5 -41 -16 -68l-4 -28l-4 -12l-4 -20q-10 -37 -12 -60q-8 -20 -12 -36h-20h-124h-56h-12h-20h-12h-16h-12h-80v12l-4 16l-8 12v16q-5 4 -4 8l-4 8v12q-4 6 -4 12l-16 48l-8 32q-10 30 -12 52q-4 6 -4 12l-8 32q-21 46 -24 84l-12 28v12l-4 16l-4 16 q-12 23 -12 44q-20 46 -24 80l-8 24l-8 24l-4 28q-5 4 -4 8l-4 12l-24 92l-8 24l-4 20l-8 16l-16 68l-8 20l-4 12q-4 23 -12 40v12l-4 16q-4 6 -4 12l-8 32q-4 6 -4 12l-4 8l-8 32l-8 28h68z" />
<glyph unicode="x" horiz-adv-x="1192" d="M128 1306h20h16h72h16h16h16h68h12h48l8 -20q20 -20 28 -36l4 -12l12 -12q16 -26 28 -40l8 -12l4 -8l4 -12q7 -4 8 -8l8 -8l4 -8l4 -8q30 -40 44 -68l12 12l12 12l8 12l12 20q15 26 28 40l16 28l8 12q14 19 20 32l8 8l4 8l8 12q24 32 36 56h56h20h16h72h16h16h16h68h12 h48l-4 -8l-40 -60l-12 -20l-16 -16l-8 -20l-16 -16l-12 -24l-12 -16l-12 -20l-16 -24l-12 -20l-12 -12l-8 -16l-12 -20l-8 -12l-12 -16l-12 -12l-4 -12l-8 -12l-8 -12l-24 -32l-4 -12l-8 -12l-8 -12l-8 -8q-4 -7 -8 -8q-15 -35 -36 -56l12 -20l12 -12l16 -28q17 -23 24 -40 l12 -12l4 -12q24 -23 32 -48q37 -41 52 -76l12 -16l12 -20l8 -8l28 -44l12 -16l4 -8l36 -56q17 -23 24 -40l16 -24l8 -4l16 -24l8 -12l4 -8l4 -12q21 -21 28 -44h-16h-16h-12h-16h-12h-16h-72h-40h-16h-16h-12h-16h-72l-12 20q-26 30 -36 56l-12 12l-8 16l-28 36l-8 16 l-28 40l-4 12l-12 12l-8 12l-4 8l-8 8l-16 28q-22 34 -40 52l-12 -24l-12 -12l-8 -16l-16 -20l-8 -16l-12 -20q-14 -19 -20 -32l-12 -12q-13 -27 -28 -40l-4 -12l-16 -24l-8 -8l-4 -12l-8 -8l-16 -20q-14 -32 -32 -52h-124h-56h-12h-20h-12h-16h-12h-80q21 46 44 72l4 8 l40 60q24 32 36 56l8 12l8 4q21 45 44 68l8 20l12 16l32 48l12 12q9 23 20 36l8 12l24 32l8 12l4 12l8 8l16 20q22 46 48 72l-16 24l-12 24l-16 24q-7 4 -8 8l-60 88l-4 8q-19 25 -28 44q-9 10 -12 20l-16 16l-24 44l-8 4l-4 8l-4 8q-30 40 -44 68q-24 23 -32 48 q-37 41 -52 76h56z" />
<glyph unicode="y" horiz-adv-x="1148" d="M40 1306h20h16h72h16h16h16h68h12h48l8 -28l32 -88l4 -12l4 -16l4 -8l4 -12l12 -32q12 -30 16 -48q16 -33 20 -60q16 -30 20 -56l8 -12l20 -64l8 -12v-12q16 -27 20 -52l4 -12l4 -12q4 -6 4 -12q6 -12 8 -24q8 -10 12 -32q13 -22 16 -44l12 28l12 24l8 28l28 76l8 28 l8 24q13 24 16 44l8 16l4 16q11 23 16 44l20 48l12 44l8 20q14 31 20 56l8 16l12 28q6 28 12 44l4 12l20 52h24h20h16h72h16h16h16h68h12h48q-5 -16 -12 -28q-3 -23 -12 -44l-8 -12v-12l-16 -32l-4 -12l-4 -24l-4 -8l-4 -12l-20 -52l-4 -16l-8 -16l-4 -12l-4 -12l-4 -12 l-4 -12l-4 -12l-20 -48l-12 -44l-12 -28l-12 -28l-4 -12l-16 -52l-4 -12q-17 -37 -24 -64l-12 -28l-4 -12q-22 -74 -44 -116q-8 -38 -20 -64l-8 -24l-24 -68l-8 -24l-8 -20l-8 -16l-4 -20q-15 -31 -20 -56l-8 -16l-4 -8q-5 -21 -12 -36l-4 -16l-8 -16l-12 -40l-4 -8l-12 -28 l-4 -8l-8 -28l-20 -52l-4 -8l-8 -8q-22 -36 -44 -56l-12 -4q-41 -33 -80 -44h-12q-47 -9 -80 -8h-20h-12q-16 6 -32 4h-16h-16l-16 4h-20h-12l-20 4h-12l-12 4h-12h-12q-40 11 -72 12v16l4 20v16l12 72v20l4 8v16l4 12v16l12 72q221 -56 260 60q1 46 -12 80l-12 28l-4 8 l-8 36q-5 4 -4 8q-22 45 -28 80q-11 15 -12 32q-15 29 -20 52l-4 8l-12 28q-7 33 -20 56l-4 20l-12 28l-8 28q-9 20 -12 32q-13 30 -16 48l-28 68l-4 24l-8 8l-4 16l-32 88l-8 24l-8 16l-4 20l-8 20l-8 16l-8 36l-8 12l-12 40l-4 12l-8 12l-4 12l-4 12l-4 16l-24 68h24z" />
<glyph unicode="z" horiz-adv-x="1004" d="M112 1306h56h12h20h12h16h12h80h68h12h48h52h16h68h12h48h44h20h52h16h68h12h48v-260l-12 -8l-16 -24l-8 -8q-4 -7 -8 -8q-4 -7 -8 -8l-16 -24l-8 -8l-28 -36q-27 -35 -48 -52l-4 -8l-40 -52l-12 -16l-8 -4q-22 -33 -40 -52l-8 -12l-20 -20l-4 -8l-12 -8q-17 -30 -40 -48 l-12 -20l-8 -12l-12 -12q-30 -40 -56 -64l-4 -12l-8 -4l-32 -44h24h68h24h20h24h16h72h44h16h16h16h16h68h12h48v-232q4 -22 -12 -28h-32h-32h-12h-12h-80h-32h-32h-12h-12h-124h-28h-24h-28h-24h-20h-24h-16h-72h-44h-16h-16h-16h-16h-68h-12h-48v16v72v16v16v16v68v12v48 l8 8l8 4q20 35 44 56q27 39 52 60q7 13 16 20l4 12l8 8l12 16l8 8l8 8q4 7 8 8l56 72l12 16l16 12l8 16l8 4q12 20 24 32l12 12l8 16l12 8l8 16l8 4q12 20 24 32q30 40 56 64l4 8l40 52h-24h-28h-24h-20h-24h-16h-72h-44h-16h-16h-16h-16h-68h-12h-48v68v44v16v68v12v48h32z " />
<glyph unicode="{" horiz-adv-x="1476" d="M240 1822h72h12h124v-1076h-16h-52h-16h-16h-16h-68h-12h-48v12v80v28v12v80v24v24v12v16v12v20v12v16v12v80v16v16v12v72v52v16v68v12v48h-12h-20h-12h-16h-12h-80v12v12v20v12v16v12v80q165 9 176 160h12zM1364 970q87 -221 -96 -316q145 -82 144 -236 q4 -166 -108 -264q-20 -21 -40 -32q-214 -77 -412 -36q-256 49 -308 284v24h20q13 4 24 4q23 9 40 12h12l8 4h12l52 8q44 14 76 16q29 -153 204 -148q159 0 172 136q-44 140 -260 116v52v16v68v12v48q294 -2 216 176l-32 36q-229 84 -292 -116h-12q-15 5 -32 4l-16 4h-12 l-44 8h-12l-12 4q-20 0 -32 4q-38 2 -64 8q48 290 372 320q307 20 432 -216z" />
<glyph unicode="|" horiz-adv-x="788" d="M292 1990h16h72h16h16h16h68h12h48v-1961h-52h-16h-72h-16h-16h-16h-68h-12h-48v16v20v15v21v92v41v42v15v103v20v26v20v26v67v20v88v15v62v20v26v66v21v87v16v61v36v41v41v41v16v15v159v36v31v36v31v25v31v21v92v57v20v21v20v21v87v15v62h52z" />
<glyph unicode="}" horiz-adv-x="1864" d="M860 1518q5 -4 4 -8v-24l4 -8v-52q-5 -29 -4 -48l-20 -68q-13 -39 -24 -60l-8 -4q-122 -196 -304 -292l-4 -8h24h124h56h12h20h12h16h12h80v-180q-1 -19 -8 -32h-16h-12h-20h-12h-16h-12h-80h-24h-68h-12h-48h-52h-16h-68h-12h-48h-44h-20h-52h-16h-68h-12h-48v44v16v12 v20v12v16v12v80l8 8l12 4l8 8q21 10 36 20l8 4l8 4q18 15 36 24q23 17 40 24q22 21 44 32l16 8l12 12l12 8l12 8l16 8q21 23 44 32l8 12l12 8l12 4q15 17 32 24l8 12l12 4l12 12l8 8q59 44 88 80q107 188 -48 300q-56 15 -104 8q-143 -74 -128 -228h-16h-52h-16h-16h-16h-68 h-12h-48q-3 414 396 444q355 3 408 -320zM1752 970q95 -219 -92 -312q173 -108 140 -296q-19 -157 -140 -232q-224 -97 -436 -40q-251 55 -292 292q2 8 8 12l16 4h20q6 4 12 4l16 4q23 2 40 8l32 4l28 8h12l8 4q31 2 52 8q37 -162 220 -144q171 4 152 160q-67 108 -252 88 v52v16v68v12v48q296 -1 212 180l-36 36q-236 75 -284 -120h-12l-44 8h-16l-40 8h-16l-12 4q-61 3 -100 12q51 288 372 320q307 20 432 -216z" />
<glyph unicode="~" horiz-adv-x="636" />
<glyph unicode="&#xa1;" horiz-adv-x="309" />
<glyph unicode="&#xa2;" horiz-adv-x="1160" d="M1092 994l-16 -8q-26 -6 -44 -16l-16 -4l-16 -4q-22 -12 -44 -16q-6 -4 -12 -4q-16 -10 -32 -12l-28 -12q-44 -19 -76 -24q-61 191 -244 192q-197 -83 -192 -284q-21 -177 84 -296q102 -95 216 -44q109 61 136 172h12l16 -8l28 -8l8 -8q41 -9 68 -24l12 -4l16 -4l12 -4 q15 -9 32 -12l12 -4l8 -8q36 -8 60 -20q-166 -389 -560 -352q-428 79 -464 516q-26 565 476 660q414 4 548 -360zM731 -31v233h-296v-233h296zM734 1328v233h-296v-233h296zM734 1328v233h-296v-233h296zM731 -31v233h-296v-233h296z" />
<glyph unicode="&#xa3;" horiz-adv-x="1520" d="M1220 1286l-20 -4h-16l-52 -4q-33 -7 -56 -8l-68 -8h-12q-40 -9 -72 -8q-87 303 -368 160q-168 -181 -16 -368q9 -21 12 -36h52h124h56h12h20h12h16h12h80v-216h-56h-12h-72h-52h-16h-68h-12h-48v-48l-4 -8q1 -43 -8 -72v-12q-9 -24 -12 -44l-4 -12l-20 -52h12l28 -4 l8 -4h12h12q29 -7 48 -8q290 -84 548 -20l4 -16l12 -56q12 -23 12 -44q4 -6 4 -12q11 -24 12 -44l8 -32q20 -46 24 -84q-359 -87 -676 12h-20l-32 8q-38 2 -64 8h-12h-12l-64 4h-16q-33 -4 -56 -4l-44 -4h-16l-12 -4h-16l-8 -4h-12l-12 -4l-68 -12l-4 20l-8 16l-4 24l-8 24 l-12 56q-4 6 -4 12q-11 24 -12 44l-8 32q-6 12 -8 24l-12 36q191 58 224 240v44h-44h-20h-12h-16h-12h-80v20v52v16v68v12v48h12h80q-103 281 40 504q145 213 380 244q516 5 592 -472z" />
<glyph unicode="&#xa4;" horiz-adv-x="420" />
<glyph unicode="&#xa5;" horiz-adv-x="636" />
<glyph unicode="&#xa6;" horiz-adv-x="201" />
<glyph unicode="&#xa7;" horiz-adv-x="1588" d="M1448 1661l-8 -9l-40 -40l-8 -15l-12 -14l-16 -10l-12 -15l-12 -15l-8 -14l-16 -10q-14 -24 -24 -35l-24 -19l-4 -10l-8 -5q-21 -32 -40 -49q-252 253 -520 162q-15 -17 -32 -25q-22 -28 -40 -44l-4 -10l-20 -59q2 -98 52 -157q435 -144 448 -147l12 -5l52 -25l8 -10 q39 -22 64 -49q7 -5 8 -10l8 -5q18 -16 28 -29q25 -23 40 -44q146 -250 72 -517q-79 -272 -280 -358q-625 -236 -1020 299l12 20l16 10q7 11 16 15q16 26 36 34q7 11 16 15q7 11 16 15l8 14l12 10l8 10l12 10l12 5l8 15l8 4l8 10l8 5l8 5l56 59q265 -319 592 -231l12 10 l12 5l4 10l60 49q14 42 28 69q12 134 -68 211l90 86l21 288l-426 140l-167 -140l-29 -201q-196 -12 -237 427q9 554 532 624q413 12 672 -310zM816 1379q155 0 261.5 -107.5t106.5 -260.5q0 -151 -107.5 -258.5t-260.5 -107.5q-151 0 -258.5 107.5t-107.5 258.5 q0 153 106.5 260.5t259.5 107.5zM816 1279q-111 0 -188.5 -77.5t-77.5 -188.5t77.5 -188.5t188.5 -77.5t188.5 77.5t77.5 188.5t-77.5 188.5t-188.5 77.5z" />
<glyph unicode="&#xa8;" horiz-adv-x="371" />
<glyph unicode="&#xa9;" horiz-adv-x="714" />
<glyph unicode="&#xaa;" horiz-adv-x="402" />
<glyph unicode="&#xab;" horiz-adv-x="540" />
<glyph unicode="&#xac;" horiz-adv-x="1395" />
<glyph unicode="&#xad;" horiz-adv-x="636" />
<glyph unicode="&#x2212;" horiz-adv-x="636" />
<glyph unicode="&#xae;" horiz-adv-x="747" />
<glyph unicode="&#xaf;" horiz-adv-x="360" />
<glyph unicode="&#x2c9;" horiz-adv-x="360" />
<glyph unicode="&#xb0;" horiz-adv-x="487" d="M396 1644q-18 -134 78 -212l22 -12l9 -4l41 -15q278 -12 247 259q-69 166 -241 144q-132 -37 -156 -160zM699 1632q21 -109 -69 -150q-129 -23 -146 103q-6 121 99 144q103 -4 116 -97z" />
<glyph unicode="&#xb1;" horiz-adv-x="828" d="M12 1153h35h40h34h29h34h23h103h64h23h23h22h23h98h17h69v-253l-40 -5h-35h-40h-34h-29h-34h-23h-104h-63h-23h-23h-22h-23h-98h-17h-69v59v18v18v18v77v14v54h40zM181 726v35v40v34v29v34v23v103v64v23v23v22v23v98v17v69h253l5 -40v-35v-40v-34v-29v-34v-23v-104v-63 v-23v-23v-22v-23v-98v-17v-69h-59h-18h-18h-18h-77h-14h-54v40zM93 612h20h24h12h80h52h16h72h16h16h16h68h12h48v-232h-16h-68h-44h-16h-68h-12h-48h-12h-16h-16h-16h-16h-68h-12h-48v16v20v52v16v68v12v48h24z" />
<glyph unicode="&#xb2;" horiz-adv-x="878" d="M860 1518q5 -4 4 -8v-24l4 -8v-52q-5 -29 -4 -48l-20 -68q-13 -39 -24 -60l-8 -4q-122 -196 -304 -292l-4 -8h24h124h56h12h20h12h16h12h80v-180q-1 -19 -8 -32h-16h-12h-20h-12h-16h-12h-80h-24h-68h-12h-48h-52h-16h-68h-12h-48h-44h-20h-52h-16h-68h-12h-48v44v16v12 v20v12v16v12v80l8 8l12 4l8 8q21 10 36 20l8 4l8 4q18 15 36 24q23 17 40 24q22 21 44 32l16 8l12 12l12 8l12 8l16 8q21 23 44 32l8 12l12 8l12 4q15 17 32 24l8 12l12 4l12 12l8 8q59 44 88 80q107 188 -48 300q-56 15 -104 8q-143 -74 -128 -228h-16h-52h-16h-16h-16h-68 h-12h-48q-3 414 396 444q355 3 408 -320z" />
<glyph unicode="&#xb3;" horiz-adv-x="945" d="M884 1610q78 -215 -100 -308q222 -130 116 -388q-105 -221 -440 -188q-266 10 -380 220q-19 58 -20 100h16l16 4l12 4h12l8 4q44 4 72 12h20q54 15 88 16q32 -165 228 -140q152 10 144 148q-48 116 -256 100v52v16v68v12v48q119 -1 204 36q90 140 -68 188 q-194 41 -244 -128l-12 4q-43 2 -72 8h-16l-20 4l-12 4h-20l-12 4h-12l-64 8q14 93 64 156q105 126 252 152q30 1 52 8q325 26 444 -224z" />
<glyph unicode="&#xb4;" horiz-adv-x="462" />
<glyph unicode="&#xb5;" horiz-adv-x="420" />
<glyph unicode="&#x3bc;" horiz-adv-x="420" />
<glyph unicode="&#xb6;" horiz-adv-x="450" />
<glyph unicode="&#xb7;" horiz-adv-x="604" d="M480 902q4 -103 -64 -164q-181 -82 -256 84q-28 181 144 216q141 -11 176 -136z" />
<glyph unicode="&#x2219;" horiz-adv-x="604" d="M480 902q4 -103 -64 -164q-181 -82 -256 84q-28 181 144 216q141 -11 176 -136z" />
<glyph unicode="&#xb8;" horiz-adv-x="321" />
<glyph unicode="&#xb9;" horiz-adv-x="531" d="M244 1822h72h12h124v-1072h-16h-52h-16h-16h-16h-68h-12h-48v36v32v12v12v124v68v12v48v16v12v80v16v12v72v52v16v68v12v48h-12h-12h-124v12v12v20v12v16v12v80q161 13 172 160h12z" />
<glyph unicode="&#xba;" horiz-adv-x="402" />
<glyph unicode="&#xbb;" horiz-adv-x="540" />
<glyph unicode="&#xbc;" horiz-adv-x="1412" d="M248 1822h12h16h16h16h16h68h32h28v-1072h-16h-12h-20h-12h-16h-12h-80h-80v36v32v12v12v124v68v12v48v16v12v80v16v12v72v52v16v68v12v48h-12h-12h-124v12v12v20v12v16v12v80q164 10 172 160h20zM896 1162h16h12h72h52h16h68h12h48v-664h16h16h68h12h48v-232h-16h-16 h-68h-12h-48v-180h-16h-16h-20h-52h-16h-68h-12h-48v32v12v12v124h-80h-28h-52h-16h-68h-12h-48h-68h-16h-20h-52h-16h-68h-12h-48v16v20v52v16v68v12v48l16 20l20 24q34 45 60 68q8 19 20 28q4 7 8 8l4 12l8 8l12 8l4 12l8 4l4 12l8 4l4 8l32 40q14 13 20 24l16 16l16 20 l12 16l16 20l12 16l8 8l28 36l12 16l12 12l16 16q15 26 28 40l12 12q17 26 36 40l4 12q15 16 24 28l8 12q36 37 52 64h16zM928 874l-16 -16l-12 -16l-12 -16q-4 -7 -8 -8l-56 -72l-12 -12l-12 -20l-12 -8q-16 -26 -28 -40l-12 -12q-18 -26 -36 -40l-4 -12q-17 -16 -24 -28 l-8 -4l-4 -12l-8 -4l-40 -56h20h68h16h20h52h16h68h32h28v12v52v124v56v48v12q3 54 -4 92z" />
<glyph unicode="&#xbd;" horiz-adv-x="1480" d="M244 1822h72h12h124v-1072h-16h-52h-16h-16h-16h-68h-12h-48v36v32v12v12v124v68v12v48v16v12v80v16v12v72v52v16v68v12v48h-12h-12h-124v12v12v20v12v16v12v80q161 13 172 160h12zM1356 898q41 -276 -156 -440q-30 -38 -60 -56q-50 -53 -104 -76q-22 -21 -40 -28h28h56 h12h72h52h16h68h12h48v-176l-4 -36h-12h-12h-80h-32h-32h-12h-12h-124h-28h-24h-28h-24h-20h-24h-16h-72h-44h-16h-16h-16h-16h-68h-12h-48v20v52v16v68v12v48l16 4l12 12q24 11 40 24l12 4l28 16q29 26 56 36l16 12l16 12l16 8l16 12l12 12l36 20l48 40l36 20l8 12l12 4 l4 8l24 12q18 23 40 32l52 52q127 202 -44 316l-28 8h-12h-52q-151 -70 -136 -228h-16h-16h-20h-52h-16h-68h-12h-48q0 398 376 440q354 21 432 -292z" />
<glyph unicode="&#xbe;" horiz-adv-x="1756" d="M884 1610q78 -215 -100 -308q222 -130 116 -388q-105 -221 -440 -188q-266 10 -380 220q-19 58 -20 100h16l16 4l12 4h12l8 4q44 4 72 12h20q54 15 88 16q32 -165 228 -140q152 10 144 148q-48 116 -256 100v52v16v68v12v48q119 -1 204 36q90 140 -68 188 q-194 41 -244 -128l-12 4q-43 2 -72 8h-16l-20 4l-12 4h-20l-12 4h-12l-64 8q14 93 64 156q105 126 252 152q30 1 52 8q325 26 444 -224zM1252 1162h20h16h72h16h16h16h68h32h28v-664h16h16h68h12h48v-232h-16h-16h-68h-12h-48v-180h-44h-16h-68h-12h-48h-12h-48v32v12v12 v124h-80h-28h-52h-16h-68h-12h-48h-68h-16h-20h-52h-16h-68h-12h-48v16v12v20v12v16v12v80v4v-4v8v-4v8v-4v8v-4v8v-4v8v-4v8v-4v8v-4v8v-4v8v-4v8v-4v8v-4v8v-4v8v-4v8v-4v8v-4v8v-4v4l20 20l20 24q4 7 8 8l4 8l8 12q27 28 40 48l24 24l16 24l20 20l4 12l8 8l8 8l20 20 q20 35 44 56l16 24l16 20l16 16l12 16l8 8l28 36l12 16l16 16l12 12l8 16l16 16l16 16q22 39 48 60l8 16l8 4q4 7 8 8l16 24l36 44h24zM1272 874l-44 -56l-12 -16l-8 -4l-32 -44l-36 -40l-8 -12l-8 -12l-16 -12l-4 -12l-12 -12q-18 -26 -36 -40l-4 -12q-17 -16 -24 -28 l-8 -4l-4 -12l-8 -4l-40 -56h20h68h16h20h52h16h68h12h48v12v52v124v56v48v12q3 54 -4 92z" />
<glyph unicode="&#xbf;" horiz-adv-x="567" />
<glyph unicode="&#xc0;" d="M596 1746h52h124h56h12h20h12h16h12h80v-12q17 -36 24 -64l8 -28l4 -16q4 -6 4 -12q4 -6 4 -12q4 -6 4 -12q10 -16 12 -32l24 -64v-12q19 -37 24 -68q19 -44 24 -76q6 -12 8 -24l8 -16q6 -20 12 -32v-12q4 -6 4 -12q10 -16 12 -32l24 -64l4 -16l4 -8l8 -36l8 -16l8 -20 l4 -12l4 -16l8 -24q6 -20 12 -32v-12q4 -6 4 -12q10 -16 12 -32l24 -64l4 -24l12 -24l8 -24v-12l8 -12l4 -16l4 -20q31 -71 40 -120q4 -6 4 -12q31 -71 40 -120l8 -12l4 -16l4 -16l4 -12l4 -16q4 -6 4 -12q4 -6 4 -12q4 -6 4 -12l8 -12v-12q4 -6 4 -12q10 -16 12 -32 q13 -30 16 -48l8 -24h-24h-16h-72h-44h-16h-16h-16h-16h-68h-12h-48l-8 24v16l-8 12v12q-12 22 -12 40l-8 12v12l-4 16l-12 28l-28 100h-72h-80h-28h-24h-20h-24h-16h-72h-44h-16h-16h-16h-16h-68h-12h-48l-4 -20l-4 -20l-8 -16q-5 -22 -12 -40l-4 -20l-4 -8l-12 -40l-4 -16 l-4 -12q-7 -21 -12 -32l-12 -48h-16h-16h-12h-80h-12h-72h-12h-124l8 32l12 40l4 12l4 12l4 12l4 8l20 64l4 12l4 12l4 16l8 16l12 44l4 12l4 12l4 12l4 8q12 46 24 72l8 28l4 8q12 46 24 72q5 20 12 32l8 32l12 28l8 32l4 8q12 46 24 72l8 32l32 88l8 28l4 12l4 12 q12 38 24 64l8 24l4 12v12l4 12l28 72l4 24l8 20l8 16q8 38 20 64l4 20l4 12l4 8q12 46 24 72l4 16l4 16q11 23 16 44l12 40l4 12l32 92h28zM768 1394l-12 -44l-4 -8l-20 -72l-24 -68l-4 -8l-24 -88l-4 -16l-24 -68l-8 -20q-4 -32 -16 -56q-3 -23 -12 -44l-4 -16 q-8 -24 -16 -40l-24 -88h12h16h16h16h16h68h12h48h16h44h20h12h16h12h80l-8 32l-24 76l-20 68q-15 38 -20 64l-4 8q-8 29 -16 48l-4 16l-4 16l-8 20l-4 24l-4 16l-8 12l-4 24l-4 16q-6 12 -8 24l-4 16q-15 30 -20 56l-4 12l-4 8l-8 36l-4 12l-20 52zM861 2090l4 -16l8 -20 l4 -24l4 -16l8 -32l4 -8v-12q13 -31 16 -60l4 -12l8 -32q13 -31 16 -60h-20h-16h-20h-52h-16h-68h-32h-28h-52l-8 20l-8 12l-8 20q-14 32 -28 52q-14 38 -28 60l-4 8l-4 12l-8 12l-4 12l-4 8l-8 8l-4 12q-27 50 -36 84h56h52h16h72h16h16h16h68h12h48z" />
<glyph unicode="&#xc1;" d="M596 1746h52h124h56h12h20h12h16h12h80v-12q17 -36 24 -64l8 -28l4 -16q4 -6 4 -12q4 -6 4 -12q4 -6 4 -12q10 -16 12 -32l24 -64v-12q19 -37 24 -68q19 -44 24 -76q6 -12 8 -24l8 -16q6 -20 12 -32v-12q4 -6 4 -12q10 -16 12 -32l24 -64l4 -16l4 -8l8 -36l8 -16l8 -20 l4 -12l4 -16l8 -24q6 -20 12 -32v-12q4 -6 4 -12q10 -16 12 -32l24 -64l4 -24l12 -24l8 -24v-12l8 -12l4 -16l4 -20q31 -71 40 -120q4 -6 4 -12q31 -71 40 -120l8 -12l4 -16l4 -16l4 -12l4 -16q4 -6 4 -12q4 -6 4 -12q4 -6 4 -12l8 -12v-12q4 -6 4 -12q10 -16 12 -32 q13 -30 16 -48l8 -24h-24h-16h-72h-44h-16h-16h-16h-16h-68h-12h-48l-8 24v16l-8 12v12q-12 22 -12 40l-8 12v12l-4 16l-12 28l-28 100h-72h-80h-28h-24h-20h-24h-16h-72h-44h-16h-16h-16h-16h-68h-12h-48l-4 -20l-4 -20l-8 -16q-5 -22 -12 -40l-4 -20l-4 -8l-12 -40l-4 -16 l-4 -12q-7 -21 -12 -32l-12 -48h-16h-16h-12h-80h-12h-72h-12h-124l8 32l12 40l4 12l4 12l4 12l4 8l20 64l4 12l4 12l4 16l8 16l12 44l4 12l4 12l4 12l4 8q12 46 24 72l8 28l4 8q12 46 24 72q5 20 12 32l8 32l12 28l8 32l4 8q12 46 24 72l8 32l32 88l8 28l4 12l4 12 q12 38 24 64l8 24l4 12v12l4 12l28 72l4 24l8 20l8 16q8 38 20 64l4 20l4 12l4 8q12 46 24 72l4 16l4 16q11 23 16 44l12 40l4 12l32 92h28zM768 1394l-12 -44l-4 -8l-20 -72l-24 -68l-4 -8l-24 -88l-4 -16l-24 -68l-8 -20q-4 -32 -16 -56q-3 -23 -12 -44l-4 -16 q-8 -24 -16 -40l-24 -88h12h16h16h16h16h68h12h48h16h44h20h12h16h12h80l-8 32l-24 76l-20 68q-15 38 -20 64l-4 8q-8 29 -16 48l-4 16l-4 16l-8 20l-4 24l-4 16l-8 12l-4 24l-4 16q-6 12 -8 24l-4 16q-15 30 -20 56l-4 12l-4 8l-8 36l-4 12l-20 52zM694 2090l-4 -16l-8 -20 l-4 -24l-4 -16l-8 -32l-4 -8v-12q-13 -31 -16 -60l-4 -12l-8 -32q-13 -31 -16 -60h20h16h20h52h16h68h32h28h52l8 20l8 12l8 20q14 32 28 52q14 38 28 60l4 8l4 12l8 12l4 12l4 8l8 8l4 12q27 50 36 84h-56h-52h-16h-72h-16h-16h-16h-68h-12h-48z" />
<glyph unicode="&#xc2;" d="M596 1746h52h124h56h12h20h12h16h12h80v-12q17 -36 24 -64l8 -28l4 -16q4 -6 4 -12q4 -6 4 -12q4 -6 4 -12q10 -16 12 -32l24 -64v-12q19 -37 24 -68q19 -44 24 -76q6 -12 8 -24l8 -16q6 -20 12 -32v-12q4 -6 4 -12q10 -16 12 -32l24 -64l4 -16l4 -8l8 -36l8 -16l8 -20 l4 -12l4 -16l8 -24q6 -20 12 -32v-12q4 -6 4 -12q10 -16 12 -32l24 -64l4 -24l12 -24l8 -24v-12l8 -12l4 -16l4 -20q31 -71 40 -120q4 -6 4 -12q31 -71 40 -120l8 -12l4 -16l4 -16l4 -12l4 -16q4 -6 4 -12q4 -6 4 -12q4 -6 4 -12l8 -12v-12q4 -6 4 -12q10 -16 12 -32 q13 -30 16 -48l8 -24h-24h-16h-72h-44h-16h-16h-16h-16h-68h-12h-48l-8 24v16l-8 12v12q-12 22 -12 40l-8 12v12l-4 16l-12 28l-28 100h-72h-80h-28h-24h-20h-24h-16h-72h-44h-16h-16h-16h-16h-68h-12h-48l-4 -20l-4 -20l-8 -16q-5 -22 -12 -40l-4 -20l-4 -8l-12 -40l-4 -16 l-4 -12q-7 -21 -12 -32l-12 -48h-16h-16h-12h-80h-12h-72h-12h-124l8 32l12 40l4 12l4 12l4 12l4 8l20 64l4 12l4 12l4 16l8 16l12 44l4 12l4 12l4 12l4 8q12 46 24 72l8 28l4 8q12 46 24 72q5 20 12 32l8 32l12 28l8 32l4 8q12 46 24 72l8 32l32 88l8 28l4 12l4 12 q12 38 24 64l8 24l4 12v12l4 12l28 72l4 24l8 20l8 16q8 38 20 64l4 20l4 12l4 8q12 46 24 72l4 16l4 16q11 23 16 44l12 40l4 12l32 92h28zM768 1394l-12 -44l-4 -8l-20 -72l-24 -68l-4 -8l-24 -88l-4 -16l-24 -68l-8 -20q-4 -32 -16 -56q-3 -23 -12 -44l-4 -16 q-8 -24 -16 -40l-24 -88h12h16h16h16h16h68h12h48h16h44h20h12h16h12h80l-8 32l-24 76l-20 68q-15 38 -20 64l-4 8q-8 29 -16 48l-4 16l-4 16l-8 20l-4 24l-4 16l-8 12l-4 24l-4 16q-6 12 -8 24l-4 16q-15 30 -20 56l-4 12l-4 8l-8 36l-4 12l-20 52zM560 2090l-36 -52 l-8 -12l-8 -16l-24 -28q-10 -24 -24 -40q-15 -26 -28 -40l-8 -12l-8 -12l-4 -12l-8 -8q-4 -7 -8 -8l-8 -16l-24 -44h12h12h80h52h16h16h16h68h32h28q4 7 8 8q10 24 24 36q13 34 40 56l4 -12l8 -8l16 -28l8 -8l28 -44h28h16h20h16h20h16h20h52h16h68h32h28q-14 31 -28 52 l-12 12l-8 20l-12 12l-4 12q-7 4 -8 8l-24 32l-8 12l-4 12l-8 12l-8 8l-16 28l-8 8l-28 44q-19 25 -28 44h-68h-12h-48h-16h-72h-16h-16h-16h-68h-12h-48z" />
<glyph unicode="&#xc3;" d="M596 1746h52h124h56h12h20h12h16h12h80v-12q17 -36 24 -64l8 -28l4 -16q4 -6 4 -12q4 -6 4 -12q4 -6 4 -12q10 -16 12 -32l24 -64v-12q19 -37 24 -68q19 -44 24 -76q6 -12 8 -24l8 -16q6 -20 12 -32v-12q4 -6 4 -12q10 -16 12 -32l24 -64l4 -16l4 -8l8 -36l8 -16l8 -20 l4 -12l4 -16l8 -24q6 -20 12 -32v-12q4 -6 4 -12q10 -16 12 -32l24 -64l4 -24l12 -24l8 -24v-12l8 -12l4 -16l4 -20q31 -71 40 -120q4 -6 4 -12q31 -71 40 -120l8 -12l4 -16l4 -16l4 -12l4 -16q4 -6 4 -12q4 -6 4 -12q4 -6 4 -12l8 -12v-12q4 -6 4 -12q10 -16 12 -32 q13 -30 16 -48l8 -24h-24h-16h-72h-44h-16h-16h-16h-16h-68h-12h-48l-8 24v16l-8 12v12q-12 22 -12 40l-8 12v12l-4 16l-12 28l-28 100h-72h-80h-28h-24h-20h-24h-16h-72h-44h-16h-16h-16h-16h-68h-12h-48l-4 -20l-4 -20l-8 -16q-5 -22 -12 -40l-4 -20l-4 -8l-12 -40l-4 -16 l-4 -12q-7 -21 -12 -32l-12 -48h-16h-16h-12h-80h-12h-72h-12h-124l8 32l12 40l4 12l4 12l4 12l4 8l20 64l4 12l4 12l4 16l8 16l12 44l4 12l4 12l4 12l4 8q12 46 24 72l8 28l4 8q12 46 24 72q5 20 12 32l8 32l12 28l8 32l4 8q12 46 24 72l8 32l32 88l8 28l4 12l4 12 q12 38 24 64l8 24l4 12v12l4 12l28 72l4 24l8 20l8 16q8 38 20 64l4 20l4 12l4 8q12 46 24 72l4 16l4 16q11 23 16 44l12 40l4 12l32 92h28zM768 1394l-12 -44l-4 -8l-20 -72l-24 -68l-4 -8l-24 -88l-4 -16l-24 -68l-8 -20q-4 -32 -16 -56q-3 -23 -12 -44l-4 -16 q-8 -24 -16 -40l-24 -88h12h16h16h16h16h68h12h48h16h44h20h12h16h12h80l-8 32l-24 76l-20 68q-15 38 -20 64l-4 8q-8 29 -16 48l-4 16l-4 16l-8 20l-4 24l-4 16l-8 12l-4 24l-4 16q-6 12 -8 24l-4 16q-15 30 -20 56l-4 12l-4 8l-8 36l-4 12l-20 52zM766 2071h-14 q-43 16 -77 20q-90 0 -155 -28l-5 -8l-50 -32v-232q154 124 365 12q158 -38 269 52v12v52v16v44v28v12v12q2 37 -5 64q-139 -134 -328 -24z" />
<glyph unicode="&#xc4;" d="M596 1746h52h124h56h12h20h12h16h12h80v-12q17 -36 24 -64l8 -28l4 -16q4 -6 4 -12q4 -6 4 -12q4 -6 4 -12q10 -16 12 -32l24 -64v-12q19 -37 24 -68q19 -44 24 -76q6 -12 8 -24l8 -16q6 -20 12 -32v-12q4 -6 4 -12q10 -16 12 -32l24 -64l4 -16l4 -8l8 -36l8 -16l8 -20 l4 -12l4 -16l8 -24q6 -20 12 -32v-12q4 -6 4 -12q10 -16 12 -32l24 -64l4 -24l12 -24l8 -24v-12l8 -12l4 -16l4 -20q31 -71 40 -120q4 -6 4 -12q31 -71 40 -120l8 -12l4 -16l4 -16l4 -12l4 -16q4 -6 4 -12q4 -6 4 -12q4 -6 4 -12l8 -12v-12q4 -6 4 -12q10 -16 12 -32 q13 -30 16 -48l8 -24h-24h-16h-72h-44h-16h-16h-16h-16h-68h-12h-48l-8 24v16l-8 12v12q-12 22 -12 40l-8 12v12l-4 16l-12 28l-28 100h-72h-80h-28h-24h-20h-24h-16h-72h-44h-16h-16h-16h-16h-68h-12h-48l-4 -20l-4 -20l-8 -16q-5 -22 -12 -40l-4 -20l-4 -8l-12 -40l-4 -16 l-4 -12q-7 -21 -12 -32l-12 -48h-16h-16h-12h-80h-12h-72h-12h-124l8 32l12 40l4 12l4 12l4 12l4 8l20 64l4 12l4 12l4 16l8 16l12 44l4 12l4 12l4 12l4 8q12 46 24 72l8 28l4 8q12 46 24 72q5 20 12 32l8 32l12 28l8 32l4 8q12 46 24 72l8 32l32 88l8 28l4 12l4 12 q12 38 24 64l8 24l4 12v12l4 12l28 72l4 24l8 20l8 16q8 38 20 64l4 20l4 12l4 8q12 46 24 72l4 16l4 16q11 23 16 44l12 40l4 12l32 92h28zM768 1394l-12 -44l-4 -8l-20 -72l-24 -68l-4 -8l-24 -88l-4 -16l-24 -68l-8 -20q-4 -32 -16 -56q-3 -23 -12 -44l-4 -16 q-8 -24 -16 -40l-24 -88h12h16h16h16h16h68h12h48h16h44h20h12h16h12h80l-8 32l-24 76l-20 68q-15 38 -20 64l-4 8q-8 29 -16 48l-4 16l-4 16l-8 20l-4 24l-4 16l-8 12l-4 24l-4 16q-6 12 -8 24l-4 16q-15 30 -20 56l-4 12l-4 8l-8 36l-4 12l-20 52zM661 1998 q3 -113 -76 -176q-181 -72 -256 88q-40 180 128 232q165 3 204 -144zM1201 1998q3 -113 -76 -176q-181 -72 -256 88q-40 180 128 232q165 3 204 -144z" />
<glyph unicode="&#xc5;" d="M596 1746h52h124h56h12h20h12h16h12h80v-12q17 -36 24 -64l8 -28l4 -16q4 -6 4 -12q4 -6 4 -12q4 -6 4 -12q10 -16 12 -32l24 -64v-12q19 -37 24 -68q19 -44 24 -76q6 -12 8 -24l8 -16q6 -20 12 -32v-12q4 -6 4 -12q10 -16 12 -32l24 -64l4 -16l4 -8l8 -36l8 -16l8 -20 l4 -12l4 -16l8 -24q6 -20 12 -32v-12q4 -6 4 -12q10 -16 12 -32l24 -64l4 -24l12 -24l8 -24v-12l8 -12l4 -16l4 -20q31 -71 40 -120q4 -6 4 -12q31 -71 40 -120l8 -12l4 -16l4 -16l4 -12l4 -16q4 -6 4 -12q4 -6 4 -12q4 -6 4 -12l8 -12v-12q4 -6 4 -12q10 -16 12 -32 q13 -30 16 -48l8 -24h-24h-16h-72h-44h-16h-16h-16h-16h-68h-12h-48l-8 24v16l-8 12v12q-12 22 -12 40l-8 12v12l-4 16l-12 28l-28 100h-72h-80h-28h-24h-20h-24h-16h-72h-44h-16h-16h-16h-16h-68h-12h-48l-4 -20l-4 -20l-8 -16q-5 -22 -12 -40l-4 -20l-4 -8l-12 -40l-4 -16 l-4 -12q-7 -21 -12 -32l-12 -48h-16h-16h-12h-80h-12h-72h-12h-124l8 32l12 40l4 12l4 12l4 12l4 8l20 64l4 12l4 12l4 16l8 16l12 44l4 12l4 12l4 12l4 8q12 46 24 72l8 28l4 8q12 46 24 72q5 20 12 32l8 32l12 28l8 32l4 8q12 46 24 72l8 32l32 88l8 28l4 12l4 12 q12 38 24 64l8 24l4 12v12l4 12l28 72l4 24l8 20l8 16q8 38 20 64l4 20l4 12l4 8q12 46 24 72l4 16l4 16q11 23 16 44l12 40l4 12l32 92h28zM768 1394l-12 -44l-4 -8l-20 -72l-24 -68l-4 -8l-24 -88l-4 -16l-24 -68l-8 -20q-4 -32 -16 -56q-3 -23 -12 -44l-4 -16 q-8 -24 -16 -40l-24 -88h12h16h16h16h16h68h12h48h16h44h20h12h16h12h80l-8 32l-24 76l-20 68q-15 38 -20 64l-4 8q-8 29 -16 48l-4 16l-4 16l-8 20l-4 24l-4 16l-8 12l-4 24l-4 16q-6 12 -8 24l-4 16q-15 30 -20 56l-4 12l-4 8l-8 36l-4 12l-20 52zM588 2036 q-18 -134 78 -212l22 -12l9 -4l41 -15q278 -12 247 259q-69 166 -241 144q-132 -37 -156 -160zM891 2024q21 -109 -69 -150q-129 -23 -146 103q-6 121 99 144q103 -4 116 -97z" />
<glyph unicode="&#xc6;" horiz-adv-x="2232" d="M996 1746h16h68h12h48h80h16h72h12h12h124h68h12h48h16h12h80h16h12h72h52h16h68h12h48v-304h-28h-12h-12h-52h-24h-12h-52h-24h-28h-24h-20h-24h-16h-72h-44h-16h-16h-16h-16h-12h-16h-12h-16h-72h-52v-308h68h32h28h24h52h16h68h12h48h44h20h52h16h12h16h12h16h72 l16 -8v-276h-56h-12h-20h-12h-16h-12h-80h-52h-28h-56h-12h-72h-52h-16h-68h-12h-48v-332h36h32h12h12h124h68h32h28h16h12h80h16h12h72h52h16h68h12h48v-304h-12h-16h-68h-12h-48h-80h-32h-32h-32h-32h-80h-12h-12h-124h-28h-24h-28h-24h-20h-24h-16h-72h-44h-16h-16h-16 h-16h-68h-12h-48v16v68v44v16v68v12v48h-28h-24h-20h-24h-16h-72h-44h-16h-16h-16h-16h-68h-12h-48l-8 -16q-16 -27 -32 -44l-4 -12l-8 -12l-8 -16l-12 -12l-4 -12l-8 -12l-8 -8l-8 -12l-16 -28q-4 -7 -8 -8l-4 -8l-4 -12l-40 -60h-52h-16h-72h-44h-16h-16h-16h-16h-68h-12 h-48l16 28l16 28q35 50 52 84l16 24l20 24l4 12l8 8l4 12q18 25 28 44l16 28l16 24l8 8q7 16 20 28q11 27 24 44l8 8q21 44 44 68l8 16l8 12q12 23 24 40q15 26 28 40l4 12l4 8l8 8l4 8l4 8l4 8q27 36 40 60l8 8q17 42 44 68q6 17 12 28l16 16q7 16 16 28l8 12l8 16 q15 27 28 40q13 28 28 44q21 44 44 68l12 28l8 4q18 39 40 64l8 20l8 4q14 32 32 52l8 20l16 20l8 16l32 44l8 16l20 36l12 12l8 16l12 16l8 12l4 12l4 8l16 24l8 4q26 53 48 84h12zM944 1082l-12 -16l-16 -24l-8 -16l-12 -16l-12 -20l-8 -16l-12 -12l-8 -12l-8 -20l-12 -12 l-8 -16q-4 -7 -8 -8l-4 -12l-8 -8l-4 -12l-8 -12l-8 -8l-4 -12l-16 -24l-32 -48h16h16h12h20h20h12h48h12q54 -3 92 4v52v124v56v48v12q3 54 -4 92z" />
<glyph unicode="&#xc7;" horiz-adv-x="1640" d="M1532 1302l-16 -12l-68 -24l-16 -8l-16 -4q-29 -17 -52 -24l-20 -4l-8 -8h-12l-8 -8h-12l-8 -8h-12l-8 -8l-16 -4l-44 -16q-100 363 -464 292q-282 -109 -276 -420q-37 -323 156 -488q159 -108 332 -56q218 71 248 284q38 -7 64 -24q41 -11 68 -24l16 -8l24 -8l12 -4 l28 -12l16 -4l12 -8q20 -5 32 -12l48 -16q-160 -444 -596 -480q-441 -32 -668 300q-242 427 -72 844q172 397 568 448q583 30 768 -476zM670 140l-4 -16l-8 -20l-4 -24l-4 -16l-8 -32l-4 -8v-12q-13 -31 -16 -60l-4 -12l-8 -32q-13 -31 -16 -60h20h16h20h52h16h68h32h28h52 l8 20l8 12l8 20q14 32 28 52q14 38 28 60l4 8l4 12l8 12l4 12l4 8l8 8l4 12q27 50 36 84h-56h-52h-16h-72h-16h-16h-16h-68h-12h-48z" />
<glyph unicode="&#xc8;" horiz-adv-x="1476" d="M252 1746h16h68h12h48h80h16h72h12h12h124h68h32h28h16h12h80h16h12h72h52h16h68h12h48v-304h-80h-24h-68h-12h-48h-52h-16h-68h-12h-48h-44h-20h-52h-16h-68h-12h-48v-308h12h80h52h16h72h16h16h16h68h32h28h20h52h16h68h12h48v-284h-56h-12h-20h-12h-16h-12h-80h-52 h-28h-56h-12h-72h-52h-16h-68h-12h-48v-320q8 -17 28 -12h32h80h24h68h12h48h52h16h68h12h48h44h20h52h16h68h12h48v-304h-12h-16h-68h-12h-48h-80h-32h-32h-32h-32h-80h-12h-12h-124h-28h-24h-28h-24h-20h-24h-16h-72h-44h-16h-16h-16h-16h-68h-12h-48v16v72v32v32v12v16 v72v12v80v32v16v72v12v12v124v28v12v16v72v56v12v20v12v16v12v80v68v12v48v52v16v68v12v48v44v20v52v16v68v12v48h12zM857 2090l4 -16l8 -20l4 -24l4 -16l8 -32l4 -8v-12q13 -31 16 -60l4 -12l8 -32q13 -31 16 -60h-20h-16h-20h-52h-16h-68h-32h-28h-52l-8 20l-8 12l-8 20 q-14 32 -28 52q-14 38 -28 60l-4 8l-4 12l-8 12l-4 12l-4 8l-8 8l-4 12q-27 50 -36 84h56h52h16h72h16h16h16h68h12h48z" />
<glyph unicode="&#xc9;" horiz-adv-x="1476" d="M252 1746h16h68h12h48h80h16h72h12h12h124h68h32h28h16h12h80h16h12h72h52h16h68h12h48v-304h-80h-24h-68h-12h-48h-52h-16h-68h-12h-48h-44h-20h-52h-16h-68h-12h-48v-308h12h80h52h16h72h16h16h16h68h32h28h20h52h16h68h12h48v-284h-56h-12h-20h-12h-16h-12h-80h-52 h-28h-56h-12h-72h-52h-16h-68h-12h-48v-320q8 -17 28 -12h32h80h24h68h12h48h52h16h68h12h48h44h20h52h16h68h12h48v-304h-12h-16h-68h-12h-48h-80h-32h-32h-32h-32h-80h-12h-12h-124h-28h-24h-28h-24h-20h-24h-16h-72h-44h-16h-16h-16h-16h-68h-12h-48v16v72v32v32v12v16 v72v12v80v32v16v72v12v12v124v28v12v16v72v56v12v20v12v16v12v80v68v12v48v52v16v68v12v48v44v20v52v16v68v12v48h12zM643 2090l-4 -16l-8 -20l-4 -24l-4 -16l-8 -32l-4 -8v-12q-13 -31 -16 -60l-4 -12l-8 -32q-13 -31 -16 -60h20h16h20h52h16h68h32h28h52l8 20l8 12l8 20 q14 32 28 52q14 38 28 60l4 8l4 12l8 12l4 12l4 8l8 8l4 12q27 50 36 84h-56h-52h-16h-72h-16h-16h-16h-68h-12h-48z" />
<glyph unicode="&#xca;" horiz-adv-x="1476" d="M252 1746h16h68h12h48h80h16h72h12h12h124h68h32h28h16h12h80h16h12h72h52h16h68h12h48v-304h-80h-24h-68h-12h-48h-52h-16h-68h-12h-48h-44h-20h-52h-16h-68h-12h-48v-308h12h80h52h16h72h16h16h16h68h32h28h20h52h16h68h12h48v-284h-56h-12h-20h-12h-16h-12h-80h-52 h-28h-56h-12h-72h-52h-16h-68h-12h-48v-320q8 -17 28 -12h32h80h24h68h12h48h52h16h68h12h48h44h20h52h16h68h12h48v-304h-12h-16h-68h-12h-48h-80h-32h-32h-32h-32h-80h-12h-12h-124h-28h-24h-28h-24h-20h-24h-16h-72h-44h-16h-16h-16h-16h-68h-12h-48v16v72v32v32v12v16 v72v12v80v32v16v72v12v12v124v28v12v16v72v56v12v20v12v16v12v80v68v12v48v52v16v68v12v48v44v20v52v16v68v12v48h12zM539 2097l-36 -52l-8 -12l-8 -16l-24 -28q-10 -24 -24 -40q-15 -26 -28 -40l-8 -12l-8 -12l-4 -12l-8 -8q-4 -7 -8 -8l-8 -16l-24 -44h12h12h80h52h16h16 h16h68h32h28q4 7 8 8q10 24 24 36q13 34 40 56l4 -12l8 -8l16 -28l8 -8l28 -44h28h16h20h16h20h16h20h52h16h68h32h28q-14 31 -28 52l-12 12l-8 20l-12 12l-4 12q-7 4 -8 8l-24 32l-8 12l-4 12l-8 12l-8 8l-16 28l-8 8l-28 44q-19 25 -28 44h-68h-12h-48h-16h-72h-16h-16 h-16h-68h-12h-48z" />
<glyph unicode="&#xcb;" horiz-adv-x="1476" d="M252 1746h16h68h12h48h80h16h72h12h12h124h68h32h28h16h12h80h16h12h72h52h16h68h12h48v-304h-80h-24h-68h-12h-48h-52h-16h-68h-12h-48h-44h-20h-52h-16h-68h-12h-48v-308h12h80h52h16h72h16h16h16h68h32h28h20h52h16h68h12h48v-284h-56h-12h-20h-12h-16h-12h-80h-52 h-28h-56h-12h-72h-52h-16h-68h-12h-48v-320q8 -17 28 -12h32h80h24h68h12h48h52h16h68h12h48h44h20h52h16h68h12h48v-304h-12h-16h-68h-12h-48h-80h-32h-32h-32h-32h-80h-12h-12h-124h-28h-24h-28h-24h-20h-24h-16h-72h-44h-16h-16h-16h-16h-68h-12h-48v16v72v32v32v12v16 v72v12v80v32v16v72v12v12v124v28v12v16v72v56v12v20v12v16v12v80v68v12v48v52v16v68v12v48v44v20v52v16v68v12v48h12zM630 1995q3 -113 -76 -176q-181 -72 -256 88q-40 180 128 232q165 3 204 -144zM1170 1995q3 -113 -76 -176q-181 -72 -256 88q-40 180 128 232 q165 3 204 -144z" />
<glyph unicode="&#xcc;" horiz-adv-x="797" d="M292 1742h16h72h16h16h16h68h12h48v-1528h-52h-16h-72h-16h-16h-16h-68h-12h-48v12v16v12v16v72v32v32v12v80v16v20v16v20v52v16v68v12v48v16v20v52v16v68v12v48v28v32v32v32v12v12v124v28v24v28v24v20v24v16v72v44v16v16v16v16v68v12v48h52zM481 2087l4 -16l8 -20l4 -24 l4 -16l8 -32l4 -8v-12q13 -31 16 -60l4 -12l8 -32q13 -31 16 -60h-20h-16h-20h-52h-16h-68h-32h-28h-52l-8 20l-8 12l-8 20q-14 32 -28 52q-14 38 -28 60l-4 8l-4 12l-8 12l-4 12l-4 8l-8 8l-4 12q-27 50 -36 84h56h52h16h72h16h16h16h68h12h48z" />
<glyph unicode="&#xcd;" horiz-adv-x="788" d="M292 1742h16h72h16h16h16h68h12h48v-1528h-52h-16h-72h-16h-16h-16h-68h-12h-48v12v16v12v16v72v32v32v12v80v16v20v16v20v52v16v68v12v48v16v20v52v16v68v12v48v28v32v32v32v12v12v124v28v24v28v24v20v24v16v72v44v16v16v16v16v68v12v48h52zM324 2090l-4 -16l-8 -20 l-4 -24l-4 -16l-8 -32l-4 -8v-12q-13 -31 -16 -60l-4 -12l-8 -32q-13 -31 -16 -60h20h16h20h52h16h68h32h28h52l8 20l8 12l8 20q14 32 28 52q14 38 28 60l4 8l4 12l8 12l4 12l4 8l8 8l4 12q27 50 36 84h-56h-52h-16h-72h-16h-16h-16h-68h-12h-48z" />
<glyph unicode="&#xce;" horiz-adv-x="801" d="M292 1742h16h72h16h16h16h68h12h48v-1528h-52h-16h-72h-16h-16h-16h-68h-12h-48v12v16v12v16v72v32v32v12v80v16v20v16v20v52v16v68v12v48v16v20v52v16v68v12v48v28v32v32v32v12v12v124v28v24v28v24v20v24v16v72v44v16v16v16v16v68v12v48h52zM200 2097l-36 -52l-8 -12 l-8 -16l-24 -28q-10 -24 -24 -40q-15 -26 -28 -40l-8 -12l-8 -12l-4 -12l-8 -8q-4 -7 -8 -8l-8 -16l-24 -44h12h12h80h52h16h16h16h68h32h28q4 7 8 8q10 24 24 36q13 34 40 56l4 -12l8 -8l16 -28l8 -8l28 -44h28h16h20h16h20h16h20h52h16h68h32h28q-14 31 -28 52l-12 12 l-8 20l-12 12l-4 12q-7 4 -8 8l-24 32l-8 12l-4 12l-8 12l-8 8l-16 28l-8 8l-28 44q-19 25 -28 44h-68h-12h-48h-16h-72h-16h-16h-16h-68h-12h-48z" />
<glyph unicode="&#xcf;" horiz-adv-x="838" d="M292 1742h16h72h16h16h16h68h12h48v-1528h-52h-16h-72h-16h-16h-16h-68h-12h-48v12v16v12v16v72v32v32v12v80v16v20v16v20v52v16v68v12v48v16v20v52v16v68v12v48v28v32v32v32v12v12v124v28v24v28v24v20v24v16v72v44v16v16v16v16v68v12v48h52zM297 1992q3 -113 -76 -176 q-181 -72 -256 88q-40 180 128 232q165 3 204 -144zM837 1992q3 -113 -76 -176q-181 -72 -256 88q-40 180 128 232q165 3 204 -144z" />
<glyph unicode="&#xd0;" horiz-adv-x="1632" d="M264 1746h20h16h20h16h20h52h16h68h12h48h16h16h52h16h16h40h44h12h44h32h20l12 -4h16h16l8 -4l64 -8q609 -201 528 -884q-122 -708 -952 -632h-16h-20h-16h-20h-16h-20h-52h-16h-68h-12h-48v16v72v32v32v12v16v72v12v80v32v16v72v12v12v124v28v12v16v72v56v12v20v12v16 v12v80v68v12v48v52v16v68v12v48v44v20v52v16v68v12v48h16zM560 526h56h12h32h12h12h52h16h12h80l28 4q37 4 64 16l24 4q264 147 236 460q-39 464 -488 424h-12h-12h-124v-908zM766 861v279h-707v-279h707zM596 861v279h-350v-279h350z" />
<glyph unicode="&#xd1;" horiz-adv-x="1824" d="M260 1750h56h20h16h72h16h16h16h68h12h48l16 -28l16 -24l16 -24l16 -24l16 -24l12 -12l4 -12q5 -4 4 -8q29 -31 40 -60q29 -31 40 -60l16 -20l16 -24q11 -18 20 -28l4 -12q15 -16 20 -32q40 -45 56 -84l16 -24q5 -4 4 -8q30 -34 44 -60l16 -24l12 -24l16 -24l16 -16 l12 -20l8 -20q26 -26 36 -52l12 -16l8 -16l12 -12q19 -28 28 -48l12 -12l8 -12l4 -12l8 -4q13 -29 28 -44l4 -12q5 -4 4 -8q37 -41 52 -76l4 28v28v32v16v72v44v16v16v16v16v68v12v48v24v68v12v48v52v16v68v12v48v44v20v52v16v68v12v48h52h16h72h16h16h16h68h12h48v-1528 h-12h-48h-40h-28h-24h-20h-16h-16h-16h-12h-12h-12h-8h8h-8h-32h-12h-52l-4 8q-14 18 -20 32q-5 4 -4 8q-37 41 -52 76q-5 4 -4 8l-16 24q-21 24 -32 48l-20 24l-16 28l-16 28q-27 30 -40 56l-8 8q-16 35 -36 56l-4 8l-8 12l-36 56q-14 18 -20 32q-5 4 -4 8l-8 4l-16 28 l-4 8q-14 18 -20 32q-9 10 -12 20l-16 16l-16 24l-8 20l-8 4l-16 28l-36 52l-8 16l-8 16l-12 12l-8 12l-4 12q-20 22 -32 40l-8 16q-17 23 -24 40q-7 4 -8 8l-8 8l-4 8l-16 28l-36 52v-1024h-52h-16h-72h-16h-16h-16h-68h-12h-48v12v16v12v16v72v32v32v12v80v16v20v16v20v52 v16v68v12v48v16v20v52v16v68v12v48v28v32v32v32v12v12v124v28v24v28v24v20v24v16v72v44v16v16v16v16v68v12v48h20zM924 2078h-14q-43 16 -77 20q-90 0 -155 -28l-5 -8l-50 -32v-232q154 124 365 12q158 -38 269 52v12v52v16v44v28v12v12q2 37 -5 64q-139 -134 -328 -24z" />
<glyph unicode="&#xd2;" horiz-adv-x="1712" d="M1588 1090q43 -620 -436 -848q-463 -168 -788 132q-346 390 -192 896q168 481 640 516q679 -5 776 -696zM468 922q15 -288 236 -408h12q19 -11 36 -12l8 -4l48 -12q422 4 440 432q37 550 -428 564q-384 -73 -352 -560zM945 2094l4 -16l8 -20l4 -24l4 -16l8 -32l4 -8v-12 q13 -31 16 -60l4 -12l8 -32q13 -31 16 -60h-20h-16h-20h-52h-16h-68h-32h-28h-52l-8 20l-8 12l-8 20q-14 32 -28 52q-14 38 -28 60l-4 8l-4 12l-8 12l-4 12l-4 8l-8 8l-4 12q-27 50 -36 84h56h52h16h72h16h16h16h68h12h48z" />
<glyph unicode="&#xd3;" horiz-adv-x="1712" d="M1588 1090q43 -620 -436 -848q-463 -168 -788 132q-346 390 -192 896q168 481 640 516q679 -5 776 -696zM468 922q15 -288 236 -408h12q19 -11 36 -12l8 -4l48 -12q422 4 440 432q37 550 -428 564q-384 -73 -352 -560zM763 2090l-4 -16l-8 -20l-4 -24l-4 -16l-8 -32 l-4 -8v-12q-13 -31 -16 -60l-4 -12l-8 -32q-13 -31 -16 -60h20h16h20h52h16h68h32h28h52l8 20l8 12l8 20q14 32 28 52q14 38 28 60l4 8l4 12l8 12l4 12l4 8l8 8l4 12q27 50 36 84h-56h-52h-16h-72h-16h-16h-16h-68h-12h-48z" />
<glyph unicode="&#xd4;" horiz-adv-x="1712" d="M1588 1090q43 -620 -436 -848q-463 -168 -788 132q-346 390 -192 896q168 481 640 516q679 -5 776 -696zM468 922q15 -288 236 -408h12q19 -11 36 -12l8 -4l48 -12q422 4 440 432q37 550 -428 564q-384 -73 -352 -560zM639 2097l-36 -52l-8 -12l-8 -16l-24 -28 q-10 -24 -24 -40q-15 -26 -28 -40l-8 -12l-8 -12l-4 -12l-8 -8q-4 -7 -8 -8l-8 -16l-24 -44h12h12h80h52h16h16h16h68h32h28q4 7 8 8q10 24 24 36q13 34 40 56l4 -12l8 -8l16 -28l8 -8l28 -44h28h16h20h16h20h16h20h52h16h68h32h28q-14 31 -28 52l-12 12l-8 20l-12 12l-4 12 q-7 4 -8 8l-24 32l-8 12l-4 12l-8 12l-8 8l-16 28l-8 8l-28 44q-19 25 -28 44h-68h-12h-48h-16h-72h-16h-16h-16h-68h-12h-48z" />
<glyph unicode="&#xd5;" horiz-adv-x="1712" d="M1588 1090q43 -620 -436 -848q-463 -168 -788 132q-346 390 -192 896q168 481 640 516q679 -5 776 -696zM468 922q15 -288 236 -408h12q19 -11 36 -12l8 -4l48 -12q422 4 440 432q37 550 -428 564q-384 -73 -352 -560zM874 2078h-14q-43 16 -77 20q-90 0 -155 -28l-5 -8 l-50 -32v-232q154 124 365 12q158 -38 269 52v12v52v16v44v28v12v12q2 37 -5 64q-139 -134 -328 -24z" />
<glyph unicode="&#xd6;" horiz-adv-x="1712" d="M1588 1090q43 -620 -436 -848q-463 -168 -788 132q-346 390 -192 896q168 481 640 516q679 -5 776 -696zM468 922q15 -288 236 -408h12q19 -11 36 -12l8 -4l48 -12q422 4 440 432q37 550 -428 564q-384 -73 -352 -560zM754 1998q3 -113 -76 -176q-181 -72 -256 88 q-40 180 128 232q165 3 204 -144zM1294 1998q3 -113 -76 -176q-181 -72 -256 88q-40 180 128 232q165 3 204 -144z" />
<glyph unicode="&#xd7;" horiz-adv-x="636" />
<glyph unicode="&#xd8;" horiz-adv-x="1712" d="M1588 1090q43 -620 -436 -848q-463 -168 -788 132q-346 390 -192 896q168 481 640 516q679 -5 776 -696zM468 922q15 -288 236 -408h12q19 -11 36 -12l8 -4l48 -12q422 4 440 432q37 550 -428 564q-384 -73 -352 -560zM1519 1874l-92 -158l-47 -83l-21 -32l-15 -25 l-8 -14l-6 -7q-18 -34 -36 -56l-9 -19l-10 -22l-34 -49q-3 -9 -8 -14q-8 -21 -23 -39l-8 -15l-7 -10l-7 -11l-9 -18l-14 -21l-7 -11l-10 -22l-28 -42l-16 -29l-16 -29l-7 -11l-27 -42l-15 -25l-6 -6q-17 -40 -38 -65l-7 -10l-10 -22l-23 -40l-13 -17l-8 -15l-24 -43l-8 -14 l-50 -78l-10 -22l-7 -11l-7 -10l-6 -7l-32 -58l-16 -28l-6 -7l-14 -21l-24 -44l-22 -35l-21 -32l-14 -21l-63 -111l-8 -15l-8 -14l-13 -17l-9 -19l-13 -17l-9 -18l-7 -11l-9 -18l-7 -11l-8 -14l-7 -11l-6 -6l-13 -21l-7 -11l-11 -22l-27 -42l-283 -1l92 155l8 15l7 10l7 11 l15 25l8 14l6 7l32 58l16 28l15 25l13 18l8 14l7 11l9 18l7 10l9 19l7 10l7 11l6 6q16 32 30 50l7 11l40 72l19 24l16 29l40 72l15 25l7 11l5 6l38 65l15 25l15 25l16 28l13 18l3 11l7 11l6 6q16 32 30 50l9 19l8 14l7 11l7 10l15 25l8 15l6 6q18 35 36 57l3 12l6 6l38 65 l14 21l3 11l6 7l14 21l7 11l3 11l7 11l28 42l8 14l16 29l6 7l7 11l40 72l14 21l9 18l15 25l12 13l3 12q20 28 30 50l7 10l7 11l7 11l15 25l8 14l6 7l32 57z" />
<glyph unicode="&#xd9;" horiz-adv-x="1704" d="M240 1738h20h16h68h44h16h68h32h28l4 -964l24 -88q101 -177 284 -188q197 15 288 172v12q30 61 32 120q6 46 4 80v32v32v56v12v20v12v16v12v80v68v12v48v52v16v68v12v48v44v20v52v16v68v12v48h16h16h12h72h52h16h68h12h48v-984q-4 -19 -4 -32l-4 -8q-5 -53 -16 -88 q-92 -251 -300 -364q-256 -134 -504 -48q-499 190 -436 800v56v44v20v12v16v12v80v24v28v24v28v52v124v56v12v20v12v16v12v80zM941 2086l4 -16l8 -20l4 -24l4 -16l8 -32l4 -8v-12q13 -31 16 -60l4 -12l8 -32q13 -31 16 -60h-20h-16h-20h-52h-16h-68h-32h-28h-52l-8 20l-8 12 l-8 20q-14 32 -28 52q-14 38 -28 60l-4 8l-4 12l-8 12l-4 12l-4 8l-8 8l-4 12q-27 50 -36 84h56h52h16h72h16h16h16h68h12h48z" />
<glyph unicode="&#xda;" horiz-adv-x="1704" d="M240 1738h20h16h68h44h16h68h32h28l4 -964l24 -88q101 -177 284 -188q197 15 288 172v12q30 61 32 120q6 46 4 80v32v32v56v12v20v12v16v12v80v68v12v48v52v16v68v12v48v44v20v52v16v68v12v48h16h16h12h72h52h16h68h12h48v-984q-4 -19 -4 -32l-4 -8q-5 -53 -16 -88 q-92 -251 -300 -364q-256 -134 -504 -48q-499 190 -436 800v56v44v20v12v16v12v80v24v28v24v28v52v124v56v12v20v12v16v12v80zM763 2090l-4 -16l-8 -20l-4 -24l-4 -16l-8 -32l-4 -8v-12q-13 -31 -16 -60l-4 -12l-8 -32q-13 -31 -16 -60h20h16h20h52h16h68h32h28h52l8 20 l8 12l8 20q14 32 28 52q14 38 28 60l4 8l4 12l8 12l4 12l4 8l8 8l4 12q27 50 36 84h-56h-52h-16h-72h-16h-16h-16h-68h-12h-48z" />
<glyph unicode="&#xdb;" horiz-adv-x="1704" d="M240 1738h20h16h68h44h16h68h32h28l4 -964l24 -88q101 -177 284 -188q197 15 288 172v12q30 61 32 120q6 46 4 80v32v32v56v12v20v12v16v12v80v68v12v48v52v16v68v12v48v44v20v52v16v68v12v48h16h16h12h72h52h16h68h12h48v-984q-4 -19 -4 -32l-4 -8q-5 -53 -16 -88 q-92 -251 -300 -364q-256 -134 -504 -48q-499 190 -436 800v56v44v20v12v16v12v80v24v28v24v28v52v124v56v12v20v12v16v12v80zM653 2097l-36 -52l-8 -12l-8 -16l-24 -28q-10 -24 -24 -40q-15 -26 -28 -40l-8 -12l-8 -12l-4 -12l-8 -8q-4 -7 -8 -8l-8 -16l-24 -44h12h12h80 h52h16h16h16h68h32h28q4 7 8 8q10 24 24 36q13 34 40 56l4 -12l8 -8l16 -28l8 -8l28 -44h28h16h20h16h20h16h20h52h16h68h32h28q-14 31 -28 52l-12 12l-8 20l-12 12l-4 12q-7 4 -8 8l-24 32l-8 12l-4 12l-8 12l-8 8l-16 28l-8 8l-28 44q-19 25 -28 44h-68h-12h-48h-16h-72 h-16h-16h-16h-68h-12h-48z" />
<glyph unicode="&#xdc;" horiz-adv-x="1704" d="M240 1738h20h16h68h44h16h68h32h28l4 -964l24 -88q101 -177 284 -188q197 15 288 172v12q30 61 32 120q6 46 4 80v32v32v56v12v20v12v16v12v80v68v12v48v52v16v68v12v48v44v20v52v16v68v12v48h16h16h12h72h52h16h68h12h48v-984q-4 -19 -4 -32l-4 -8q-5 -53 -16 -88 q-92 -251 -300 -364q-256 -134 -504 -48q-499 190 -436 800v56v44v20v12v16v12v80v24v28v24v28v52v124v56v12v20v12v16v12v80zM754 1998q3 -113 -76 -176q-181 -72 -256 88q-40 180 128 232q165 3 204 -144zM1294 1998q3 -113 -76 -176q-181 -72 -256 88q-40 180 128 232 q165 3 204 -144z" />
<glyph unicode="&#xdd;" horiz-adv-x="1392" d="M48 1742h56h20h16h72h16h16h16h68h32h28l8 -12l16 -28l40 -72l12 -24l12 -20l8 -20l8 -8l4 -12q5 -4 4 -8q25 -35 36 -64q18 -24 24 -44l12 -16l4 -12l12 -16l4 -12l12 -16l8 -16l8 -12l4 -12l12 -16l4 -8l8 -24q7 -4 8 -8q22 -46 44 -72l12 28l40 68l12 24l12 20l12 24 l32 56l16 24l8 24l8 8l4 8l4 12q18 26 28 48l8 16l12 16l8 16l4 12l12 16l8 12l4 12l8 12l4 12l8 12l40 72h28h56h12h72h52h16h68h12h48l-36 -64l-8 -12l-8 -20l-8 -12l-8 -12l-4 -12l-8 -12l-4 -12l-8 -4q-11 -33 -28 -56l-4 -8l-40 -72l-4 -8l-4 -8l-44 -72l-12 -28l-4 -8 q-12 -20 -16 -32q-13 -16 -16 -28l-12 -20l-32 -56l-4 -8l-4 -8l-4 -8l-8 -8q-15 -39 -36 -64l-8 -16l-8 -16l-8 -20l-12 -12l-4 -8q-26 -63 -56 -100l-4 -8q-23 -55 -48 -88v-608h-52h-16h-72h-16h-16h-16h-68h-12h-48v12v12v52v68v12v48v16v12v80v16v12v72v52v16v68v12v48 q-34 48 -48 80l-16 28q-20 34 -28 56l-16 28q-28 39 -40 72l-16 28l-16 24l-16 28l-4 16q-19 20 -24 40l-8 12l-24 40l-44 88l-8 4l-8 24q-26 34 -36 64l-12 12l-8 16l-12 20l-4 16l-12 16q-12 20 -16 36q-6 5 -8 12l-8 12l-4 12q-30 35 -40 72q-28 33 -36 64h20zM619 2090 l-4 -16l-8 -20l-4 -24l-4 -16l-8 -32l-4 -8v-12q-13 -31 -16 -60l-4 -12l-8 -32q-13 -31 -16 -60h20h16h20h52h16h68h32h28h52l8 20l8 12l8 20q14 32 28 52q14 38 28 60l4 8l4 12l8 12l4 12l4 8l8 8l4 12q27 50 36 84h-56h-52h-16h-72h-16h-16h-16h-68h-12h-48z" />
<glyph unicode="&#xde;" horiz-adv-x="1456" d="M562 1490h20h24h16h72h44h16h16h16h16h68h12h48h12l8 -4h12l28 -4l12 -4l56 -12q375 -180 316 -568q-134 -459 -612 -400h-16h-44h-20h-12h-16h-12h-80v992zM564 786h16h16h16h44h44h72h12h12h16h72h16q25 10 44 12q167 99 112 272q-37 86 -116 120h-12q-62 18 -112 12 h-20h-16h-20h-52h-16h-68h-12h-48v-416zM562 224v1527h-315v-1527h315z" />
<glyph unicode="&#xdf;" horiz-adv-x="1366" d="M1200 1498q120 -284 -116 -452q289 -145 208 -484q-101 -357 -516 -348v68v16v20v52v16v68v12v48q193 31 184 220q-48 142 -184 156v52v16v68v12v48v44q149 42 140 188q-49 129 -176 128q-131 -1 -180 -112l-4 -16l4 -24v-12q-4 -54 -4 -88v-980h-20h-24h-20h-16h-72h-16 h-16h-16h-68h-12h-48v12v80v12v16v72v28v28v16v20v16v20v52v16v68v12v48v80v12v12v124v52v28v16v20v16v20v40v20v20v20v12v12v20q-1 23 4 40q-7 44 0 80v12l4 12l20 76q107 211 316 264q34 2 56 8q419 50 572 -248z" />
<glyph unicode="&#xe0;" horiz-adv-x="1204" d="M960 1218l4 -8q16 -20 24 -40q21 -31 28 -56v-16q12 -39 12 -68v-392q-4 -99 8 -164q49 -51 112 -64l-8 -12l-8 -20l-8 -16l-4 -12l-4 -12l-8 -12l-16 -40l-8 -12l-4 -12l-4 -12l-4 -8l-28 -60q-178 -1 -268 112q-171 -170 -424 -84q-233 64 -272 284q2 323 304 376 q16 10 32 12h12q6 4 12 4l12 4l72 12l32 4l12 4l68 4q54 8 88 4q15 223 -244 152l-12 -4l-32 -4l-28 -12l-12 -4l-40 -12q-31 -21 -56 -28q-34 -26 -68 -36l-28 52l-8 4l-4 12l-8 8l-4 12q-26 30 -36 56q-16 15 -20 32q-26 25 -32 52l8 4l12 8l8 4q27 18 48 28q16 11 32 12 l8 8q37 17 64 24l8 8h12q19 12 32 16h12q27 14 52 16q55 23 104 24l12 4q274 18 456 -136zM696 694h-12q-24 -7 -40 -8h-12q-6 -4 -12 -4l-16 -4h-12l-16 -4l-24 -4q-6 -4 -12 -4l-16 -4l-12 -4q-56 -14 -88 -28q-42 -56 -24 -116q100 -140 288 -48l32 48l4 16v16v12v20v12 v16v12v80h-12zM645 1690l4 -16l8 -20l4 -24l4 -16l8 -32l4 -8v-12q13 -31 16 -60l4 -12l8 -32q13 -31 16 -60h-20h-16h-20h-52h-16h-68h-32h-28h-52l-8 20l-8 12l-8 20q-14 32 -28 52q-14 38 -28 60l-4 8l-4 12l-8 12l-4 12l-4 8l-8 8l-4 12q-27 50 -36 84h56h52h16h72h16 h16h16h68h12h48z" />
<glyph unicode="&#xe1;" horiz-adv-x="1204" d="M960 1218l4 -8q16 -20 24 -40q21 -31 28 -56v-16q12 -39 12 -68v-392q-4 -99 8 -164q49 -51 112 -64l-8 -12l-8 -20l-8 -16l-4 -12l-4 -12l-8 -12l-16 -40l-8 -12l-4 -12l-4 -12l-4 -8l-28 -60q-178 -1 -268 112q-171 -170 -424 -84q-233 64 -272 284q2 323 304 376 q16 10 32 12h12q6 4 12 4l12 4l72 12l32 4l12 4l68 4q54 8 88 4q15 223 -244 152l-12 -4l-32 -4l-28 -12l-12 -4l-40 -12q-31 -21 -56 -28q-34 -26 -68 -36l-28 52l-8 4l-4 12l-8 8l-4 12q-26 30 -36 56q-16 15 -20 32q-26 25 -32 52l8 4l12 8l8 4q27 18 48 28q16 11 32 12 l8 8q37 17 64 24l8 8h12q19 12 32 16h12q27 14 52 16q55 23 104 24l12 4q274 18 456 -136zM696 694h-12q-24 -7 -40 -8h-12q-6 -4 -12 -4l-16 -4h-12l-16 -4l-24 -4q-6 -4 -12 -4l-16 -4l-12 -4q-56 -14 -88 -28q-42 -56 -24 -116q100 -140 288 -48l32 48l4 16v16v12v20v12 v16v12v80h-12zM493 1690l-4 -16l-8 -20l-4 -24l-4 -16l-8 -32l-4 -8v-12q-13 -31 -16 -60l-4 -12l-8 -32q-13 -31 -16 -60h20h16h20h52h16h68h32h28h52l8 20l8 12l8 20q14 32 28 52q14 38 28 60l4 8l4 12l8 12l4 12l4 8l8 8l4 12q27 50 36 84h-56h-52h-16h-72h-16h-16h-16 h-68h-12h-48z" />
<glyph unicode="&#xe2;" horiz-adv-x="1204" d="M960 1218l4 -8q16 -20 24 -40q21 -31 28 -56v-16q12 -39 12 -68v-392q-4 -99 8 -164q49 -51 112 -64l-8 -12l-8 -20l-8 -16l-4 -12l-4 -12l-8 -12l-16 -40l-8 -12l-4 -12l-4 -12l-4 -8l-28 -60q-178 -1 -268 112q-171 -170 -424 -84q-233 64 -272 284q2 323 304 376 q16 10 32 12h12q6 4 12 4l12 4l72 12l32 4l12 4l68 4q54 8 88 4q15 223 -244 152l-12 -4l-32 -4l-28 -12l-12 -4l-40 -12q-31 -21 -56 -28q-34 -26 -68 -36l-28 52l-8 4l-4 12l-8 8l-4 12q-26 30 -36 56q-16 15 -20 32q-26 25 -32 52l8 4l12 8l8 4q27 18 48 28q16 11 32 12 l8 8q37 17 64 24l8 8h12q19 12 32 16h12q27 14 52 16q55 23 104 24l12 4q274 18 456 -136zM696 694h-12q-24 -7 -40 -8h-12q-6 -4 -12 -4l-16 -4h-12l-16 -4l-24 -4q-6 -4 -12 -4l-16 -4l-12 -4q-56 -14 -88 -28q-42 -56 -24 -116q100 -140 288 -48l32 48l4 16v16v12v20v12 v16v12v80h-12zM370 1699l-36 -52l-8 -12l-8 -16l-24 -28q-10 -24 -24 -40q-15 -26 -28 -40l-8 -12l-8 -12l-4 -12l-8 -8q-4 -7 -8 -8l-8 -16l-24 -44h12h12h80h52h16h16h16h68h32h28q4 7 8 8q10 24 24 36q13 34 40 56l4 -12l8 -8l16 -28l8 -8l28 -44h28h16h20h16h20h16h20 h52h16h68h32h28q-14 31 -28 52l-12 12l-8 20l-12 12l-4 12q-7 4 -8 8l-24 32l-8 12l-4 12l-8 12l-8 8l-16 28l-8 8l-28 44q-19 25 -28 44h-68h-12h-48h-16h-72h-16h-16h-16h-68h-12h-48z" />
<glyph unicode="&#xe3;" horiz-adv-x="1204" d="M960 1218l4 -8q16 -20 24 -40q21 -31 28 -56v-16q12 -39 12 -68v-392q-4 -99 8 -164q49 -51 112 -64l-8 -12l-8 -20l-8 -16l-4 -12l-4 -12l-8 -12l-16 -40l-8 -12l-4 -12l-4 -12l-4 -8l-28 -60q-178 -1 -268 112q-171 -170 -424 -84q-233 64 -272 284q2 323 304 376 q16 10 32 12h12q6 4 12 4l12 4l72 12l32 4l12 4l68 4q54 8 88 4q15 223 -244 152l-12 -4l-32 -4l-28 -12l-12 -4l-40 -12q-31 -21 -56 -28q-34 -26 -68 -36l-28 52l-8 4l-4 12l-8 8l-4 12q-26 30 -36 56q-16 15 -20 32q-26 25 -32 52l8 4l12 8l8 4q27 18 48 28q16 11 32 12 l8 8q37 17 64 24l8 8h12q19 12 32 16h12q27 14 52 16q55 23 104 24l12 4q274 18 456 -136zM696 694h-12q-24 -7 -40 -8h-12q-6 -4 -12 -4l-16 -4h-12l-16 -4l-24 -4q-6 -4 -12 -4l-16 -4l-12 -4q-56 -14 -88 -28q-42 -56 -24 -116q100 -140 288 -48l32 48l4 16v16v12v20v12 v16v12v80h-12zM545 1678h-14q-43 16 -77 20q-90 0 -155 -28l-5 -8l-50 -32v-232q154 124 365 12q158 -38 269 52v12v52v16v44v28v12v12q2 37 -5 64q-139 -134 -328 -24z" />
<glyph unicode="&#xe4;" horiz-adv-x="1204" d="M960 1218l4 -8q16 -20 24 -40q21 -31 28 -56v-16q12 -39 12 -68v-392q-4 -99 8 -164q49 -51 112 -64l-8 -12l-8 -20l-8 -16l-4 -12l-4 -12l-8 -12l-16 -40l-8 -12l-4 -12l-4 -12l-4 -8l-28 -60q-178 -1 -268 112q-171 -170 -424 -84q-233 64 -272 284q2 323 304 376 q16 10 32 12h12q6 4 12 4l12 4l72 12l32 4l12 4l68 4q54 8 88 4q15 223 -244 152l-12 -4l-32 -4l-28 -12l-12 -4l-40 -12q-31 -21 -56 -28q-34 -26 -68 -36l-28 52l-8 4l-4 12l-8 8l-4 12q-26 30 -36 56q-16 15 -20 32q-26 25 -32 52l8 4l12 8l8 4q27 18 48 28q16 11 32 12 l8 8q37 17 64 24l8 8h12q19 12 32 16h12q27 14 52 16q55 23 104 24l12 4q274 18 456 -136zM696 694h-12q-24 -7 -40 -8h-12q-6 -4 -12 -4l-16 -4h-12l-16 -4l-24 -4q-6 -4 -12 -4l-16 -4l-12 -4q-56 -14 -88 -28q-42 -56 -24 -116q100 -140 288 -48l32 48l4 16v16v12v20v12 v16v12v80h-12zM491 1598q3 -113 -76 -176q-181 -72 -256 88q-40 180 128 232q165 3 204 -144zM1031 1598q3 -113 -76 -176q-181 -72 -256 88q-40 180 128 232q165 3 204 -144z" />
<glyph unicode="&#xe5;" horiz-adv-x="1204" d="M960 1218l4 -8q16 -20 24 -40q21 -31 28 -56v-16q12 -39 12 -68v-392q-4 -99 8 -164q49 -51 112 -64l-8 -12l-8 -20l-8 -16l-4 -12l-4 -12l-8 -12l-16 -40l-8 -12l-4 -12l-4 -12l-4 -8l-28 -60q-178 -1 -268 112q-171 -170 -424 -84q-233 64 -272 284q2 323 304 376 q16 10 32 12h12q6 4 12 4l12 4l72 12l32 4l12 4l68 4q54 8 88 4q15 223 -244 152l-12 -4l-32 -4l-28 -12l-12 -4l-40 -12q-31 -21 -56 -28q-34 -26 -68 -36l-28 52l-8 4l-4 12l-8 8l-4 12q-26 30 -36 56q-16 15 -20 32q-26 25 -32 52l8 4l12 8l8 4q27 18 48 28q16 11 32 12 l8 8q37 17 64 24l8 8h12q19 12 32 16h12q27 14 52 16q55 23 104 24l12 4q274 18 456 -136zM696 694h-12q-24 -7 -40 -8h-12q-6 -4 -12 -4l-16 -4h-12l-16 -4l-24 -4q-6 -4 -12 -4l-16 -4l-12 -4q-56 -14 -88 -28q-42 -56 -24 -116q100 -140 288 -48l32 48l4 16v16v12v20v12 v16v12v80h-12zM396 1644q-18 -134 78 -212l22 -12l9 -4l41 -15q278 -12 247 259q-69 166 -241 144q-132 -37 -156 -160zM699 1632q21 -109 -69 -150q-129 -23 -146 103q-6 121 99 144q103 -4 116 -97z" />
<glyph unicode="&#xe6;" horiz-adv-x="1828" d="M928 1246q371 205 644 -64q177 -232 156 -520q-54 8 -88 4h-12h-80h-16h-20h-52h-16h-68h-12h-48h-16h-68h-52h-16h-44h-28h-12h-12q-37 2 -64 -4v-16q42 -172 204 -192q184 -16 304 104l32 -36q19 -13 28 -28l8 -4l4 -8q20 -15 32 -28l8 -12q7 -4 8 -8l8 -4l8 -8l4 -8 l8 -4l4 -8q20 -15 32 -28q-179 -228 -484 -184q-259 22 -392 216l-12 -12q-45 -208 -264 -204q-268 -21 -416 168l-8 16l-4 12q-20 36 -28 64q-67 465 636 468q15 223 -244 152l-12 -4l-32 -4l-28 -12l-12 -4l-40 -12q-31 -21 -56 -28q-34 -26 -68 -36l-28 52l-8 4l-4 12 l-8 8l-4 12q-26 30 -36 56q-16 15 -20 32q-26 25 -32 52l8 4l12 8l8 4q27 18 48 28q16 11 32 12l8 8q37 17 64 24l8 8h12q19 12 32 16h12q27 14 52 16q55 23 104 24l12 4q245 12 424 -108zM1008 890h24h28h52h124h56h12h20h12h16h12h80q-45 180 -220 196q-184 -29 -216 -196 zM712 698l-16 -4h-12q-24 -7 -40 -8h-12q-6 -4 -12 -4l-16 -4h-12l-16 -4l-24 -4q-6 -4 -12 -4l-16 -4l-12 -4q-56 -14 -88 -28q-42 -56 -24 -116q100 -140 288 -48q62 97 28 232h-4h4h-4z" />
<glyph unicode="&#xe7;" horiz-adv-x="1160" d="M1092 994l-16 -8q-26 -6 -44 -16l-16 -4l-16 -4q-22 -12 -44 -16q-6 -4 -12 -4q-16 -10 -32 -12l-28 -12q-44 -19 -76 -24q-61 191 -244 192q-197 -83 -192 -284q-21 -177 84 -296q102 -95 216 -44q109 61 136 172h12l16 -8l28 -8l8 -8q41 -9 68 -24l12 -4l16 -4l12 -4 q15 -9 32 -12l12 -4l8 -8q36 -8 60 -20q-166 -389 -560 -352q-428 79 -464 516q-26 565 476 660q414 4 548 -360zM419 122l-4 -16l-8 -20l-4 -24l-4 -16l-8 -32l-4 -8v-12q-13 -31 -16 -60l-4 -12l-8 -32q-13 -31 -16 -60h20h16h20h52h16h68h32h28h52l8 20l8 12l8 20 q14 32 28 52q14 38 28 60l4 8l4 12l8 12l4 12l4 8l8 8l4 12q27 50 36 84h-56h-52h-16h-72h-16h-16h-16h-68h-12h-48z" />
<glyph unicode="&#xe8;" horiz-adv-x="1192" d="M1076 858l12 -52v-28q8 -71 4 -116l-12 4h-12h-80h-12h-12h-124h-28h-24h-28h-24h-20h-24h-16h-72h-44h-16h-16h-16h-16h-68h-12h-48q22 -174 180 -208q197 -30 328 100l32 -36q19 -13 28 -28l8 -4l4 -8q20 -15 32 -28l8 -12q7 -4 8 -8l8 -4l8 -8l4 -8l8 -4l4 -8 q20 -15 32 -28q-189 -240 -520 -180q-405 69 -460 492q-36 536 440 648q489 7 556 -476zM372 890h24h28h52h124h56h12h20h12h16h12h80q-45 180 -220 196q-184 -29 -216 -196zM645 1693l4 -16l8 -20l4 -24l4 -16l8 -32l4 -8v-12q13 -31 16 -60l4 -12l8 -32q13 -31 16 -60h-20 h-16h-20h-52h-16h-68h-32h-28h-52l-8 20l-8 12l-8 20q-14 32 -28 52q-14 38 -28 60l-4 8l-4 12l-8 12l-4 12l-4 8l-8 8l-4 12q-27 50 -36 84h56h52h16h72h16h16h16h68h12h48z" />
<glyph unicode="&#xe9;" horiz-adv-x="1192" d="M1076 858l12 -52v-28q8 -71 4 -116l-12 4h-12h-80h-12h-12h-124h-28h-24h-28h-24h-20h-24h-16h-72h-44h-16h-16h-16h-16h-68h-12h-48q22 -174 180 -208q197 -30 328 100l32 -36q19 -13 28 -28l8 -4l4 -8q20 -15 32 -28l8 -12q7 -4 8 -8l8 -4l8 -8l4 -8l8 -4l4 -8 q20 -15 32 -28q-189 -240 -520 -180q-405 69 -460 492q-36 536 440 648q489 7 556 -476zM372 890h24h28h52h124h56h12h20h12h16h12h80q-45 180 -220 196q-184 -29 -216 -196zM490 1693l-4 -16l-8 -20l-4 -24l-4 -16l-8 -32l-4 -8v-12q-13 -31 -16 -60l-4 -12l-8 -32 q-13 -31 -16 -60h20h16h20h52h16h68h32h28h52l8 20l8 12l8 20q14 32 28 52q14 38 28 60l4 8l4 12l8 12l4 12l4 8l8 8l4 12q27 50 36 84h-56h-52h-16h-72h-16h-16h-16h-68h-12h-48z" />
<glyph unicode="&#xea;" horiz-adv-x="1192" d="M1076 858l12 -52v-28q8 -71 4 -116l-12 4h-12h-80h-12h-12h-124h-28h-24h-28h-24h-20h-24h-16h-72h-44h-16h-16h-16h-16h-68h-12h-48q22 -174 180 -208q197 -30 328 100l32 -36q19 -13 28 -28l8 -4l4 -8q20 -15 32 -28l8 -12q7 -4 8 -8l8 -4l8 -8l4 -8l8 -4l4 -8 q20 -15 32 -28q-189 -240 -520 -180q-405 69 -460 492q-36 536 440 648q489 7 556 -476zM372 890h24h28h52h124h56h12h20h12h16h12h80q-45 180 -220 196q-184 -29 -216 -196zM367 1702l-36 -52l-8 -12l-8 -16l-24 -28q-10 -24 -24 -40q-15 -26 -28 -40l-8 -12l-8 -12l-4 -12 l-8 -8q-4 -7 -8 -8l-8 -16l-24 -44h12h12h80h52h16h16h16h68h32h28q4 7 8 8q10 24 24 36q13 34 40 56l4 -12l8 -8l16 -28l8 -8l28 -44h28h16h20h16h20h16h20h52h16h68h32h28q-14 31 -28 52l-12 12l-8 20l-12 12l-4 12q-7 4 -8 8l-24 32l-8 12l-4 12l-8 12l-8 8l-16 28l-8 8 l-28 44q-19 25 -28 44h-68h-12h-48h-16h-72h-16h-16h-16h-68h-12h-48z" />
<glyph unicode="&#xeb;" horiz-adv-x="1192" d="M1076 858l12 -52v-28q8 -71 4 -116l-12 4h-12h-80h-12h-12h-124h-28h-24h-28h-24h-20h-24h-16h-72h-44h-16h-16h-16h-16h-68h-12h-48q22 -174 180 -208q197 -30 328 100l32 -36q19 -13 28 -28l8 -4l4 -8q20 -15 32 -28l8 -12q7 -4 8 -8l8 -4l8 -8l4 -8l8 -4l4 -8 q20 -15 32 -28q-189 -240 -520 -180q-405 69 -460 492q-36 536 440 648q489 7 556 -476zM372 890h24h28h52h124h56h12h20h12h16h12h80q-45 180 -220 196q-184 -29 -216 -196zM478 1598q3 -113 -76 -176q-181 -72 -256 88q-40 180 128 232q165 3 204 -144zM1018 1598 q3 -113 -76 -176q-181 -72 -256 88q-40 180 128 232q165 3 204 -144z" />
<glyph unicode="&#xec;" horiz-adv-x="593" d="M200 1306h16h20h52h16h68h32h28v-1092h-56h-44h-20h-12h-16h-12h-80h-12h-48v12v20v12v16v12v80v28v16v20v16v20v52v16v68v12v48v28v28v24v28v24v28v24v68v24v20v24v16v72v44v16v16v16v16v68v12v48h68zM359 1686l4 -16l8 -20l4 -24l4 -16l8 -32l4 -8v-12q13 -31 16 -60 l4 -12l8 -32q13 -31 16 -60h-20h-16h-20h-52h-16h-68h-32h-28h-52l-8 20l-8 12l-8 20q-14 32 -28 52q-14 38 -28 60l-4 8l-4 12l-8 12l-4 12l-4 8l-8 8l-4 12q-27 50 -36 84h56h52h16h72h16h16h16h68h12h48z" />
<glyph unicode="&#xed;" horiz-adv-x="586" d="M200 1306h16h20h52h16h68h32h28v-1092h-56h-44h-20h-12h-16h-12h-80h-12h-48v12v20v12v16v12v80v28v16v20v16v20v52v16v68v12v48v28v28v24v28v24v28v24v68v24v20v24v16v72v44v16v16v16v16v68v12v48h68zM197 1686l-4 -16l-8 -20l-4 -24l-4 -16l-8 -32l-4 -8v-12 q-13 -31 -16 -60l-4 -12l-8 -32q-13 -31 -16 -60h20h16h20h52h16h68h32h28h52l8 20l8 12l8 20q14 32 28 52q14 38 28 60l4 8l4 12l8 12l4 12l4 8l8 8l4 12q27 50 36 84h-56h-52h-16h-72h-16h-16h-16h-68h-12h-48z" />
<glyph unicode="&#xee;" horiz-adv-x="710" d="M200 1306h16h20h52h16h68h32h28v-1092h-56h-44h-20h-12h-16h-12h-80h-12h-48v12v20v12v16v12v80v28v16v20v16v20v52v16v68v12v48v28v28v24v28v24v28v24v68v24v20v24v16v72v44v16v16v16v16v68v12v48h68zM90 1692l-36 -52l-8 -12l-8 -16l-24 -28q-10 -24 -24 -40 q-15 -26 -28 -40l-8 -12l-8 -12l-4 -12l-8 -8q-4 -7 -8 -8l-8 -16l-24 -44h12h12h80h52h16h16h16h68h32h28q4 7 8 8q10 24 24 36q13 34 40 56l4 -12l8 -8l16 -28l8 -8l28 -44h28h16h20h16h20h16h20h52h16h68h32h28q-14 31 -28 52l-12 12l-8 20l-12 12l-4 12q-7 4 -8 8 l-24 32l-8 12l-4 12l-8 12l-8 8l-16 28l-8 8l-28 44q-19 25 -28 44h-68h-12h-48h-16h-72h-16h-16h-16h-68h-12h-48z" />
<glyph unicode="&#xef;" horiz-adv-x="710" d="M200 1306h16h20h52h16h68h32h28v-1092h-56h-44h-20h-12h-16h-12h-80h-12h-48v12v20v12v16v12v80v28v16v20v16v20v52v16v68v12v48v28v28v24v28v24v28v24v68v24v20v24v16v72v44v16v16v16v16v68v12v48h68zM249 1598q3 -113 -76 -176q-181 -72 -256 88q-40 180 128 232 q165 3 204 -144zM672 1595q3 -113 -76 -176q-181 -72 -256 88q-40 180 128 232q165 3 204 -144z" />
<glyph unicode="&#xf0;" horiz-adv-x="1248" d="M1081 1019q9 -11 15 -29q86 -348 -84 -612q-239 -275 -568 -180q-346 118 -376 492q-30 572 480 664q394 3 533 -335zM372 750q-6 -257 212 -304q262 18 236 384q-31 253 -256 256q-218 -94 -192 -336zM277 1770l305 -416l57 -4l59 -9l36 -7l50 -15l48 -19l50 -28l55 -42 l42 -41l37 -48l38 -63l21 -41l-91 164l-375 569h-332zM1129 1462l-101 167l-327 -1l88 -166h340zM535 1458l-101 167l-327 -1l88 -166h340z" />
<glyph unicode="&#xf1;" horiz-adv-x="1292" d="M1084 1114l4 -12l4 -12l4 -12q10 -17 12 -32l16 -48v-12q14 -72 12 -116v-652h-80h-20h-12h-16h-16h-16h-16h-68h-12h-48v12v20v12v16v12v80v56v44v20v12v16v12v80v16v44v40v72v12v12v16v72v16q-10 25 -12 44q-48 84 -128 108q-166 4 -244 -128l-8 -28v-688h-80h-20h-12 h-16h-16h-16h-16h-68h-12h-48v12v20v12v16v12v80v28v16v20v16v20v52v16v68v12v48v28v28v24v28v24v28v24v68v24v20v24v16v72v44v16v16v16v16v68v12v48h80h20h12h16h16h16h16h68h12h48q-2 -41 4 -68q100 79 212 96q274 9 428 -224zM643 1678h-14q-43 16 -77 20q-90 0 -155 -28 l-5 -8l-50 -32v-232q154 124 365 12q158 -38 269 52v12v52v16v44v28v12v12q2 37 -5 64q-139 -134 -328 -24z" />
<glyph unicode="&#xf2;" horiz-adv-x="1248" d="M1076 1026q14 -18 20 -36q86 -348 -84 -612q-239 -275 -568 -180q-346 118 -376 492q-30 572 480 664q394 3 528 -328zM372 750q-6 -257 212 -304q262 18 236 384q-31 253 -256 256q-218 -94 -192 -336zM675 1693l4 -16l8 -20l4 -24l4 -16l8 -32l4 -8v-12q13 -31 16 -60 l4 -12l8 -32q13 -31 16 -60h-20h-16h-20h-52h-16h-68h-32h-28h-52l-8 20l-8 12l-8 20q-14 32 -28 52q-14 38 -28 60l-4 8l-4 12l-8 12l-4 12l-4 8l-8 8l-4 12q-27 50 -36 84h56h52h16h72h16h16h16h68h12h48z" />
<glyph unicode="&#xf3;" horiz-adv-x="1248" d="M1076 1026q14 -18 20 -36q86 -348 -84 -612q-239 -275 -568 -180q-346 118 -376 492q-30 572 480 664q394 3 528 -328zM372 750q-6 -257 212 -304q262 18 236 384q-31 253 -256 256q-218 -94 -192 -336zM516 1693l-4 -16l-8 -20l-4 -24l-4 -16l-8 -32l-4 -8v-12 q-13 -31 -16 -60l-4 -12l-8 -32q-13 -31 -16 -60h20h16h20h52h16h68h32h28h52l8 20l8 12l8 20q14 32 28 52q14 38 28 60l4 8l4 12l8 12l4 12l4 8l8 8l4 12q27 50 36 84h-56h-52h-16h-72h-16h-16h-16h-68h-12h-48z" />
<glyph unicode="&#xf4;" horiz-adv-x="1248" d="M1076 1026q14 -18 20 -36q86 -348 -84 -612q-239 -275 -568 -180q-346 118 -376 492q-30 572 480 664q394 3 528 -328zM372 750q-6 -257 212 -304q262 18 236 384q-31 253 -256 256q-218 -94 -192 -336zM390 1697l-36 -52l-8 -12l-8 -16l-24 -28q-10 -24 -24 -40 q-15 -26 -28 -40l-8 -12l-8 -12l-4 -12l-8 -8q-4 -7 -8 -8l-8 -16l-24 -44h12h12h80h52h16h16h16h68h32h28q4 7 8 8q10 24 24 36q13 34 40 56l4 -12l8 -8l16 -28l8 -8l28 -44h28h16h20h16h20h16h20h52h16h68h32h28q-14 31 -28 52l-12 12l-8 20l-12 12l-4 12q-7 4 -8 8 l-24 32l-8 12l-4 12l-8 12l-8 8l-16 28l-8 8l-28 44q-19 25 -28 44h-68h-12h-48h-16h-72h-16h-16h-16h-68h-12h-48z" />
<glyph unicode="&#xf5;" horiz-adv-x="1248" d="M1076 1026q14 -18 20 -36q86 -348 -84 -612q-239 -275 -568 -180q-346 118 -376 492q-30 572 480 664q394 3 528 -328zM372 750q-6 -257 212 -304q262 18 236 384q-31 253 -256 256q-218 -94 -192 -336zM571 1678h-14q-43 16 -77 20q-90 0 -155 -28l-5 -8l-50 -32v-232 q154 124 365 12q158 -38 269 52v12v52v16v44v28v12v12q2 37 -5 64q-139 -134 -328 -24z" />
<glyph unicode="&#xf6;" horiz-adv-x="1248" d="M1076 1026q14 -18 20 -36q86 -348 -84 -612q-239 -275 -568 -180q-346 118 -376 492q-30 572 480 664q394 3 528 -328zM372 750q-6 -257 212 -304q262 18 236 384q-31 253 -256 256q-218 -94 -192 -336zM480 1598q3 -113 -76 -176q-181 -72 -256 88q-40 180 128 232 q165 3 204 -144zM1020 1598q3 -113 -76 -176q-181 -72 -256 88q-40 180 128 232q165 3 204 -144z" />
<glyph unicode="&#xf7;" horiz-adv-x="636" />
<glyph unicode="&#xf8;" horiz-adv-x="1260" d="M1076 1026q14 -18 20 -36q86 -348 -84 -612q-239 -275 -568 -180q-346 118 -376 492q-30 572 480 664q394 3 528 -328zM372 750q-6 -257 212 -304q262 18 236 384q-31 253 -256 256q-218 -94 -192 -336zM1150 1487l-78 -146l-35 -66l-16 -25l-12 -20l-6 -12l-5 -5 q-13 -28 -28 -45l-6 -15l-7 -18l-27 -38q-2 -8 -6 -12q-6 -16 -17 -31l-6 -12l-6 -8l-5 -9l-7 -14l-11 -17l-5 -8l-7 -18l-22 -34l-12 -23l-12 -23l-6 -8l-21 -34l-12 -20l-5 -5q-11 -32 -29 -51l-5 -8l-7 -18l-18 -32l-10 -13l-6 -12l-18 -34l-6 -12l-39 -62l-7 -18l-5 -8 l-6 -8l-5 -5l-24 -47l-12 -23l-5 -5l-11 -17l-18 -34l-16 -28l-17 -26l-11 -16l-47 -89l-6 -12l-6 -11l-11 -14l-6 -15l-10 -13l-7 -15l-5 -8l-7 -15l-5 -8l-7 -12l-5 -8l-5 -5l-11 -17l-5 -9l-7 -17l-22 -34l-273 1l76 144l6 12l6 8l5 8l11 20l6 12l5 5l24 46l12 23l12 20 l10 14l6 11l6 8l6 15l6 9l6 14l6 9l5 8l5 5q12 26 23 40l5 8l30 58l16 19l12 23l30 57l11 20l6 9l4 5l29 51l12 20l11 20l12 23l11 14l1 9l6 9l5 5q11 25 23 40l6 14l6 12l6 8l5 9l12 19l6 12l4 5q13 28 28 45l2 10l5 5l29 51l11 17l1 9l5 6l11 16l6 9l1 9l6 9l21 33l6 12 l12 23l5 5l6 8l30 58l11 17l6 14l12 20l10 11l1 9q16 22 23 40l6 8l5 9l5 8l12 20l6 11l5 6l24 46h278z" />
<glyph unicode="&#xf9;" horiz-adv-x="1300" d="M148 1310h20h16h20h16h20h52h16h68h32h28l4 -716q105 -202 304 -88q60 48 84 112v12v80v28v28v16v20v52v16v68v12v48v16v16v12v72v52v16v68v12v48h80h20h12h16h16h16h16h68h12h48v-1092h-80h-20h-12h-16h-16h-16h-16h-68h-12h-48v72q-238 -172 -476 -40q-108 69 -160 164 l-8 4l-4 12l-4 12q-9 20 -12 32l-4 12q-19 62 -24 100l-4 88v28v24v68v12v48v52v16v68v12v48v44v20v52v16v68v12v48h16zM701 1693l4 -16l8 -20l4 -24l4 -16l8 -32l4 -8v-12q13 -31 16 -60l4 -12l8 -32q13 -31 16 -60h-20h-16h-20h-52h-16h-68h-32h-28h-52l-8 20l-8 12l-8 20 q-14 32 -28 52q-14 38 -28 60l-4 8l-4 12l-8 12l-4 12l-4 8l-8 8l-4 12q-27 50 -36 84h56h52h16h72h16h16h16h68h12h48z" />
<glyph unicode="&#xfa;" horiz-adv-x="1300" d="M148 1310h20h16h20h16h20h52h16h68h32h28l4 -716q105 -202 304 -88q60 48 84 112v12v80v28v28v16v20v52v16v68v12v48v16v16v12v72v52v16v68v12v48h80h20h12h16h16h16h16h68h12h48v-1092h-80h-20h-12h-16h-16h-16h-16h-68h-12h-48v72q-238 -172 -476 -40q-108 69 -160 164 l-8 4l-4 12l-4 12q-9 20 -12 32l-4 12q-19 62 -24 100l-4 88v28v24v68v12v48v52v16v68v12v48v44v20v52v16v68v12v48h16zM550 1693l-4 -16l-8 -20l-4 -24l-4 -16l-8 -32l-4 -8v-12q-13 -31 -16 -60l-4 -12l-8 -32q-13 -31 -16 -60h20h16h20h52h16h68h32h28h52l8 20l8 12l8 20 q14 32 28 52q14 38 28 60l4 8l4 12l8 12l4 12l4 8l8 8l4 12q27 50 36 84h-56h-52h-16h-72h-16h-16h-16h-68h-12h-48z" />
<glyph unicode="&#xfb;" horiz-adv-x="1300" d="M148 1310h20h16h20h16h20h52h16h68h32h28l4 -716q105 -202 304 -88q60 48 84 112v12v80v28v28v16v20v52v16v68v12v48v16v16v12v72v52v16v68v12v48h80h20h12h16h16h16h16h68h12h48v-1092h-80h-20h-12h-16h-16h-16h-16h-68h-12h-48v72q-238 -172 -476 -40q-108 69 -160 164 l-8 4l-4 12l-4 12q-9 20 -12 32l-4 12q-19 62 -24 100l-4 88v28v24v68v12v48v52v16v68v12v48v44v20v52v16v68v12v48h16zM427 1699l-36 -52l-8 -12l-8 -16l-24 -28q-10 -24 -24 -40q-15 -26 -28 -40l-8 -12l-8 -12l-4 -12l-8 -8q-4 -7 -8 -8l-8 -16l-24 -44h12h12h80h52h16 h16h16h68h32h28q4 7 8 8q10 24 24 36q13 34 40 56l4 -12l8 -8l16 -28l8 -8l28 -44h28h16h20h16h20h16h20h52h16h68h32h28q-14 31 -28 52l-12 12l-8 20l-12 12l-4 12q-7 4 -8 8l-24 32l-8 12l-4 12l-8 12l-8 8l-16 28l-8 8l-28 44q-19 25 -28 44h-68h-12h-48h-16h-72h-16h-16 h-16h-68h-12h-48z" />
<glyph unicode="&#xfc;" horiz-adv-x="1300" d="M148 1310h20h16h20h16h20h52h16h68h32h28l4 -716q105 -202 304 -88q60 48 84 112v12v80v28v28v16v20v52v16v68v12v48v16v16v12v72v52v16v68v12v48h80h20h12h16h16h16h16h68h12h48v-1092h-80h-20h-12h-16h-16h-16h-16h-68h-12h-48v72q-238 -172 -476 -40q-108 69 -160 164 l-8 4l-4 12l-4 12q-9 20 -12 32l-4 12q-19 62 -24 100l-4 88v28v24v68v12v48v52v16v68v12v48v44v20v52v16v68v12v48h16zM541 1598q3 -113 -76 -176q-181 -72 -256 88q-40 180 128 232q165 3 204 -144zM1081 1598q3 -113 -76 -176q-181 -72 -256 88q-40 180 128 232 q165 3 204 -144z" />
<glyph unicode="&#xfd;" horiz-adv-x="1148" d="M40 1306h20h16h72h16h16h16h68h12h48l8 -28l32 -88l4 -12l4 -16l4 -8l4 -12l12 -32q12 -30 16 -48q16 -33 20 -60q16 -30 20 -56l8 -12l20 -64l8 -12v-12q16 -27 20 -52l4 -12l4 -12q4 -6 4 -12q6 -12 8 -24q8 -10 12 -32q13 -22 16 -44l12 28l12 24l8 28l28 76l8 28 l8 24q13 24 16 44l8 16l4 16q11 23 16 44l20 48l12 44l8 20q14 31 20 56l8 16l12 28q6 28 12 44l4 12l20 52h24h20h16h72h16h16h16h68h12h48q-5 -16 -12 -28q-3 -23 -12 -44l-8 -12v-12l-16 -32l-4 -12l-4 -24l-4 -8l-4 -12l-20 -52l-4 -16l-8 -16l-4 -12l-4 -12l-4 -12 l-4 -12l-4 -12l-20 -48l-12 -44l-12 -28l-12 -28l-4 -12l-16 -52l-4 -12q-17 -37 -24 -64l-12 -28l-4 -12q-22 -74 -44 -116q-8 -38 -20 -64l-8 -24l-24 -68l-8 -24l-8 -20l-8 -16l-4 -20q-15 -31 -20 -56l-8 -16l-4 -8q-5 -21 -12 -36l-4 -16l-8 -16l-12 -40l-4 -8l-12 -28 l-4 -8l-8 -28l-20 -52l-4 -8l-8 -8q-22 -36 -44 -56l-12 -4q-41 -33 -80 -44h-12q-47 -9 -80 -8h-20h-12q-16 6 -32 4h-16h-16l-16 4h-20h-12l-20 4h-12l-12 4h-12h-12q-40 11 -72 12v16l4 20v16l12 72v20l4 8v16l4 12v16l12 72q221 -56 260 60q1 46 -12 80l-12 28l-4 8 l-8 36q-5 4 -4 8q-22 45 -28 80q-11 15 -12 32q-15 29 -20 52l-4 8l-12 28q-7 33 -20 56l-4 20l-12 28l-8 28q-9 20 -12 32q-13 30 -16 48l-28 68l-4 24l-8 8l-4 16l-32 88l-8 24l-8 16l-4 20l-8 20l-8 16l-8 36l-8 12l-12 40l-4 12l-8 12l-4 12l-4 12l-4 16l-24 68h24z M487 1688l-4 -16l-8 -20l-4 -24l-4 -16l-8 -32l-4 -8v-12q-13 -31 -16 -60l-4 -12l-8 -32q-13 -31 -16 -60h20h16h20h52h16h68h32h28h52l8 20l8 12l8 20q14 32 28 52q14 38 28 60l4 8l4 12l8 12l4 12l4 8l8 8l4 12q27 50 36 84h-56h-52h-16h-72h-16h-16h-16h-68h-12h-48z " />
<glyph unicode="&#xfe;" horiz-adv-x="1456" d="M562 224v1527h-315v-1527h315zM1344 901q-33 -351 -320 -468q-263 -82 -460 68v976q116 77 236 92q579 -5 544 -668zM576 1165v-12l-8 -32l-8 -28v-228q49 -170 212 -192q184 -13 240 144q56 169 4 320q-53 182 -260 164q-122 -37 -180 -136z" />
<glyph unicode="&#xff;" horiz-adv-x="1148" d="M40 1306h20h16h72h16h16h16h68h12h48l8 -28l32 -88l4 -12l4 -16l4 -8l4 -12l12 -32q12 -30 16 -48q16 -33 20 -60q16 -30 20 -56l8 -12l20 -64l8 -12v-12q16 -27 20 -52l4 -12l4 -12q4 -6 4 -12q6 -12 8 -24q8 -10 12 -32q13 -22 16 -44l12 28l12 24l8 28l28 76l8 28 l8 24q13 24 16 44l8 16l4 16q11 23 16 44l20 48l12 44l8 20q14 31 20 56l8 16l12 28q6 28 12 44l4 12l20 52h24h20h16h72h16h16h16h68h12h48q-5 -16 -12 -28q-3 -23 -12 -44l-8 -12v-12l-16 -32l-4 -12l-4 -24l-4 -8l-4 -12l-20 -52l-4 -16l-8 -16l-4 -12l-4 -12l-4 -12 l-4 -12l-4 -12l-20 -48l-12 -44l-12 -28l-12 -28l-4 -12l-16 -52l-4 -12q-17 -37 -24 -64l-12 -28l-4 -12q-22 -74 -44 -116q-8 -38 -20 -64l-8 -24l-24 -68l-8 -24l-8 -20l-8 -16l-4 -20q-15 -31 -20 -56l-8 -16l-4 -8q-5 -21 -12 -36l-4 -16l-8 -16l-12 -40l-4 -8l-12 -28 l-4 -8l-8 -28l-20 -52l-4 -8l-8 -8q-22 -36 -44 -56l-12 -4q-41 -33 -80 -44h-12q-47 -9 -80 -8h-20h-12q-16 6 -32 4h-16h-16l-16 4h-20h-12l-20 4h-12l-12 4h-12h-12q-40 11 -72 12v16l4 20v16l12 72v20l4 8v16l4 12v16l12 72q221 -56 260 60q1 46 -12 80l-12 28l-4 8 l-8 36q-5 4 -4 8q-22 45 -28 80q-11 15 -12 32q-15 29 -20 52l-4 8l-12 28q-7 33 -20 56l-4 20l-12 28l-8 28q-9 20 -12 32q-13 30 -16 48l-28 68l-4 24l-8 8l-4 16l-32 88l-8 24l-8 16l-4 20l-8 20l-8 16l-8 36l-8 12l-12 40l-4 12l-8 12l-4 12l-4 12l-4 16l-24 68h24z M480 1598q3 -113 -76 -176q-181 -72 -256 88q-40 180 128 232q165 3 204 -144zM1020 1598q3 -113 -76 -176q-181 -72 -256 88q-40 180 128 232q165 3 204 -144z" />
<glyph unicode="&#x152;" horiz-adv-x="2072" d="M840 1746h12h12h52h12h20h12h16h12h80h32h56h12h20h12h16h12h80h68h12h48h16h12h80h16h12h72h52h16h68h12h48v-304h-80h-24h-68h-12h-48h-52h-16h-68h-12h-48h-44h-20h-52h-16h-68h-12h-48v-308h28h24h28h24h28h24h68h24h20h24h16h72h44h16h16h16h16h68h12h48q8 -7 8 -16 v-268h-56h-12h-20h-12h-16h-12h-80h-52h-28h-56h-12h-72h-52h-16h-68h-12h-48v-332h36h32h12h12h124h68h12h48h16h12h80h16h12h72h52h16h68h12h48v-304h-28h-24h-12h-52h-24h-28h-24h-20h-24h-16h-72h-44h-16h-16h-16h-16h-12h-16h-12h-16h-72h-16h-20h-16h-20h-16h-20h-52 h-16h-68h-12h-48q-631 -63 -852 464q-128 406 68 728q202 326 560 340h28zM472 950q16 -388 364 -436v24v12v16v68v12v48v32v80v12v12v124v28v24v28v24v20v24v16v72v44v16v16v16v16v68v12v48q-2 17 -16 16q-370 -75 -348 -492z" />
<glyph unicode="&#x153;" horiz-adv-x="1936" d="M976 1190q333 274 660 36q219 -221 200 -548q-3 -21 -28 -12h-12h-80h-80h-12h-12h-52h-24h-20h-16h-12h-80h-68h-52h-16h-44h-28h-12h-12q-37 2 -64 -4v-16q42 -172 204 -192q184 -16 304 104l32 -36q19 -13 28 -28l8 -4l4 -8q20 -15 32 -28l8 -12q7 -4 8 -8l8 -4l8 -8 l4 -8l8 -4l4 -8q20 -15 32 -28q-54 -81 -132 -120q-174 -91 -352 -64q-204 15 -336 144v4v-4v4q-211 -194 -468 -156q-208 36 -328 184q-205 323 -76 652q129 304 436 336q267 9 428 -164zM372 750q-6 -257 212 -304q262 18 236 384q-31 253 -256 256q-218 -94 -192 -336z M1116 890h24h28h52h124h56h12h20h12h16h12h80q-45 180 -220 196q-184 -29 -216 -196z" />
<glyph unicode="&#x178;" horiz-adv-x="1392" d="M48 1742h56h20h16h72h16h16h16h68h32h28l8 -12l16 -28l40 -72l12 -24l12 -20l8 -20l8 -8l4 -12q5 -4 4 -8q25 -35 36 -64q18 -24 24 -44l12 -16l4 -12l12 -16l4 -12l12 -16l8 -16l8 -12l4 -12l12 -16l4 -8l8 -24q7 -4 8 -8q22 -46 44 -72l12 28l40 68l12 24l12 20l12 24 l32 56l16 24l8 24l8 8l4 8l4 12q18 26 28 48l8 16l12 16l8 16l4 12l12 16l8 12l4 12l8 12l4 12l8 12l40 72h28h56h12h72h52h16h68h12h48l-36 -64l-8 -12l-8 -20l-8 -12l-8 -12l-4 -12l-8 -12l-4 -12l-8 -4q-11 -33 -28 -56l-4 -8l-40 -72l-4 -8l-4 -8l-44 -72l-12 -28l-4 -8 q-12 -20 -16 -32q-13 -16 -16 -28l-12 -20l-32 -56l-4 -8l-4 -8l-4 -8l-8 -8q-15 -39 -36 -64l-8 -16l-8 -16l-8 -20l-12 -12l-4 -8q-26 -63 -56 -100l-4 -8q-23 -55 -48 -88v-608h-52h-16h-72h-16h-16h-16h-68h-12h-48v12v12v52v68v12v48v16v12v80v16v12v72v52v16v68v12v48 q-34 48 -48 80l-16 28q-20 34 -28 56l-16 28q-28 39 -40 72l-16 28l-16 24l-16 28l-4 16q-19 20 -24 40l-8 12l-24 40l-44 88l-8 4l-8 24q-26 34 -36 64l-12 12l-8 16l-12 20l-4 16l-12 16q-12 20 -16 36q-6 5 -8 12l-8 12l-4 12q-30 35 -40 72q-28 33 -36 64h20zM596 1995 q3 -113 -76 -176q-181 -72 -256 88q-40 180 128 232q165 3 204 -144zM1136 1995q3 -113 -76 -176q-181 -72 -256 88q-40 180 128 232q165 3 204 -144z" />
<glyph unicode="&#x2c6;" horiz-adv-x="360" />
<glyph unicode="&#x2dc;" horiz-adv-x="483" />
<glyph unicode="&#x2000;" horiz-adv-x="1099" />
<glyph unicode="&#x2001;" horiz-adv-x="2198" />
<glyph unicode="&#x2002;" horiz-adv-x="1099" />
<glyph unicode="&#x2003;" horiz-adv-x="2198" />
<glyph unicode="&#x2004;" horiz-adv-x="732" />
<glyph unicode="&#x2005;" horiz-adv-x="549" />
<glyph unicode="&#x2006;" horiz-adv-x="366" />
<glyph unicode="&#x2007;" horiz-adv-x="366" />
<glyph unicode="&#x2008;" horiz-adv-x="274" />
<glyph unicode="&#x2009;" horiz-adv-x="439" />
<glyph unicode="&#x200a;" horiz-adv-x="122" />
<glyph unicode="&#x2010;" horiz-adv-x="768" d="M136 994h20h24h12h80h52h16h72h16h16h16h68h12h48v-232h-16h-68h-44h-16h-68h-12h-48h-12h-16h-16h-16h-16h-68h-12h-48v16v20v52v16v68v12v48h24z" />
<glyph unicode="&#x2011;" horiz-adv-x="768" d="M136 994h20h24h12h80h52h16h72h16h16h16h68h12h48v-232h-16h-68h-44h-16h-68h-12h-48h-12h-16h-16h-16h-16h-68h-12h-48v16v20v52v16v68v12v48h24z" />
<glyph unicode="&#x2013;" horiz-adv-x="684" />
<glyph unicode="&#x2014;" horiz-adv-x="894" />
<glyph unicode="&#x2018;" horiz-adv-x="237" />
<glyph unicode="&#x2019;" horiz-adv-x="240" />
<glyph unicode="&#x201a;" horiz-adv-x="234" />
<glyph unicode="&#x201c;" horiz-adv-x="342" />
<glyph unicode="&#x201d;" horiz-adv-x="300" />
<glyph unicode="&#x201e;" horiz-adv-x="402" />
<glyph unicode="&#x2022;" horiz-adv-x="387" />
<glyph unicode="&#x2026;" horiz-adv-x="792" />
<glyph unicode="&#x202f;" horiz-adv-x="439" />
<glyph unicode="&#x2039;" horiz-adv-x="321" />
<glyph unicode="&#x203a;" horiz-adv-x="321" />
<glyph unicode="&#x205f;" horiz-adv-x="549" />
<glyph unicode="&#x2122;" horiz-adv-x="681" />
</font>
</defs>
</svg>
